<svg xmlns="http://www.w3.org/2000/svg" width="817.316" height="761.707" viewBox="0 0 817.316 761.707"><defs><style>.a{fill:#05a8aa;}.b{fill:#293137;}.c{fill:#cedbdd;}.d{fill:#693523;}.e{fill:#b64b1c;}.f{fill:#161616;}.g{fill:#ffb288;}.h{fill:#f7665f;}.i{fill:#b3eaef;}.j{fill:#fff252;}.k{fill:#54293a;}.l{fill:#bb683e;}.m{fill:#e0652f;}.n{fill:#e8d94f;}.o{fill:#665448;}.p{fill:#6a7e84;}.q{fill:#f5ca7f;}.r{fill:#59dbd1;}.s{fill:#fff09d;}.t{fill:#6ac3d1;}.u{fill:#ff7bac;}</style></defs><g transform="translate(-157.262 -110.792)"><path class="a" d="M829.252,761.48c-60,39.164-125.381-36.349-223.516,5.042-72,30.366-68.424,84.347-131.1,101.569-81.5,22.39-173.032-45.4-217.2-93.52C125.311,630.61,187.691,412.8,192.988,395.788,243.766,232.735,391.824,86.98,474.729,114.051c71.669,23.405,30.485,155.071,142.505,246.977,91.157,74.785,162.62,36.853,222.693,111.849C908.691,558.723,897.046,717.225,829.252,761.48Z" transform="translate(41.054 0)"/><g transform="translate(157.262 175.882)"><path class="b" d="M321.7,590.289h0a1.488,1.488,0,0,1-1.485-1.485V145.814a1.485,1.485,0,0,1,1.485-1.485h0a1.487,1.487,0,0,1,1.484,1.485V588.8A1.49,1.49,0,0,1,321.7,590.289Z" transform="translate(250.303 -92)"/><path class="c" d="M431.431,208.748V143.91a5.093,5.093,0,0,0-1.933-4.1c-48.624-36.125-97.249,35.558-145.87,6.141-2.983-1.8-6.621.658-6.621,4.412V215.2a5.091,5.091,0,0,0,1.936,4.1c48.621,36.125,97.246-35.558,145.87-6.145C427.794,214.959,431.431,212.5,431.431,208.748Z" transform="translate(142.244 -129.383)"/><g transform="translate(127.741 12.577)"><g transform="translate(66.15 124.503)"><path class="d" d="M214.64,209.064c1.618-2.661,3.729-5.136,4.415-8.172.868-3.858-.728-7.864-.413-11.8.406-5.115,4.047-9.52,8.431-12.184a27.155,27.155,0,0,1,3.1-1.59,10.821,10.821,0,0,1,1.323-1.5l.038-.063a14.522,14.522,0,0,1,21.963-.385,15.655,15.655,0,0,0,3.34,3.389c3.141,1.856,7.923.21,10.283,2.994,1.341,1.579,1.26,4.016,2.591,5.605,1.583,1.887,4.457,1.316,6.9,1.653,5.357.735,5.931,5.29,5.269,8.217a23.37,23.37,0,0,0,.466,7.538,16.578,16.578,0,0,0,2.16,5.332c1.768,2.559,4.646,4.068,7.139,5.938s4.818,4.576,4.569,7.678c-.445,5.549-8.168,7.482-10.325,12.615-1.155,2.748-.483,5.868-.4,8.851.329,12.3-11.634,23.405-23.889,22.3-10.325-.931-18.85-10.258-20-20.419a21.155,21.155,0,0,1-10.374-11.246c-1.036-2.8-1.579-5.945-3.673-8.063-3.914-3.96-11.8-2.874-14.285-7.857C211.874,215.107,213.026,211.721,214.64,209.064Z" transform="translate(-212.641 -168.535)"/><path class="e" d="M230.421,205.2l0,.063,0,0Z" transform="translate(-168.188 -76.843)"/><path class="e" d="M230.441,204.714c0,.039,0,.08,0,.119,0,.021,0,.046,0,.066,0-.07.007-.14,0-.21Z" transform="translate(-168.138 -78.108)"/></g><g transform="translate(89.158 304.109)"><g transform="translate(0 175.213)"><path class="f" d="M222.663,269.878c2.227,10.7,12.279,9.775,16.354,3.711l8.231,2.552c5.535,1.716,3.6,7.027-2.6,7.132l-23.6.389c-1.131.018-2-.616-1.81-1.327l3.249-12.2A1.03,1.03,0,0,1,222.663,269.878Z" transform="translate(-219.213 -269.878)"/></g><g transform="translate(2.505)"><g transform="translate(0.501 124.831)"><path class="g" d="M225.144,255.705a323.3,323.3,0,0,1-4.345,38.247,31.292,31.292,0,0,0-.284,11.918c2.227,10.7,12.279,9.775,16.354,3.711a10.025,10.025,0,0,0,1.6-4.016c2.675-16.655,4.944-33.538,6.834-50.077A32.016,32.016,0,0,1,225.144,255.705Z" transform="translate(-220.071 -255.488)"/></g><path class="h" d="M253.221,220.741c0-.312-.042-.606-.066-.907l-33.226.55c.032.3.049.6.1.9,4.194,24.12,6.719,59.6,6.456,93.986-.077,10.073-.4,20.041-.984,29.61a32.016,32.016,0,0,0,20.16-.217c1.155-10.091,2.167-20.051,3.046-29.76C252.135,277.057,253.515,243.11,253.221,220.741Z" transform="translate(-219.928 -219.834)"/></g></g><g transform="translate(49.64 304.109)"><g transform="translate(0 175.213)"><path class="f" d="M211.376,269.878c2.227,10.7,12.279,9.775,16.354,3.711l8.231,2.552c5.535,1.716,3.6,7.027-2.6,7.132l-23.6.389c-1.131.018-2-.616-1.81-1.327l3.249-12.2A1.03,1.03,0,0,1,211.376,269.878Z" transform="translate(-207.926 -269.878)"/></g><g transform="translate(2.505)"><g transform="translate(0.501 124.831)"><path class="g" d="M213.857,255.705a323.292,323.292,0,0,1-4.345,38.247,31.293,31.293,0,0,0-.284,11.918c2.227,10.7,12.279,9.775,16.354,3.711a10.024,10.024,0,0,0,1.6-4.016c2.675-16.655,4.944-33.538,6.834-50.077A32.016,32.016,0,0,1,213.857,255.705Z" transform="translate(-208.784 -255.488)"/></g><path class="h" d="M241.934,220.741c0-.312-.042-.606-.063-.907l-33.23.55c.031.3.049.6.1.9,4.194,24.12,6.719,59.6,6.456,93.986-.077,10.073-.4,20.041-.984,29.61a32.016,32.016,0,0,0,20.16-.217c1.155-10.091,2.171-20.051,3.05-29.76C240.848,277.057,242.228,243.11,241.934,220.741Z" transform="translate(-208.641 -219.834)"/></g></g><g transform="translate(26.158 89.444)"><g transform="translate(0.15 73.516)"><path class="g" d="M202.678,179.613c.1.511-1.52,2.8-1.411,3.305.791,2.857-1.26.385,3.764,8.315l.567.662,32.326,37.246c10.808-.175,17.734-16.9,6.523-24.978-7.359-5.3-16.154-12.069-22.527-18.717-.935-.977-1.824-1.95-2.643-2.92C219.774,182.376,202.594,178.91,202.678,179.613Z" transform="translate(-201.262 -179.519)"/></g><g transform="translate(2.711 56.111)"><path class="g" d="M217.447,194.96s-3.547-12.016-2.993-20.412l-12.461,18.637,2.909,5.784Z" transform="translate(-201.993 -174.548)"/></g><path class="g" d="M216.282,217.829c.273-12.356,2.314-26.507,3.508-38.986a5.465,5.465,0,0,0,4.121-3.225,13.393,13.393,0,0,0,.924-5.672,64.649,64.649,0,0,0-.434-7.272c-.032-.038-.067-.067-.095-.105-.511-.634-1.082-1.2-1.618-1.807-.137-.126-.224-.207-.3-.28-.193-.147-.385-.3-.585-.441-.238-.168-1.344-.756-1.569-.928-.812-.235-1.828-.494-.21-.242a11.034,11.034,0,0,1-1.208-.277l.032.249a3.6,3.6,0,0,0-.5-.221c-1.929-.476-4.005.77-5.052,2.489a8.16,8.16,0,0,0-1,2.71c-2.927,8.343-11.288,35.334-11.043,70.952a5.531,5.531,0,0,0,4.212,5.963Z" transform="translate(-201.219 -158.522)"/></g><g transform="translate(108.416 90.891)"><g transform="translate(0 74.784)"><path class="g" d="M276.009,180.5c-.168.49,1.148,2.966.977,3.456-1.152,2.731,1.2.543-4.8,7.762l-.648.585-35.505,31.864c-10.7-1.565-16.757-18.122-4.6-24.694,7.979-4.31,17.569-9.891,24.743-15.664,1.054-.847,2.062-1.7,3-2.556C258.7,181.042,276.184,179.813,276.009,180.5Z" transform="translate(-224.713 -180.295)"/></g><g transform="translate(34.462 55.886)"><path class="g" d="M234.556,194.756s5.059-11.463,5.591-19.859l9.961,20.086-3.631,5.36Z" transform="translate(-234.556 -174.897)"/></g><g transform="translate(37.207)"><path class="g" d="M237.882,218.007c1.32-12.293,1.113-26.588,1.533-39.115a5.46,5.46,0,0,1-3.669-3.729,13.407,13.407,0,0,1-.189-5.745,64.264,64.264,0,0,1,1.366-7.153c.035-.032.073-.06.108-.091.588-.564,1.225-1.05,1.835-1.586.154-.105.249-.175.336-.238.21-.123.42-.249.634-.364.259-.133,1.436-.578,1.677-.714.837-.13,1.873-.256.238-.214a10.8,10.8,0,0,0,1.232-.123l-.063.245a3.5,3.5,0,0,1,.529-.154c1.975-.224,3.876,1.278,4.692,3.116a8.24,8.24,0,0,1,.641,2.818c1.831,8.648,6.652,36.493,1.831,71.781a5.54,5.54,0,0,1-4.944,5.374Z" transform="translate(-235.34 -158.935)"/></g></g><path class="i" d="M284.226,297.751q-.331-2.589-.585-5.185c-.031-.228-.084-.455-.112-.683l-.025,0-.007-.2c-.007-.161.014-.312.014-.469-.749-8.441-1.022-16.953-2.066-25.366-.182-1.471-.329-2.955-.452-4.44q-.194-1.334-.361-2.671a59.507,59.507,0,0,1-1.716-24.953c.889-6.985,3.067-14.484,2.37-21.613l.039-.028c-.046-.476-.109-.949-.182-1.421a18.04,18.04,0,0,0-.469-2.1c-.032-.028-.067-.053-.1-.084-1.117-3.869-3.34-7.451-5.448-10.969-15.622-18.119-31.031-14.6-41.346-8.3l0,0c-23.129,4.236-11.7,33.478-11.7,33.478v0c1.9,9.236,5.427,18.066,5.693,27.565a37.94,37.94,0,0,1-.914,9.107,41.866,41.866,0,0,1-1.569,4.464c-4.348,10.209-12.594,18.584-15.748,29.224a33.1,33.1,0,0,0-1.288,11,58.658,58.658,0,0,0,1.59,7.3,53.806,53.806,0,0,0,39.185,15.916c9.471-.084,20.542-2.433,33.174-8.637l.2-1.915.312-.063c.308-4.4.728-8.8,1.082-13.206h.028c.063-.77.105-1.54.161-2.311.025-.343.06-.683.08-1.022l-.007-.032c.053-.763.119-1.523.158-2.286Z" transform="translate(-157.551 -4.936)"/><g transform="translate(81.549 139.281)"><g transform="translate(0 15.211)"><path class="g" d="M219.629,177.13c-1.716.259-2.85,2.146-2.538,4.212s1.957,3.529,3.673,3.267,2.85-2.143,2.538-4.208S221.345,176.871,219.629,177.13Z" transform="translate(-217.039 -177.101)"/></g><g transform="translate(2.138)"><path class="g" d="M232.432,172.756a13.244,13.244,0,0,1,5.311,8.889l1.481,9.768c1.012,6.673-2.692,12.821-8.228,13.662s-10.9-3.932-11.911-10.605l-1.435-9.446Z" transform="translate(-217.65 -172.756)"/></g><g transform="translate(3.205 19.293)"><path class="g" d="M223.635,205.588l8.088-1.225a2.1,2.1,0,0,0,1.7-2.423l-3.312-21.84a2.1,2.1,0,0,0-2.346-1.81l-8.088,1.225a2.1,2.1,0,0,0-1.7,2.423l3.312,21.844A2.1,2.1,0,0,0,223.635,205.588Z" transform="translate(-217.955 -178.267)"/></g></g><g transform="translate(84.706 180.284)"><path class="g" d="M218.684,194.837c1.351,3.256,4.1,5.7,6.936,7.8a27.256,27.256,0,0,0,9.737,4.979,11.612,11.612,0,0,0,6.666-.2,7.071,7.071,0,0,0,4.485-4.709,8.048,8.048,0,0,0-.144-3.911,16.053,16.053,0,0,0-5.836-8.48,27.536,27.536,0,0,0-9.394-4.506c-2.822-.809-8.21-2.318-10.84-.445C217.507,187.358,217.511,192.015,218.684,194.837Z" transform="translate(-217.941 -184.467)"/></g><rect class="c" width="193.388" height="100.087" rx="2.542"/></g><g transform="translate(273.174 97.936)"><g transform="translate(75.478 21.975)"><path class="b" d="M287.446,164.617a23.39,23.39,0,0,0-23.314,5.991c-7.951,8.28-8.557,21.319-5.794,32.46s8.329,21.424,11.239,32.526c3.771,14.386,2.941,29.526,2.087,44.371A102.947,102.947,0,0,0,347.8,256.6a9.683,9.683,0,0,0,3.239-3.984,9.036,9.036,0,0,0,.087-4.369c-2.363-14.586-12.216-26.77-22.562-37.319-8.158-8.315-18.427-16.358-24.074-26.7C299.948,175.909,297.746,167.838,287.446,164.617Z" transform="translate(-256.843 -163.631)"/></g><g transform="translate(125.7 131.151)"><g transform="translate(2.285)"><path class="j" d="M281.181,194.814s9.026,8.686,16.732,12.069l-22.285,2.461L271.84,204.1Z" transform="translate(-271.84 -194.814)"/></g><g transform="translate(0 9.726)"><path class="j" d="M296.657,198.555l-25.317-.963a5.541,5.541,0,0,0,3.351,6.488A227.611,227.611,0,0,0,323.4,223l5.591-11.12C318.322,207.689,306.541,203.415,296.657,198.555Z" transform="translate(-271.188 -197.592)"/><path class="g" d="M313.277,212.369c-.046-.277-.056-1.534-.1-1.821-.031-.242-.08-.48-.122-.721l-.109-.4c-.294-.76-.529-1.523-.858-2.269-.017-.042-.031-.088-.049-.13a64.391,64.391,0,0,0-6.25-3.743,13.384,13.384,0,0,0-5.462-1.793,5.456,5.456,0,0,0-4.762,2.167c-1.267-.511-2.566-1.026-3.876-1.541l-5.591,11.12a180.681,180.681,0,0,0,19.337,4,8.286,8.286,0,0,0,2.867.364c2.01-.133,4.072-1.4,4.538-3.337a3.581,3.581,0,0,0,.038-.546l.207.144a10.6,10.6,0,0,1,.308-1.2C312.875,214.215,313.113,213.2,313.277,212.369Z" transform="translate(-233.886 -187.837)"/></g></g><path class="g" d="M248.564,175.393a5.406,5.406,0,0,0,2.353-4.618,13.283,13.283,0,0,0-1.534-5.483,64.865,64.865,0,0,0-3.428-6.351c-.042-.018-.087-.031-.126-.052-.725-.357-1.47-.623-2.209-.949-.175-.056-.287-.091-.385-.126-.238-.052-.473-.108-.711-.151-.284-.052-1.526-.119-1.8-.179-.83.13-1.845.319-.291-.13a10.637,10.637,0,0,1-1.2.252l.133.21a3.52,3.52,0,0,0-.543.014,4.874,4.874,0,0,0-3.5,4.345,8.164,8.164,0,0,0,.235,2.853,179.042,179.042,0,0,0,3.172,19.61l12.111-2.6C250.083,179.791,249.324,177.543,248.564,175.393Z" transform="translate(-235.286 -157.355)"/><path class="j" d="M311.647,221.138c-7.079-1.355-26.175-6.974-33.569-9.352-1.821-.585-3.606-1.194-5.287-1.852-1.25-.487-2.454-.991-3.6-1.519,0,0-7.1-8.063-10.507-15.447-3.781-8.872-7.076-19.025-10.308-28.563l-12.111,2.6a225.331,225.331,0,0,0,16.522,48.733,5.342,5.342,0,0,0,1.376,2.146c.336.574,1.187,1.292,5.861,4.3l.788.357,7.268,3.291,35.775,16.211C313.5,237.373,325.092,223.719,311.647,221.138Z" transform="translate(-232.823 -139.722)"/><g transform="translate(46.658 372.771)"><path class="k" d="M250.275,277.343a1.5,1.5,0,0,1-1.635-1.12.721.721,0,0,1-.017-.287l3.064-12.111c2.094,6.2,7.748,8.546,12.349,2.258l10.588,3.9c3.2,1.176,3.648,3.774,2.125,5.546a6,6,0,0,1-4.639,1.814Z" transform="translate(-248.612 -263.825)"/><path class="k" d="M259.087,268.264a.886.886,0,0,1-.2-.756Z" transform="translate(-222.968 -254.613)"/></g><g transform="translate(48.901 197.425)"><g transform="translate(42.873 175.213)"><path class="f" d="M264.948,263.787c2.227,10.7,12.279,9.775,16.354,3.711l8.231,2.549c5.539,1.716,3.6,7.03-2.6,7.132l-23.6.392c-1.131.017-2-.616-1.81-1.327l3.252-12.2A.932.932,0,0,1,264.948,263.787Z" transform="translate(-261.498 -263.787)"/></g><path class="l" d="M289.388,310.062q.9-2.631,1.674-5.126a77.331,77.331,0,0,0,3.9-22.254c.2-17.306-2.958-34.942-7.745-51.933-20.006.2-32.41-11.712-36.762-16.767l.091.326c6.523,23.346,24.8,63.554,17.009,90.628q-.294,1.019-.606,2.076c-.676,2.3-1.418,4.737-2.227,7.359-4.159,13.452-8.518,26.605-12.226,39.984l20.163.441C279.683,335.323,285.474,321.535,289.388,310.062Z" transform="translate(-246.244 -213.145)"/><path class="g" d="M255.5,254.075c-1.425,5.136-2.769,10.3-3.946,15.538-.711,3.179-1.376,6.379-1.968,9.611a18.109,18.109,0,0,0,.494,8.988c2.094,6.2,7.748,8.546,12.349,2.258a24.849,24.849,0,0,0,3.473-7.23c1.446-4.527,2.853-8.809,4.229-12.888,1.919-5.682,3.76-10.931,5.532-15.836Z" transform="translate(-249.252 -112.865)"/><path class="l" d="M287.95,338.574c1.152-10.091,2.167-20.055,3.046-29.76,3.424-37.848,4.8-71.8,4.51-94.168,0-.312-.042-.6-.063-.9l-33.23.55c.035.3.049.592.1.9,4.191,24.12,6.719,59.6,6.453,93.986-.077,10.073-.4,20.041-.984,29.61-.361,5.9-.844,11.6-1.414,17.114l19.358.424C286.5,350.394,287.278,344.449,287.95,338.574Z" transform="translate(-216.835 -213.743)"/><path class="g" d="M266.012,254.347c-.777,7.514-1.729,14.653-2.93,21.13a31.37,31.37,0,0,0-.28,11.922c2.223,10.7,12.275,9.775,16.351,3.711a10.045,10.045,0,0,0,1.6-4.016c1.726-10.742,3.225-21.546,4.618-32.323Z" transform="translate(-216.475 -112.185)"/></g><path class="j" d="M335.332,234.274c-.48-1.176-.938-2.412-1.373-3.694-2.958-8.721-4.909-19.645-6.222-28.619a12.05,12.05,0,0,0-11.071-10.749c-15.335-16.722-30.341-13.241-40.47-7.076l.017-.053c-23.321,4.268-11.8,33.758-11.8,33.758l0,0c1.912,9.31,5.472,18.217,5.738,27.792a38.2,38.2,0,0,1-.921,9.184,41.492,41.492,0,0,1-1.583,4.5c-4.383,10.293-12.7,18.742-15.878,29.469a33.262,33.262,0,0,0-1.313,10.777c-.091.112-.182.207-.273.319,0,0,.14.2.389.546a9.087,9.087,0,0,1,.336,1.712,14.521,14.521,0,0,1,.406,1.418,10.655,10.655,0,0,1,2.923,1.236c9.009,9.6,32.96,28.381,70.8,9.789l.2-1.929.312-.067c.315-4.44.739-8.872,1.1-13.315h.025c.063-.777.105-1.555.165-2.332.025-.343.059-.686.084-1.029l-.011-.035c.053-.767.119-1.534.161-2.3l0-.087c-.22-1.74-.42-3.48-.588-5.227-.035-.231-.084-.459-.115-.69l-.021,0-.01-.2c0-.161.014-.315.018-.476-.756-8.511-1.033-17.093-2.083-25.576-.186-1.481-.333-2.976-.455-4.478-.536-3.666-.9-7.349-1.071-11.05,2.706,4.443,2.083,2.566,3.932,4.289.4.329,3.179-.056,3.585.27C330.847,250.743,335.7,233.9,335.332,234.274Z" transform="translate(-198.007 -103.123)"/><g transform="translate(85.328 72.958)"><path class="g" d="M280.249,201.71c-9.744-1.625-14.915-6.687-20.342-12.758a7.747,7.747,0,0,1-.182-2.955,4.556,4.556,0,0,1,1.53-2.99,6.793,6.793,0,0,1,1.786-.9c6.477-2.475,9.32-5.991,16.179-2.342a18.259,18.259,0,0,1,9.639,13.277,22.117,22.117,0,0,1,.063,4.835A11.2,11.2,0,0,1,280.249,201.71Z" transform="translate(-259.657 -178.193)"/></g><g transform="translate(89.325 31.175)"><g transform="translate(0 14.286)"><path class="g" d="M263.637,170.348c-1.733.147-3,1.957-2.822,4.047s1.726,3.662,3.459,3.515,2.994-1.957,2.819-4.044S265.37,170.2,263.637,170.348Z" transform="translate(-260.798 -170.339)"/></g><g transform="translate(2.586)"><path class="g" d="M277.149,166.259a13.272,13.272,0,0,1,4.72,9.254l.833,9.873c.567,6.747-3.55,12.653-9.149,13.122s-10.647-4.664-11.214-11.407l-.8-9.551Z" transform="translate(-261.537 -166.259)"/></g><g transform="translate(2.953 19.064)"><path class="g" d="M265.732,198.758l8.179-.686a2.108,2.108,0,0,0,1.863-2.314l-1.859-22.078a2.106,2.106,0,0,0-2.223-1.968l-8.175.686a2.11,2.11,0,0,0-1.866,2.314l1.859,22.078A2.106,2.106,0,0,0,265.732,198.758Z" transform="translate(-261.642 -171.704)"/></g></g></g><path class="m" d="M346.318,245.6l-.007,0-.063.2Z" transform="translate(315.426 161.288)"/><path class="i" d="M346.22,245.954c.035-.095.07-.192.105-.3l-.108.3Z" transform="translate(315.349 161.431)"/><path class="m" d="M346.209,245.82l.032-.08h0Z" transform="translate(315.329 161.646)"/><g transform="translate(533.394 74.638)"><path class="n" d="M317.082,198.515s54.864-44.836,96.944-5.721C414.026,192.795,364.863,231.5,317.082,198.515Z" transform="translate(-290.917 -85.476)"/><path class="o" d="M346.662,268.5l-21.27-7.093c-1.05-.35-2.325.053-2.531.8l-3.333,11.915c-.2.693.634,1.33,1.726,1.33h22.786C350.026,275.456,351.98,270.274,346.662,268.5Z" transform="translate(-284.873 125.882)"/><g transform="translate(38.266 192.876)"><path class="m" d="M325.834,255.173c-1.7,4.961-3.27,9.982-4.65,15.1-3.627,13.438,8.851,23.052,16.428,5.073,2-4.751,3.942-9.212,5.822-13.434a29.108,29.108,0,0,1-7.087.865C331.888,262.021,328.306,259.052,325.834,255.173Z" transform="translate(-320.538 -82.272)"/><path class="m" d="M358.565,218.063c-3.288-9.411-9.789-12.664-16.039-12.237a136.743,136.743,0,0,0-4.467,16.8c.413,4.769-1.845,9.821-6.771,11.449,21.662,60.879,24.7,60.633,9.107,98.593-6.344,15.444-13,30.429-18.343,46.02,2.472,3.879,6.054,6.848,10.514,7.6a29.107,29.107,0,0,0,7.087-.865c19.554-43.94,32.148-60.493,33.849-80.891C375.92,275.549,367.917,244.826,358.565,218.063Z" transform="translate(-316.755 -205.79)"/></g><path class="o" d="M363.16,268.441l-21.273-7.093c-1.047-.35-2.321.052-2.531.8l-3.333,11.915c-.193.7.634,1.334,1.726,1.334h22.786C366.521,275.4,368.474,270.216,363.16,268.441Z" transform="translate(-243.615 125.727)"/><path class="m" d="M339.327,255.482c-.494,3.134-1.022,6.173-1.6,9.075-5.091,25.6,14.9,22.933,16.869,11.683q1.481-8.455,2.808-16.974a28.668,28.668,0,0,1-3.428,1.443A16.691,16.691,0,0,1,339.327,255.482Z" transform="translate(-241.35 111.376)"/><path class="m" d="M369.669,213.349c0-.308-.032-.6-.046-.889H337.539c.028.294.038.581.084.889,3.662,23.735,5.536,58.589,4.73,92.323-.487,20.468-1.964,40.509-4.625,57.416a16.691,16.691,0,0,0,14.649,5.227,28.67,28.67,0,0,0,3.428-1.443c3.267-20.72,5.928-41.5,8.007-61.2C367.723,268.591,369.6,235.3,369.669,213.349Z" transform="translate(-239.751 3.77)"/><path class="n" d="M417.447,267.272c-.917-13.637.984-25.527,3.109-40.638a12.161,12.161,0,0,0,.252-2.773c-.721-7.951-1.719-15.773-3.13-23.307-2.482-13.227-15.412-19.523-30.835-22.1-8.634-1.442-46.191,5.693-49.612,7.02-8.319,3.221-12.884,14.04-16.459,21.518a8.793,8.793,0,0,1-3.69,3.823q12.709,50.59,27.194,100.7l66.978-1.586c2.237-.052,4.692-.189,6.341-1.726s2.986-7.727,3.2-10.2c-.959-7.111-2.209-17.688-2.868-24.8C417.72,271.232,417.559,269.258,417.447,267.272Z" transform="translate(-290.917 -81.772)"/><g transform="translate(72.371 91.96)"><path class="g" d="M339.062,196.222q-3.776-4.779-7.7-9.429a4.584,4.584,0,0,1,.714-6.593c2.871-2.2,6.253-3.606,9.754-3.148,3.893.511,10.4,3.6,8.371,7.857-2.461,5.171-1.208,2.741-5.7,10.868A3.259,3.259,0,0,1,339.062,196.222Z" transform="translate(-330.28 -176.966)"/></g><path class="d" d="M357.727,168.567l.662,7.391c.984,11.011-4.681,20.618-12.59,21.35s-15.185-7.682-16.168-18.693l-.662-7.391c0-.056,0-.108-.007-.165,7.825-5.927,17.415-8.189,27.239-9.289A26.561,26.561,0,0,1,357.727,168.567Z" transform="translate(-261.206 -123.013)"/><g transform="translate(70.98 63.02)"><path class="g" d="M332.917,168.712c-1.87.175-3.221,2.171-3.014,4.464s1.887,4.009,3.757,3.837,3.225-2.171,3.018-4.464S334.791,168.541,332.917,168.712Z" transform="translate(-329.882 -168.701)"/></g><path class="d" d="M330.7,178.029c-.662-7.4,3.743-13.917,9.786-14.477a9.746,9.746,0,0,1,7.03,2.321l-16.785,12.513Z" transform="translate(-257.013 -118.649)"/><g transform="translate(73.721 47.224)"><path class="g" d="M347.45,164.189a14.637,14.637,0,0,1,5.168,10.122l.97,10.84c.662,7.4-3.743,13.917-9.789,14.474s-11.533-5.042-12.195-12.443l-.938-10.479Z" transform="translate(-330.665 -164.189)"/></g><g transform="translate(74.965 70.113)"><path class="g" d="M335.508,199.186l8.83-.816a2.251,2.251,0,0,0,2.006-2.447l-2.073-23.15a2.234,2.234,0,0,0-2.409-2.038l-8.826.816A2.246,2.246,0,0,0,331.03,174l2.069,23.15A2.234,2.234,0,0,0,335.508,199.186Z" transform="translate(-331.02 -170.726)"/></g><path class="n" d="M353.6,192.1c-5.189,8.707-8.34,6.684-12.328,14.026-8.543,15.72,13.529,40.656,22.142,24.806,4.439-8.168,25.881-48.477,27.666-57.416.077-.4.028.427,0,0L365.1,176.2C362.328,181.071,355.917,188.213,353.6,192.1Z" transform="translate(-235.242 -93.915)"/><path class="g" d="M357.733,158.271a21.449,21.449,0,0,0-3.116-3.984,11.594,11.594,0,0,0-5.22-3.428,5.49,5.49,0,0,0-5.619,1.926,9.82,9.82,0,0,0-1.66,4.45c0,.116-.007.242-.017.441.161,3.295,3.365,6.722,5.161,8.557a23.419,23.419,0,0,0,2.237,2.055,38.2,38.2,0,0,0,1.159,8.053c1.919,7.738,2.913,16.263,4.086,24.872.616,4.5,3.456,31.773,3.456,31.773s9.586,5.731,22.6.571a6.291,6.291,0,0,0,3.935-5.364c.511-7.577-3.753-20.85-8.746-33.443-5.1-12.853-10.955-25-13.277-29.655A19.761,19.761,0,0,0,357.733,158.271Z" transform="translate(-228.343 -150.701)"/><path class="n" d="M347.285,192.187c5.189,8.7,8.34,6.684,12.331,14.026,8.543,15.717-13.532,40.656-22.145,24.806-4.439-8.172-25.881-48.477-27.663-57.416-.081-.4-.028.427,0,0l25.979,2.682C338.557,181.158,344.971,188.3,347.285,192.187Z" transform="translate(-309.217 -93.701)"/><path class="g" d="M336.645,158.355a21.423,21.423,0,0,1,3.116-3.981,11.583,11.583,0,0,1,5.22-3.428,5.485,5.485,0,0,1,5.623,1.926,9.736,9.736,0,0,1,1.656,4.45c0,.112.011.238.021.438-.165,3.3-3.365,6.726-5.164,8.56a23.434,23.434,0,0,1-2.237,2.055,38.426,38.426,0,0,1-1.155,8.049c-1.919,7.738-2.913,16.267-4.089,24.872-.613,4.5-3.456,31.773-3.456,31.773s-9.586,5.735-22.593.574a6.284,6.284,0,0,1-3.935-5.367c-.515-7.573,3.75-20.846,8.746-33.44,5.1-12.853,10.955-25,13.273-29.655A19.826,19.826,0,0,1,336.645,158.355Z" transform="translate(-309.609 -150.487)"/></g><g transform="translate(388.872 80.896)"><g transform="translate(0 112.028)"><g transform="translate(5.142 11.298)"><g transform="translate(60.338 2.257)"><path class="p" d="M306.587,191.158c-6.316,4.716-12.125,9.611-19.554,15.643A44.735,44.735,0,0,0,303.671,227.4c6.82-5.535,13.553-11.207,20.58-16.456C337.888,200.755,320.109,181.057,306.587,191.158Z" transform="translate(-287.033 -188.357)"/></g><path class="g" d="M288.043,194.612c-12.744-11.309-24.449-8.2-14.53,5.553,2.9,4.019,10.539,14.334,19.092,24.3a74.182,74.182,0,0,0,14.46-15.563C300.381,204.163,293.687,199.615,288.043,194.612Z" transform="translate(-269.799 -187.712)"/><g transform="translate(22.805 20.702)"><g transform="translate(27.87)"><path class="g" d="M302.938,220.553c1.638-1.407,3.235-2.783,4.783-4.019.956-.767,1.9-1.544,2.853-2.314a44.736,44.736,0,0,1-16.638-20.594c-2.923,2.374-6.1,4.919-9.663,7.71C287.785,209.426,295.13,215.518,302.938,220.553Z" transform="translate(-284.273 -193.625)"/></g><g transform="translate(0 0.49)"><path class="g" d="M304.183,200.984c-.616.483-1.218.956-1.863,1.453-3.7-3.046-7.622-5.893-11.547-8.672a74.183,74.183,0,0,1-14.46,15.563c10.857,12.643,23.189,24.725,29.179,22.649,6.187-2.139,12.006-7.163,17.355-11.775C315.04,215.168,307.694,209.076,304.183,200.984Z" transform="translate(-276.313 -193.765)"/></g></g></g><path class="g" d="M272.932,199.445c4.545,4.65,10.493,6.131,13.29,3.309s1.376-8.879-3.168-13.529-10.5-6.131-13.291-3.309S268.387,194.8,272.932,199.445Z" transform="translate(-268.331 -184.485)"/></g><path class="d" d="M299.479,182.308a7.626,7.626,0,0,1,2.223-8.259,5.976,5.976,0,0,1,4.166-1.159,4.8,4.8,0,0,1,4.345-2.2,5.634,5.634,0,0,1,1.348-1.842,5.834,5.834,0,0,1,6.229-.8c.928.459,1.733,1.162,2.693,1.541,1.618.637,3.522.287,5.07,1.082,2.115,1.085,2.769,3.83,4.436,5.539.8.819,1.817,1.379,2.654,2.157,2.16,2.006,2.85,5.129,3.428,8.046a14.084,14.084,0,0,1,.371,5.035c-.333,1.947-1.463,3.634-2.307,5.409C331.49,202.44,330.622,211.123,323,212c-4.622.536-11.578-3.382-14.372-6.925a7.087,7.087,0,0,1-.893-1.414,2.9,2.9,0,0,1-1.407-.578,5.627,5.627,0,0,1-1.859-3.494,5.727,5.727,0,0,1,.067-2.1,6.648,6.648,0,0,1-1.562-2.29,5.693,5.693,0,0,1-.137-3.368,7.758,7.758,0,0,1-1.481-2.7,7.837,7.837,0,0,1-.273-4.061A8.839,8.839,0,0,1,299.479,182.308Z" transform="translate(-191.415 -114.953)"/><g transform="translate(140.804 407.284)"><path class="o" d="M335.825,276.068l-21.361-7.125c-1.054-.35-2.332.056-2.542.809l-3.347,11.964c-.193.7.637,1.337,1.733,1.337h22.88C339.2,283.053,341.164,277.846,335.825,276.068Z" transform="translate(-308.547 -268.816)"/></g><path class="q" d="M311.893,263.054c-.494,3.148-1.026,6.2-1.607,9.114-5.112,25.709,14.968,23.031,16.942,11.732q1.486-8.492,2.822-17.044a28.959,28.959,0,0,1-3.445,1.449A16.76,16.76,0,0,1,311.893,263.054Z" transform="translate(-165.47 124.058)"/><path class="q" d="M342.365,220.746c0-.308-.032-.6-.049-.893H310.1c.028.3.039.585.087.893,3.676,23.833,5.556,58.834,4.748,92.708-.49,20.555-1.971,40.68-4.646,57.654A16.76,16.76,0,0,0,325,376.36a28.952,28.952,0,0,0,3.445-1.449c3.277-20.8,5.952-41.668,8.039-61.456C340.408,276.219,342.291,242.793,342.365,220.746Z" transform="translate(-163.864 16.004)"/><g transform="translate(98.533 407.284)"><path class="o" d="M323.752,276.068l-21.361-7.125c-1.054-.35-2.332.056-2.542.809L296.5,281.715c-.2.7.634,1.337,1.733,1.337h22.88C327.128,283.053,329.092,277.846,323.752,276.068Z" transform="translate(-296.474 -268.816)"/></g><path class="q" d="M299.82,263.054c-.5,3.148-1.026,6.2-1.607,9.114C293.1,297.877,313.178,295.2,315.156,283.9q1.481-8.492,2.818-17.044a28.708,28.708,0,0,1-3.445,1.449A16.757,16.757,0,0,1,299.82,263.054Z" transform="translate(-195.667 124.058)"/><path class="q" d="M330.292,220.746c0-.308-.035-.6-.049-.893H298.025c.028.3.039.585.084.893,3.68,23.833,5.56,58.834,4.751,92.708-.49,20.555-1.975,40.68-4.646,57.654a16.757,16.757,0,0,0,14.708,5.252,28.7,28.7,0,0,0,3.445-1.449c3.281-20.8,5.952-41.668,8.039-61.456C328.335,276.219,330.219,242.793,330.292,220.746Z" transform="translate(-194.06 16.004)"/><path class="p" d="M293.264,218.488c2.041-4.268,4.433-9.593,7.629-14.012-.613-.406-.756-.459-1.372-.882,0,0,44.22-41.468,86.115-4.18.973.4,1.723,1.4,2.973,1.9,10.924,4.376.847,64.607,1.733,77.709q.168,2.988.476,5.959c.658,7.135,1.915,17.758,2.878,24.9-.21,2.482-1.548,8.694-3.207,10.237s-4.121,1.681-6.369,1.733l-67.254,1.6q-14.547-50.307-27.309-101.118A8.816,8.816,0,0,0,293.264,218.488Z" transform="translate(-215.243 -74.022)"/><g transform="translate(120.712 111.072)"><path class="g" d="M311.63,203.548q-3.792-4.8-7.738-9.467a4.605,4.605,0,0,1,.718-6.621c2.885-2.206,6.281-3.62,9.8-3.162,3.907.511,10.444,3.613,8.406,7.892-2.472,5.192-1.215,2.752-5.725,10.91A3.274,3.274,0,0,1,311.63,203.548Z" transform="translate(-302.808 -184.212)"/></g><g transform="translate(117.835 64.143)"><g transform="translate(0 18.344)"><path class="g" d="M304.992,176.063c-1.877.2-3.211,2.22-2.98,4.516s1.94,4.005,3.816,3.809,3.214-2.216,2.979-4.516S306.869,175.87,304.992,176.063Z" transform="translate(-301.987 -176.048)"/></g><path class="d" d="M302.8,185.5c-.746-7.426,3.6-14.019,9.667-14.649a9.767,9.767,0,0,1,7.083,2.248l-16.711,12.758Z" transform="translate(-300.164 -170.808)"/><g transform="translate(2.673 2.295)"><path class="g" d="M319.461,171.464a14.694,14.694,0,0,1,5.3,10.1l1.092,10.871c.749,7.426-3.6,14.015-9.663,14.649s-11.638-4.93-12.387-12.356l-1.057-10.511Z" transform="translate(-302.75 -171.464)"/></g><g transform="translate(4.072 25.328)"><path class="g" d="M307.941,206.7l8.854-.924a2.261,2.261,0,0,0,1.989-2.479l-2.342-23.22a2.239,2.239,0,0,0-2.44-2.02l-8.854.921a2.257,2.257,0,0,0-1.985,2.482l2.339,23.22A2.242,2.242,0,0,0,307.941,206.7Z" transform="translate(-303.15 -178.043)"/></g></g><path class="g" d="M353.967,174.248a6.748,6.748,0,0,0,.291-.7,15.7,15.7,0,0,0,.193-7.31,78.827,78.827,0,0,0-1.978-9.2c-.049-.042-.1-.077-.147-.119-.819-.753-1.709-1.407-2.56-2.122-.214-.147-.347-.242-.466-.326-.294-.168-.581-.35-.886-.5a16.714,16.714,0,0,0-5.007-1.428,6.449,6.449,0,0,0-6.453,3.708c-1.106,2.3-1,4.965-.63,7.5a22.51,22.51,0,0,0,3.035,8.746c1.565,22.782-2.787,45.393-13.353,65.035a104.2,104.2,0,0,1-6.064,10.6l23.587,13.844C352.612,240.707,358.347,211.752,353.967,174.248Z" transform="translate(-139.242 -152.488)"/><path class="p" d="M347.577,179.806c-1.908,2.941-3.932,5.787-6.061,8.49-.154.2-.322.392-.48.585,0,0-6.8,7.412-10.143,11.277l-11.827,7.3c-7.258,8.385-2.034,10.111-1.618,21.312a13.2,13.2,0,0,1-.326,3.449c-19.6,12.2,1.117,11.316,7.64,8.736,6.281-2.489,26.627-13.445,37.1-30.047,3-4.755,8.813-16.081,8.813-16.081.168-.385.326-.791.494-1.18Z" transform="translate(-166.877 -84.161)"/><path class="p" d="M309.374,185.725s19.057,6.911,26.539-2.1l5.045,9.11-20.569,7.447Z" transform="translate(-165.674 -74.602)"/></g><g transform="translate(461.528 486.821)"><path class="f" d="M317.027,275.737l-21.886-7.181c-1.078-.354-2.388.056-2.6.816l-3.424,12.058c-.2.7.648,1.348,1.775,1.348h23.44C320.486,282.778,322.5,277.533,317.027,275.737Z" transform="translate(-289.083 -268.427)"/></g><g transform="translate(417.833 486.173)"><path class="f" d="M304.55,275.552l-21.886-7.181c-1.078-.354-2.391.056-2.6.812l-3.428,12.062c-.2.7.651,1.348,1.775,1.348h23.44C308.006,282.593,310.019,277.348,304.55,275.552Z" transform="translate(-276.603 -268.242)"/></g><path class="r" d="M297.269,313.42c.83-34.144-1.1-69.421-4.867-93.443-.049-.308-.06-.6-.088-.9h33.009c.017.3.049.592.049.9-.073,22.222-2,55.91-6.026,93.443-2.724,25.4-6.407,52.563-11.127,79.123-2.024,11.386-22.593,14.085-17.355-11.827C294.657,361.95,296.673,337.977,297.269,313.42Z" transform="translate(174.774 94.959)"/><path class="r" d="M278.385,380.531c3.792-18.766,5.808-42.739,6.407-67.3.826-34.144-1.1-69.422-4.867-93.443-.049-.312-.06-.6-.091-.9h33.009c.018.3.053.588.049.9-.073,22.218-2,55.91-6.026,93.443-2.724,25.4-6.407,52.563-11.127,79.12C293.717,403.741,273.147,406.444,278.385,380.531Z" transform="translate(143.559 94.496)"/><path class="m" d="M375.734,282.646c-.767-11.155.315-21.186,1.9-32.607a116.68,116.68,0,0,0-.077-27.3c-.427-2.941-.917-5.843-1.453-8.711.7-.34,1.376-.637,2.083-.994a132.5,132.5,0,0,0,20.629-13.129l-16.074-21.34c-3.3,1.635-6.652,3.113-10.017,4.415-4.783,1.849-10.048,3.389-15.262,5.136-1.236.413-2.447.882-3.669,1.327-20.146-8.522-41.02-4.187-56.943,2.335-20.359-.788-30.628,32.484-27.19,32.288q13.424,52.544,28.713,104.584l70.808-1.649c2.367-.056,4.958-.2,6.7-1.8s3.155-8.035,3.375-10.605c-1.012-7.395-2.335-18.4-3.029-25.786C376.021,286.764,375.85,284.708,375.734,282.646Z" transform="translate(122.235 -6.357)"/><g transform="translate(336.562 190.735)"><path class="o" d="M277.992,190.369c1.989,7.454,4.937,27.232,6.985,36.363a43.454,43.454,0,0,1-25.25,5.3c-1.88-8.378-3.613-16.809-5.826-25.1C249.6,190.841,273.731,174.414,277.992,190.369Z" transform="translate(-253.39 -183.86)"/><path class="g" d="M280.45,196.105c.805,3.592,1.7,7.472,2.745,11.771.182.746.357,1.474.546,2.244,4.688-.018,9.425.249,14.12.564,8,.539,15.9,1.229,23.262.924a36.528,36.528,0,0,1,5.1.144c1.632-2.475,5.262-4.467,9.7-4.968,6.306-.714,11.771,1.831,12.205,5.686s-4.324,7.552-10.63,8.263c-.249.028-.483.021-.725.038-1.309,1.495-3.858,2.906-7.871,3.981-4.657,1.25-16.774,4.334-29.378,6.589-16,2.864-32.782,4.39-36.122-.865-3.452-5.427-4.874-12.8-6.19-19.582-.4-2.073-.795-4.093-1.232-5.98-.27-1.169-.525-2.339-.788-3.508A43.455,43.455,0,0,0,280.45,196.105Z" transform="translate(-248.864 -153.233)"/></g><g transform="translate(676.503 127.634)"><path class="e" d="M352.908,214.969c1.957-3.228,4.517-6.225,5.346-9.9,1.057-4.678-.879-9.534-.5-14.309.494-6.2,4.905-11.54,10.22-14.772a32.414,32.414,0,0,1,3.753-1.926,13.162,13.162,0,0,1,1.6-1.821c.021-.024.032-.053.049-.077a17.606,17.606,0,0,1,26.626-.466c1.292,1.439,2.384,3.127,4.047,4.11,3.809,2.248,9.607.252,12.468,3.624,1.625,1.919,1.527,4.87,3.141,6.8,1.919,2.29,5.406,1.6,8.361,2.006,6.495.893,7.188,6.411,6.386,9.961a28.428,28.428,0,0,0,.567,9.138,20.131,20.131,0,0,0,2.615,6.463c2.146,3.106,5.637,4.937,8.655,7.2s5.843,5.549,5.542,9.31c-.539,6.726-9.9,9.072-12.517,15.29-1.4,3.333-.588,7.118-.49,10.731.4,14.908-14.106,28.377-28.958,27.036-12.517-1.127-22.852-12.433-24.242-24.75A25.659,25.659,0,0,1,373,244.97c-1.257-3.389-1.912-7.205-4.454-9.775-4.744-4.8-14.306-3.484-17.313-9.523C349.554,222.293,350.948,218.193,352.908,214.969Z" transform="translate(-350.483 -165.837)"/><path class="e" d="M372.036,210.279l0,.077,0,0Z" transform="translate(-296.594 -54.68)"/><path class="e" d="M372.058,209.694c0,.049,0,.1,0,.147,0,.025,0,.049,0,.077,0-.084,0-.168,0-.252Z" transform="translate(-296.531 -56.213)"/></g><g transform="translate(659.472 314.246)"><path class="o" d="M347.31,282.226a1.525,1.525,0,0,1-1.663-1.138.755.755,0,0,1-.018-.294l3.116-12.3c2.122,6.3,7.871,8.683,12.545,2.293l10.759,3.963c3.249,1.2,3.7,3.834,2.157,5.633a6.077,6.077,0,0,1-4.713,1.845Z" transform="translate(-345.619 -95.693)"/><path class="s" d="M347.118,281.992a18.346,18.346,0,0,1-.5-9.131c.6-3.284,1.274-6.537,2-9.768a25.585,25.585,0,0,0,18.875.753c-1.4,4.145-2.829,8.494-4.3,13.094a25.243,25.243,0,0,1-3.529,7.345C354.989,290.675,349.24,288.291,347.118,281.992Z" transform="translate(-343.991 -109.195)"/><path class="s" d="M379.848,222.33c-13.644.137-20.909-.931-25.555-3.193a17.253,17.253,0,0,1-3.9.851c7.482,24.137,23.3,61.61,15.885,87.376q-.3,1.035-.613,2.108c-.69,2.339-1.442,4.814-2.265,7.479-5.85,18.913-12.128,37.239-16.431,56.415a25.585,25.585,0,0,0,18.875.753c9.684-28.7,17.639-46.951,22.621-61.547.609-1.782,1.18-3.522,1.7-5.206a78.449,78.449,0,0,0,3.963-22.611C394.329,267.166,384.711,239.594,379.848,222.33Z" transform="translate(-342.252 -219.137)"/><path class="k" d="M356.262,273a.9.9,0,0,1-.2-.767Z" transform="translate(-319.562 -86.334)"/></g><g transform="translate(700.035 314.246)"><path class="o" d="M358.894,282.226a1.521,1.521,0,0,1-1.66-1.138.829.829,0,0,1-.021-.294l3.116-12.3c2.125,6.3,7.871,8.683,12.548,2.293l10.759,3.963c3.246,1.2,3.7,3.834,2.153,5.633a6.063,6.063,0,0,1-4.709,1.845Z" transform="translate(-357.205 -95.693)"/><path class="s" d="M358.7,281.992a18.39,18.39,0,0,1-.5-9.131c.6-3.284,1.274-6.537,2-9.768a25.585,25.585,0,0,0,18.875.753c-1.4,4.145-2.829,8.494-4.3,13.094a25.239,25.239,0,0,1-3.529,7.345C366.572,290.675,360.826,288.291,358.7,281.992Z" transform="translate(-355.576 -109.195)"/><path class="s" d="M391.434,222.33c-13.644.137-20.909-.931-25.555-3.193a17.242,17.242,0,0,1-3.907.851c7.482,24.137,23.307,61.61,15.888,87.376q-.3,1.035-.616,2.108c-.686,2.339-1.439,4.814-2.262,7.479-5.85,18.913-12.128,37.239-16.431,56.415a25.586,25.586,0,0,0,18.875.753c9.681-28.7,17.639-46.951,22.621-61.547.609-1.782,1.18-3.522,1.7-5.206,2.468-8.049,3.876-15.139,3.963-22.611C405.912,267.166,396.294,239.594,391.434,222.33Z" transform="translate(-353.837 -219.137)"/><path class="k" d="M367.848,273a.9.9,0,0,1-.2-.767Z" transform="translate(-331.147 -86.334)"/></g><path class="h" d="M358.837,197.835c-13.049,5.8,1.954,16.928,12.849,19.4l32.509-24.925c-4.328-4.226-8.858-8.13-13.473-11.9C383.772,184.562,365.706,194.786,358.837,197.835Z" transform="translate(334.232 -1.772)"/><path class="g" d="M398.1,156.564a3.7,3.7,0,0,0-.553.116l.084-.245a11.908,11.908,0,0,1-1.278.028c1.684.087.606.133-.263.2-.263.123-1.509.483-1.786.6-.231.1-.455.217-.683.326l-.364.217c-.672.5-1.369.952-2.017,1.488-.039.031-.081.052-.119.084a66.542,66.542,0,0,0-1.978,7.258,13.828,13.828,0,0,0-.266,5.934,5.636,5.636,0,0,0,3.484,4.131c-1.379,12.391-2.307,26.5-4.46,38.741-1.719,8.3-7.023,18.175-7.023,18.175-1.033.805-2.136,1.6-3.291,2.395-1.551,1.061-3.221,2.1-4.937,3.13,4.615,3.774,9.145,7.678,13.473,11.908l6.607-5.063.714-.55c4.04-4.159,4.73-5.091,4.94-5.752a5.569,5.569,0,0,0,.889-2.5c7.783-35.964,5.042-65.024,3.848-74.078a8.465,8.465,0,0,0-.438-2.955C401.989,158.188,400.154,156.49,398.1,156.564Z" transform="translate(381.46 -61.723)"/><path class="h" d="M418.676,263.971c-.3-1.467-.567-2.948-.809-4.436a94.555,94.555,0,0,1-2.6-19.355c-.035-1.884.014-3.767.063-5.654.21-8.245,1.092-16.508,1.908-24.778-1-.938-2.062-1.831-3.148-2.7a34.711,34.711,0,0,0,5.672-3.533c-15.4-24.043-34.249-22.113-45.459-17.891a35.272,35.272,0,0,0-8.855,4.5c-.574.385-.882.616-.882.616h0c-4.548,1.211-12.888,8.749-14.068,11.015-1.632,3.137,1.677,2.388-.256,5.777,4.678,1.8,11.935,27.04,13.185,45.106a45.838,45.838,0,0,1-.189,9.236,41.288,41.288,0,0,1-1.222,4.615c-3.554,10.623-11.176,19.712-13.494,30.67a33.565,33.565,0,0,0,.42,15.444,7.847,7.847,0,0,0,2.3,3.76,54.192,54.192,0,0,0,32.1,12.223c9.632.42,21.056-1.551,34.06-8.081a10.658,10.658,0,0,0,5.753-10.367C422.166,297.243,419.978,270.287,418.676,263.971Z" transform="translate(319.363 4.833)"/><g transform="translate(665.751 189.087)"><path class="g" d="M356.668,203.352q-3.975-4.958-8.116-9.775a4.7,4.7,0,0,1,.749-6.834c3.029-2.279,6.593-3.739,10.283-3.263,4.1.525,10.959,3.725,8.823,8.144-2.594,5.36-1.278,2.843-6.012,11.267A3.467,3.467,0,0,1,356.668,203.352Z" transform="translate(-347.412 -183.389)"/></g><g transform="translate(696.991 145.969)"><g transform="translate(0 14.186)"><path class="g" d="M359.206,175.134c-1.737.129-3.018,1.936-2.857,4.026s1.695,3.683,3.431,3.554,3.018-1.936,2.857-4.03S360.942,175,359.206,175.134Z" transform="translate(-356.335 -175.126)"/></g><g transform="translate(2.64)"><path class="g" d="M372.82,171.074a13.288,13.288,0,0,1,4.653,9.306l.753,9.894c.515,6.761-3.659,12.643-9.271,13.07s-10.623-4.758-11.137-11.519l-.728-9.569Z" transform="translate(-357.089 -171.074)"/></g><g transform="translate(2.924 19.051)"><path class="g" d="M361.07,203.564l8.2-.623a2.111,2.111,0,0,0,1.887-2.3l-1.684-22.131a2.108,2.108,0,0,0-2.209-1.989l-8.2.623a2.111,2.111,0,0,0-1.887,2.3l1.684,22.131A2.109,2.109,0,0,0,361.07,203.564Z" transform="translate(-357.17 -176.515)"/></g></g><g transform="translate(504.979 100.349)"><path class="g" d="M312.088,214.656c19.817-11.792,35.828-29.428,46.72-50.253,3.323-6.351,15.633-.095,12.681,6.393-15.6,34.326-35.2,56.768-53.922,71.169l-16.074-21.34A109.553,109.553,0,0,0,312.088,214.656Z" transform="translate(-301.493 -148.761)"/><g transform="translate(56.894)"><path class="g" d="M329.924,182.884a16.442,16.442,0,0,0,4.09-6.222,82.6,82.6,0,0,0,3.238-8.949c-.021-.063-.045-.119-.063-.179-.3-1.064-.707-2.08-1.05-3.127-.105-.235-.168-.385-.224-.515-.165-.294-.319-.592-.49-.879-.206-.343-1.264-1.709-1.449-2.048-.879-.763-1.989-1.681-.133-.413A16.037,16.037,0,0,1,332.5,159.5l-.087.315a5.121,5.121,0,0,0-.508-.56,6.545,6.545,0,0,0-7.506-.053c-2.181,1.429-3.522,3.788-4.566,6.166-2.185,4.986-3.26,11.134-.175,15.927a7.637,7.637,0,0,0,3.088,2.86A6.932,6.932,0,0,0,329.924,182.884Z" transform="translate(-317.743 -158.044)"/></g></g><g transform="translate(257.593 485.587)"><path class="o" d="M260.4,275.806l-23.153-7.594c-1.141-.375-2.528.056-2.755.858l-3.627,12.758c-.21.742.69,1.425,1.88,1.425h24.8C264.061,283.253,266.189,277.7,260.4,275.806Z" transform="translate(-230.835 -268.075)"/></g><g transform="translate(314.627 485.353)"><path class="o" d="M276.688,275.742l-23.15-7.6c-1.141-.375-2.528.06-2.755.861l-3.627,12.758c-.21.742.69,1.425,1.877,1.425h24.8C280.347,283.189,282.476,277.64,276.688,275.742Z" transform="translate(-247.125 -268.008)"/></g><g transform="translate(261.601 277.557)"><path class="t" d="M277.488,221.8c-3.582-10.076-10.658-13.56-17.457-13.1a144.521,144.521,0,0,0-4.863,18c.448,5.1-2.01,10.514-7.37,12.254,23.577,65.185,26.879,64.926,9.912,105.568-6.9,16.536-14.148,32.579-19.964,49.276-1.849,5.311-3.557,10.686-5.063,16.165-3.946,14.39,9.635,24.687,17.881,5.434,2.181-5.091,4.292-9.863,6.337-14.383,21.28-47.049,34.991-64.772,36.843-86.612C296.373,283.356,287.666,250.459,277.488,221.8Z" transform="translate(-231.98 -208.658)"/><path class="t" d="M285.468,215.8H250.547c.031.315.042.623.095.949,3.984,25.415,6.022,62.734,5.147,98.856-.532,21.914-2.139,43.373-5.035,61.474-.539,3.358-1.113,6.61-1.744,9.719-5.539,27.411,16.221,24.554,18.364,12.51q1.607-9.054,3.057-18.175c3.554-22.184,6.449-44.43,8.715-65.528,4.254-39.707,6.3-75.349,6.376-98.856C285.52,216.424,285.485,216.116,285.468,215.8Z" transform="translate(-191.636 -190.792)"/></g><g transform="translate(440.71 179.003)"><path class="g" d="M292.423,200.535q-3.991-4.974-8.144-9.807a4.72,4.72,0,0,1,.753-6.859c3.036-2.283,6.614-3.746,10.314-3.27,4.114.529,10.994,3.739,8.851,8.172-2.6,5.378-1.281,2.85-6.029,11.3A3.477,3.477,0,0,1,292.423,200.535Z" transform="translate(-283.137 -180.509)"/></g><g transform="translate(192.2 82.005)"><g transform="translate(3.935 13.749)"><path class="g" d="M264.063,218.07c-17.4-15.139-30-35.348-37-57.78-2.136-6.845-15.363-2.885-13.62,4.026,9.233,36.559,24.512,62.139,40.358,79.648l19.621-18.126A109.185,109.185,0,0,1,264.063,218.07Z" transform="translate(-213.282 -156.732)"/><path class="o" d="M342.238,202.357c-7.486-1.835-20.23-5.451-28.146-6.785-15.888-2.682-28.713-2.472-38.993-.77-2.4-1.569-4.912-3.029-7.454-4.426-4.818-2.647-9.723-5.1-14.1-7.776-3.081-1.88-6.116-3.932-9.072-6.131L224.854,194.6a132.293,132.293,0,0,0,17.954,16.6,109.746,109.746,0,0,0,13.182,8.6c-2.3,16.316.406,33.219,3.683,50.288,2.906,15.15,5.224,30.32,5.633,45.519a47.229,47.229,0,0,0,1.744,11.876q.972,3.366,1.961,6.729,35.465-.824,70.934-1.653c2.374-.056,4.968-.2,6.719-1.8s2.118-4.18,2.356-6.544c2.615-25.856,3.6-54.475,1.061-81.48C356.285,237.421,345.078,202.343,342.238,202.357Z" transform="translate(-184.338 -107.365)"/></g><path class="g" d="M216.657,177.062a16.358,16.358,0,0,1-2.909-6.852,81.381,81.381,0,0,1-1.59-9.383c.028-.056.063-.108.091-.165.483-.994,1.068-1.919,1.593-2.889.144-.214.235-.347.312-.469.214-.259.417-.522.637-.774.263-.3,1.551-1.46,1.793-1.758,1-.6,2.258-1.3.207-.382.529-.238,1.015-.518,1.505-.8l.032.326a5.139,5.139,0,0,1,.6-.462,6.54,6.54,0,0,1,7.395,1.288c1.891,1.8,2.79,4.355,3.389,6.88,1.26,5.3,1.225,11.54-2.668,15.7a7.614,7.614,0,0,1-3.55,2.265A6.927,6.927,0,0,1,216.657,177.062Z" transform="translate(-212.158 -152.805)"/></g><path class="d" d="M241.182,195.47a17.544,17.544,0,0,0,6.495-1.565,30.308,30.308,0,0,1-6.036-8.018c-.329-.644-.557-1.516.14-1.894a2.283,2.283,0,0,1,1-.182l3.589-.116q-1.964-5.572-3.932-11.144a28.358,28.358,0,0,0,8.151-.147,1.57,1.57,0,0,0,1.04-.445,1.053,1.053,0,0,0-.066-1.036q-1.313-3.1-2.629-6.2a57.576,57.576,0,0,0,9.047,2.923,1.171,1.171,0,0,0,.62.028.755.755,0,0,0,.41-.5q.872-2.221,1.747-4.446,3.324,2.731,6.656,5.462a5.368,5.368,0,0,0,2.36,1.316c.938.175,2.09-.287,2.1-1.061q2.043,3.02,4.082,6.033c.784-1.026,2.885.119,3.13,1.337s-.21,2.58.676,3.6c.56-.382,1.124-.76,1.684-1.138a33.926,33.926,0,0,1,.357,7.24c.77-.214,1.537-.427,2.307-.644a5.534,5.534,0,0,0,.546,5.133c-.476,3.186-3.8,7.794-5.052,10.815-4.114-.679-6.036-1.562-9.558.144-1.7.826-3.214,1.9-4.961,2.668C255.75,207.752,247.162,200.974,241.182,195.47Z" transform="translate(52.636 -45.983)"/><g transform="translate(307.195 133.973)"><g transform="translate(0 19.125)"><path class="g" d="M248.163,173.127c-1.982.21-3.386,2.321-3.13,4.709s2.069,4.156,4.054,3.946,3.386-2.321,3.13-4.709S250.148,172.917,248.163,173.127Z" transform="translate(-245.002 -173.11)"/></g><g transform="translate(2.658)"><path class="d" d="M245.857,182.98c-.823-7.72,3.75-14.6,10.157-15.279a10.449,10.449,0,0,1,7.5,2.307L245.9,183.351Z" transform="translate(-245.762 -167.648)"/></g><g transform="translate(2.796 2.361)"><path class="g" d="M263.416,168.322a15.2,15.2,0,0,1,5.647,10.49l1.2,11.3c.823,7.72-3.746,14.6-10.157,15.279s-12.324-5.073-13.147-12.8L245.8,181.665Z" transform="translate(-245.801 -168.322)"/></g><g transform="translate(4.095 26.099)"><g transform="translate(0 0)"><rect class="g" width="14.117" height="28.983" rx="0.672" transform="translate(0 1.496) rotate(-6.082)"/></g></g></g><path class="g" d="M1.5,0H21.11a1.5,1.5,0,0,1,1.5,1.5v9.473a1.5,1.5,0,0,1-1.5,1.5H1.5a1.5,1.5,0,0,1-1.5-1.5V1.5A1.5,1.5,0,0,1,1.5,0Z" transform="translate(309.098 184.253)"/><g transform="translate(0 84.95)"><g transform="translate(102.764 209.9)"><path class="f" d="M188.3,276.686a1.525,1.525,0,0,1-1.663-1.138.9.9,0,0,1-.018-.291l3.116-12.307c2.125,6.3,7.871,8.686,12.545,2.3l10.759,3.96c3.249,1.2,3.7,3.834,2.157,5.637a6.082,6.082,0,0,1-4.713,1.842Z" transform="translate(-186.614 -90.153)"/><path class="k" d="M188.111,276.452a18.383,18.383,0,0,1-.5-9.131c.6-3.284,1.278-6.537,2-9.768a25.568,25.568,0,0,0,18.875.753c-1.4,4.145-2.832,8.5-4.3,13.1a25.419,25.419,0,0,1-3.533,7.345C195.982,285.139,190.236,282.755,188.111,276.452Z" transform="translate(-184.986 -103.655)"/><path class="k" d="M220.843,216.79c-13.644.137-20.909-.928-25.559-3.193a17.247,17.247,0,0,1-3.9.851c7.482,24.137,23.3,61.61,15.885,87.376-.2.69-.4,1.394-.613,2.108-.69,2.339-1.443,4.818-2.265,7.482-5.847,18.91-12.128,37.235-16.428,56.411a25.584,25.584,0,0,0,18.875.753c9.681-28.7,17.635-46.951,22.618-61.547.609-1.782,1.183-3.519,1.7-5.206a78.451,78.451,0,0,0,3.963-22.611C235.321,261.626,225.7,234.054,220.843,216.79Z" transform="translate(-183.246 -213.597)"/><path class="k" d="M197.255,267.463a.9.9,0,0,1-.2-.77Z" transform="translate(-160.557 -80.794)"/></g><g transform="translate(81.776 26.401)"><path class="d" d="M214.955,163.117a23.772,23.772,0,0,0-24.239,3.3c-9,7.419-11.148,20.51-9.67,32.078s5.882,22.6,7.51,34.151c2.108,14.964-.511,30.142-3.12,45.025a104.6,104.6,0,0,0,79.592-14.61,9.827,9.827,0,0,0,3.736-3.641,9.172,9.172,0,0,0,.6-4.4c-.665-15-9.173-28.458-18.374-40.323-7.251-9.352-16.666-18.682-21.151-29.785C226.24,175.984,224.969,167.581,214.955,163.117Z" transform="translate(-180.619 -161.187)"/></g><path class="g" d="M242.676,241.872c-7.668-1.47-28.36-7.563-36.374-10.136-1.975-.634-3.907-1.3-5.731-2.006-1.355-.529-2.661-1.075-3.9-1.646,0,0-7.689-8.739-11.386-16.743-5.063-11.88-9.324-25.937-13.637-38.152a5.863,5.863,0,0,0,2.552-5,14.449,14.449,0,0,0-1.663-5.941,70.308,70.308,0,0,0-3.715-6.88c-.045-.021-.095-.035-.14-.056-.784-.389-1.593-.679-2.391-1.029-.189-.06-.312-.1-.42-.137-.256-.056-.508-.119-.767-.165-.308-.056-1.653-.13-1.95-.193-.9.14-2,.347-.312-.14a11.761,11.761,0,0,1-1.3.273l.144.228a3.707,3.707,0,0,0-.592.014c-2.094.41-3.554,2.563-3.792,4.709a8.85,8.85,0,0,0,.252,3.092c.924,9.443,5,39.5,21.343,74.061a5.787,5.787,0,0,0,1.488,2.325c.368.62,1.288,1.4,6.355,4.657l.854.385,7.874,3.571,38.769,17.565C244.686,259.462,257.248,244.663,242.676,241.872Z" transform="translate(-157.262 -153.646)"/><g transform="translate(65.003 204.315)"><g transform="translate(0 178.032)"><path class="f" d="M179.335,262.851c2.262,10.875,12.475,9.933,16.617,3.771l8.364,2.591c5.626,1.744,3.655,7.142-2.643,7.248l-23.98.4c-1.148.017-2.031-.627-1.838-1.348l3.3-12.394A1.057,1.057,0,0,1,179.335,262.851Z" transform="translate(-175.828 -262.851)"/></g><g transform="translate(2.544)"><g transform="translate(0.511 126.838)"><path class="k" d="M181.855,248.453a329.032,329.032,0,0,1-4.415,38.86,31.806,31.806,0,0,0-.287,12.111c2.262,10.875,12.475,9.933,16.617,3.771a10.229,10.229,0,0,0,1.624-4.082c2.72-16.921,5.024-34.077,6.946-50.883A32.533,32.533,0,0,1,181.855,248.453Z" transform="translate(-176.701 -248.229)"/></g><path class="k" d="M210.387,212.919c-.007-.315-.046-.613-.067-.917l-33.765.557c.035.308.053.606.105.921,4.261,24.508,6.827,60.56,6.561,95.5-.081,10.23-.406,20.363-1,30.086a32.532,32.532,0,0,0,20.485-.224c1.173-10.252,2.2-20.373,3.1-30.236C209.281,270.143,210.685,235.649,210.387,212.919Z" transform="translate(-176.555 -212.002)"/></g></g><path class="u" d="M252.764,287.242c-.035-.231-.088-.459-.119-.69l-.024,0-.007-.207c0-.165.014-.319.017-.48-.763-8.574-1.04-17.222-2.1-25.772-.186-1.495-.333-3-.459-4.513q-.194-1.355-.364-2.71a60.423,60.423,0,0,1-1.744-25.356c.9-7.1,3.116-14.719,2.409-21.96l.038-.032c-.049-.483-.108-.963-.186-1.442a17.6,17.6,0,0,0-.476-2.136l-.1-.088c-1.134-3.932-3.393-7.573-5.535-11.148-15.874-18.409-31.528-14.835-42.011-8.434l0-.007c-23.5,4.3-11.89,34.018-11.89,34.018l0,0c1.926,9.383,5.514,18.357,5.784,28.01a38.627,38.627,0,0,1-.931,9.254,41.655,41.655,0,0,1-1.593,4.534c-4.418,10.371-12.8,18.882-16,29.694a33.689,33.689,0,0,0-1.309,11.179,59.2,59.2,0,0,0,1.617,7.419A54.672,54.672,0,0,0,217.6,322.552c9.625-.088,20.874-2.472,33.709-8.781,0,0,1.257-10.948,1.614-15.426C252.921,298.344,252.932,289,252.764,287.242Z" transform="translate(-110.078 -94.978)"/><g transform="translate(94.793 35.838)"><g transform="translate(0 15.452)"><path class="g" d="M186.967,168.325c-1.744.266-2.9,2.181-2.577,4.278s1.989,3.589,3.729,3.323,2.9-2.181,2.58-4.278S188.71,168.063,186.967,168.325Z" transform="translate(-184.337 -168.295)"/></g><g transform="translate(2.171)"><path class="g" d="M199.977,163.882a13.423,13.423,0,0,1,5.4,9.033l1.505,9.922c1.029,6.782-2.734,13.028-8.361,13.882s-11.074-3.995-12.1-10.777l-1.456-9.6Z" transform="translate(-184.957 -163.882)"/></g><g transform="translate(3.255 19.602)"><path class="g" d="M191.038,197.243,199.259,196a2.134,2.134,0,0,0,1.726-2.461l-3.365-22.194a2.136,2.136,0,0,0-2.381-1.838l-8.221,1.246a2.132,2.132,0,0,0-1.726,2.461l3.365,22.194A2.136,2.136,0,0,0,191.038,197.243Z" transform="translate(-185.266 -169.481)"/></g></g><path class="g" d="M194.685,202.689h0a9.23,9.23,0,0,1-9.2-9.2v-8.735a9.228,9.228,0,0,1,9.2-9.2h0a9.228,9.228,0,0,1,9.2,9.2v8.735A9.23,9.23,0,0,1,194.685,202.689Z" transform="translate(-86.675 -98.858)"/><path class="g" d="M216.824,220.188H206.817a5.4,5.4,0,0,1-5.388-5.385h0a5.406,5.406,0,0,1,5.388-5.388h10.006a5.4,5.4,0,0,1,5.385,5.388h0A5.4,5.4,0,0,1,216.824,220.188Z" transform="translate(-46.793 -14.157)"/></g><g transform="translate(432.021 122.258)"><path class="d" d="M311.042,171.357l.774,7.682c1.148,11.438-4.744,21.487-13.094,22.327s-16.13-7.832-17.282-19.274l-.77-7.682c-.007-.056-.007-.112-.014-.172,8.217-6.243,18.332-8.693,28.706-9.936A27.3,27.3,0,0,1,311.042,171.357Z" transform="translate(-280.655 -164.302)"/><g transform="translate(3.597 25.445)"><path class="g" d="M284.856,171.585c-1.978.2-3.386,2.29-3.148,4.671s2.038,4.152,4.016,3.953,3.382-2.29,3.144-4.671S286.831,171.385,284.856,171.585Z" transform="translate(-281.683 -171.57)"/></g><path class="d" d="M282.541,181.348c-.774-7.692,3.816-14.512,10.2-15.153a10.4,10.4,0,0,1,7.454,2.342l-17.621,13.185Z" transform="translate(-276.151 -159.686)"/><g transform="translate(6.425 8.851)"><path class="g" d="M300.112,166.83a15.16,15.16,0,0,1,5.563,10.479l1.131,11.26c.774,7.692-3.816,14.512-10.2,15.153S284.36,198.6,283.586,190.9l-1.1-10.889Z" transform="translate(-282.49 -166.83)"/></g><g transform="translate(7.65 32.477)"><rect class="g" width="14.058" height="28.863" rx="0.669" transform="matrix(0.995, -0.1, 0.1, 0.995, 0, 1.407)"/></g></g><path class="c" d="M2.044,0h798a2.043,2.043,0,0,1,2.043,2.043v95.4a2.043,2.043,0,0,1-2.043,2.043h-798A2.044,2.044,0,0,1,0,97.441V2.044A2.044,2.044,0,0,1,2.044,0Z" transform="translate(15.231 205.765)"/><path class="g" d="M276.8,225.579h-7.489a5.4,5.4,0,0,1-5.388-5.388h0a5.4,5.4,0,0,1,5.388-5.385H276.8a5.4,5.4,0,0,1,5.388,5.385h0A5.4,5.4,0,0,1,276.8,225.579Z" transform="translate(109.521 84.276)"/><path class="g" d="M283.821,225.579h-7.492a5.4,5.4,0,0,1-5.388-5.388h0a5.4,5.4,0,0,1,5.388-5.385h7.492a5.4,5.4,0,0,1,5.385,5.385h0A5.4,5.4,0,0,1,283.821,225.579Z" transform="translate(127.067 84.276)"/><path class="g" d="M349.968,225.216h-7.493a5.4,5.4,0,0,1-5.388-5.385h0a5.406,5.406,0,0,1,5.388-5.388h7.493a5.4,5.4,0,0,1,5.385,5.388h0A5.4,5.4,0,0,1,349.968,225.216Z" transform="translate(292.513 83.368)"/></g></g></svg>