<svg xmlns="http://www.w3.org/2000/svg" width="360.697" height="387.417" viewBox="0 0 360.697 387.417"><defs><style>.a{fill:#c7cfe2;}.b{fill:#afb9d2;}.c{fill:#959cb3;}.d{fill:#e4eaf6;}.e{fill:#e6af78;}.f{fill:#eff2fa;}.g{fill:#d29b6e;}.h{fill:#f0c087;}.i{fill:#5b5d6e;}.j{fill:#515262;}.k{fill:#785550;}.l{fill:#694b4b;}.m{fill:#5a4146;}.n{fill:#b4e1fa;}.o{fill:#a0d2f0;}</style></defs><g transform="translate(-17.656)"><path class="a" d="M238.581,35.31h160.31a26.8,26.8,0,0,1,26.718,26.718v93.514a26.8,26.8,0,0,1-26.718,26.718H312.056V207.6a3.34,3.34,0,0,1-5.7,2.362l-27.7-27.7H238.58a26.8,26.8,0,0,1-26.718-26.718V62.029A26.8,26.8,0,0,1,238.581,35.31Z" transform="translate(-47.256 -8.592)"/><path class="b" d="M391.984,88.747H292.018V75.388h53.21a6.831,6.831,0,0,0,6.892-6.233,6.679,6.679,0,0,0-6.666-7.126H292.018V35.31H278.659v93.514a26.8,26.8,0,0,1-26.718,26.718H211.863A26.347,26.347,0,0,0,215.6,168.9h36.344a40.124,40.124,0,0,0,40.078-40.078H318.53a6.814,6.814,0,0,0,6.815-5.689,6.682,6.682,0,0,0-6.609-7.67H292.019V102.105H392.213a6.679,6.679,0,0,0,6.665-7.126A6.833,6.833,0,0,0,391.984,88.747Z" transform="translate(-47.256 -8.592)"/><g transform="translate(291.519 53.436)"><path class="c" d="M441.615,83.98H421.576a6.68,6.68,0,1,1,0-13.36h20.039a6.68,6.68,0,1,1,0,13.36Z" transform="translate(-388.178 -70.62)"/><path class="c" d="M433.023,154.6H386.266a6.68,6.68,0,0,1,0-13.36h46.757a6.68,6.68,0,0,1,0,13.36Z" transform="translate(-379.586 -87.804)"/></g><g transform="translate(244.761 133.591)"><path class="b" d="M417.987,189.911H324.473a6.68,6.68,0,0,1,0-13.36h93.514a6.68,6.68,0,1,1,0,13.36Z" transform="translate(-317.793 -176.551)"/></g><path class="d" d="M204.684,0H44.374A26.8,26.8,0,0,0,17.656,26.718v93.514A26.8,26.8,0,0,0,44.374,146.95h86.835v25.335a3.339,3.339,0,0,0,5.7,2.362l27.7-27.7h40.078A26.8,26.8,0,0,0,231.4,120.233V26.718A26.8,26.8,0,0,0,204.684,0Z" transform="translate(0)"/><path class="b" d="M79.684,48.67H59.646a6.68,6.68,0,1,1,0-13.36H79.685a6.68,6.68,0,1,1,0,13.36Z" transform="translate(-8.592 -8.592)"/><g transform="translate(44.374 26.718)"><path class="a" d="M221.633,48.67H121.439a6.68,6.68,0,1,1,0-13.36H221.633a6.68,6.68,0,0,1,0,13.36Z" transform="translate(-68.002 -35.31)"/><path class="a" d="M206.6,83.98H59.646a6.68,6.68,0,1,1,0-13.36H206.6a6.68,6.68,0,1,1,0,13.36Z" transform="translate(-52.966 -43.902)"/></g><path class="b" d="M247.409,119.29H227.37a6.68,6.68,0,1,1,0-13.36h20.039a6.68,6.68,0,1,1,0,13.36Z" transform="translate(-49.404 -25.776)"/><g transform="translate(44.374 80.154)"><path class="a" d="M159.839,119.29H59.646a6.68,6.68,0,1,1,0-13.36H159.84a6.68,6.68,0,1,1,0,13.36Z" transform="translate(-52.966 -105.93)"/><path class="a" d="M206.6,154.6H59.646a6.68,6.68,0,0,1,0-13.36H206.6a6.68,6.68,0,0,1,0,13.36Z" transform="translate(-52.966 -114.522)"/></g><path class="e" d="M151.238,435.8v-21.58H95.746V435.8l27.746,24.662Z" transform="translate(-19.001 -100.79)"/><path class="f" d="M177.286,452.7l-38.148-8.976a6.1,6.1,0,0,1-1.6-.645l-30.9,18.022-29.694-18.9a6.131,6.131,0,0,1-2.807,1.516L35.991,452.7a12.334,12.334,0,0,0-9.508,12v24.146a6.166,6.166,0,0,0,6.166,6.166H180.628a6.166,6.166,0,0,0,6.166-6.166V464.707A12.332,12.332,0,0,0,177.286,452.7Z" transform="translate(-2.148 -107.602)"/><path class="g" d="M95.746,414.218v22.769c34.953,12.593,55.492-18.924,55.492-18.924v-3.845Z" transform="translate(-19.001 -100.79)"/><path class="h" d="M79.449,320.509l2.687,59.1a18.5,18.5,0,0,0,7.38,13.958l12.747,9.56a18.5,18.5,0,0,0,11.1,3.7h12.331a18.5,18.5,0,0,0,11.1-3.7l12.747-9.56a18.5,18.5,0,0,0,7.38-13.958l2.686-59.1H79.449Z" transform="translate(-15.036 -77.988)"/><path class="e" d="M110.277,332.841c12.331,0,30.829-3.083,35.216-12.331H79.449l2.686,59.1a18.5,18.5,0,0,0,7.38,13.958l12.747,9.561a18.5,18.5,0,0,0,11.1,3.7h6.166c-6.166,0-18.5-12.331-18.5-27.747v-37C101.029,339.006,104.111,332.841,110.277,332.841Z" transform="translate(-15.036 -77.989)"/><g transform="translate(24.334 349.463)"><path class="d" d="M206.791,479.787l19.977-17.945a12.312,12.312,0,0,1,2.656,7.642V493.63a6.166,6.166,0,0,1-6.166,6.166h-21.58v-8.541A15.415,15.415,0,0,1,206.791,479.787Z" transform="translate(-69.112 -461.842)"/><path class="d" d="M49.115,479.787,29.138,461.842a12.312,12.312,0,0,0-2.656,7.642V493.63a6.166,6.166,0,0,0,6.166,6.166h21.58v-8.541A15.409,15.409,0,0,0,49.115,479.787Z" transform="translate(-26.482 -461.842)"/></g><path class="i" d="M137.643,503.077H122.228l1.927-27.746h11.561Z" transform="translate(-25.445 -115.661)"/><path class="j" d="M137.643,467.182H122.228v1.781a7.467,7.467,0,0,0,7.468,7.468h.478a7.467,7.467,0,0,0,7.468-7.468v-1.781Z" transform="translate(-25.445 -113.678)"/><g transform="translate(67.496 327.351)"><path class="d" d="M92.339,433.411l28.178,25.361a106.338,106.338,0,0,0-17.63,12.013,3.956,3.956,0,0,1-6.125-1.385L83.523,440.274l4.188-6.282A3.083,3.083,0,0,1,92.339,433.411Z" transform="translate(-83.523 -432.62)"/><path class="d" d="M160.593,433.411l-28.178,25.361a106.335,106.335,0,0,1,17.63,12.013,3.956,3.956,0,0,0,6.125-1.385l13.239-29.126-4.188-6.282A3.083,3.083,0,0,0,160.593,433.411Z" transform="translate(-95.42 -432.62)"/></g><path class="k" d="M157.115,292.9l2.891,20.425c13.193,2.638,15.094,23.343,15.368,29.257a6.086,6.086,0,0,0,.975,3.012l5.034,7.808s-1.724-12.91,6.166-21.58C187.548,331.822,190.256,280.57,157.115,292.9Z" transform="translate(-33.934 -70.805)"/><path class="h" d="M189.225,369.181l-3.481,13.926a3.707,3.707,0,0,1-3.6,2.807h0a3.706,3.706,0,0,1-3.678-3.246l-1.78-14.244a6.382,6.382,0,0,1,6.333-7.173h.013A6.382,6.382,0,0,1,189.225,369.181Z" transform="translate(-38.685 -87.902)"/><path class="l" d="M79.337,283.654l4.56,3.114C63.281,301.99,67.134,328.1,67.134,328.1c6.166,6.166,6.166,21.58,6.166,21.58l6.166-6.166s-2.38-17.811,9.249-24.663c10.79-6.358,20.232-3.083,29.865-3.083,25.819,0,33.045-9.731,31.792-21.58-.648-6.132-10.023-18.9-33.912-18.5C106.819,275.852,88.715,278.772,79.337,283.654Z" transform="translate(-11.97 -67.08)"/><path class="m" d="M77.539,316.634s-3.276-12.91,6.358-26.3c-20.616,15.222-16.763,41.33-16.763,41.33,6.166,6.166,6.166,21.58,6.166,21.58l6.166-6.166s-2.38-17.811,9.249-24.663c10.79-6.358,20.232-3.083,29.865-3.083a75.724,75.724,0,0,0,11.117-.764C109.813,319.236,98.091,304.175,77.539,316.634Z" transform="translate(-11.97 -70.646)"/><path class="e" d="M71.494,369.181l3.481,13.926a3.707,3.707,0,0,0,3.6,2.807h0a3.706,3.706,0,0,0,3.678-3.246l1.78-14.244a6.382,6.382,0,0,0-6.333-7.173h-.013A6.382,6.382,0,0,0,71.494,369.181Z" transform="translate(-13.053 -87.902)"/><path class="d" d="M174.366,503.851H158.951a6.166,6.166,0,0,0-6.166,6.166h27.746A6.166,6.166,0,0,0,174.366,503.851Z" transform="translate(-32.881 -122.601)"/><path class="l" d="M344.126,278.328c-62.192,0-55.3,75.63-55.012,130.437a5.852,5.852,0,0,0,2.868,5,104.971,104.971,0,0,0,104.289,0,5.852,5.852,0,0,0,2.868-5C399.422,353.959,406.318,278.328,344.126,278.328Z" transform="translate(-65.966 -67.725)"/><path class="m" d="M340.12,278.535c-57.841,3.243-51.283,76.693-51.005,130.28a5.852,5.852,0,0,0,2.868,5,103.082,103.082,0,0,0,52.145,13.867L359.844,317.67" transform="translate(-65.967 -67.775)"/><path class="l" d="M349.771,278.328c-35.362,0-37.819,42.729-37.819,42.729,20.383-3.438,32.907,5.157,53.535-3.438L349.771,427.637a103.077,103.077,0,0,0,52.145-13.868,5.852,5.852,0,0,0,2.868-5C405.067,353.959,411.962,278.328,349.771,278.328Z" transform="translate(-71.61 -67.725)"/><path class="k" d="M423.866,410.138c.244-47.094,5.328-109.519-32.7-126.168-.663,3.445-1.864,13.062,1.258,19.306,7.859,15.717,15.717,15.717,23.575,27.5,7.859,43.221-15.015,89.1-22.612,95.34h0A98.836,98.836,0,0,0,421,415.142,5.85,5.85,0,0,0,423.866,410.138Z" transform="translate(-90.694 -69.098)"/><path class="e" d="M399.994,456.38l-35.06-14.608a7.858,7.858,0,0,1-4.836-7.254v-9.495H320.806v9.495a7.858,7.858,0,0,1-4.836,7.254l-35.06,14.608a11.788,11.788,0,0,0-7.254,10.881v15.717a7.859,7.859,0,0,0,7.859,7.859H399.388a7.859,7.859,0,0,0,7.859-7.859V467.261A11.787,11.787,0,0,0,399.994,456.38Z" transform="translate(-62.292 -103.42)"/><path class="n" d="M399.994,461.922l-33.9-14.125-25.643,11.067L314.809,447.8l-33.9,14.125a11.787,11.787,0,0,0-7.254,10.881V488.52a7.859,7.859,0,0,0,7.859,7.859H399.389a7.859,7.859,0,0,0,7.859-7.859V472.8A11.789,11.789,0,0,0,399.994,461.922Z" transform="translate(-62.292 -108.961)"/><path class="g" d="M371.944,425.022H332.652v9.495a7.858,7.858,0,0,1-4.836,7.254l-5.475,2.282C364.245,454.738,371.944,425.022,371.944,425.022Z" transform="translate(-74.138 -103.419)"/><g transform="translate(211.364 332.407)"><path class="o" d="M292.807,482.518l-15.771-12.545a11.761,11.761,0,0,0-3.38,8.226v15.717a7.859,7.859,0,0,0,7.859,7.859h15.717V491.724A11.791,11.791,0,0,0,292.807,482.518Z" transform="translate(-273.656 -446.765)"/><path class="o" d="M442.626,493.93V478.214a11.762,11.762,0,0,0-3.329-8.177l-15.822,12.5a11.787,11.787,0,0,0-4.423,9.2v10.052h15.717A7.858,7.858,0,0,0,442.626,493.93Z" transform="translate(-309.035 -446.78)"/><path class="o" d="M361.258,492.081h-1.179a3.34,3.34,0,0,1-3.34-3.34V462.435H364.6v26.306A3.341,3.341,0,0,1,361.258,492.081Z" transform="translate(-293.872 -444.931)"/><path class="o" d="M351.824,456.8l-22.488-16.866a3.143,3.143,0,0,0-4.5.77l-4.444,6.666,13.787,19.3a3.144,3.144,0,0,0,4.521.628Z" transform="translate(-285.028 -439.302)"/><path class="o" d="M361.932,456.8l22.488-16.866a3.143,3.143,0,0,1,4.5.77l4.444,6.666-13.787,19.3a3.144,3.144,0,0,1-4.521.628Z" transform="translate(-295.136 -439.302)"/></g><path class="h" d="M369.179,325.063c-19.645,19.645-58.2,3.929-58.2,35.362l2.44,23.154a15.717,15.717,0,0,0,8.019,12.316l22.372,12.428a11.785,11.785,0,0,0,11.448,0L377.629,395.9a15.717,15.717,0,0,0,8.019-12.316l2.816-27.5a43.378,43.378,0,0,0,.177-5.882C387.172,340.2,373.108,332.921,369.179,325.063Z" transform="translate(-71.373 -79.097)"/><path class="e" d="M310.978,360.425l2.44,23.154a15.718,15.718,0,0,0,8.019,12.316l22.372,12.428a11.736,11.736,0,0,0,8,1.2h0s-11.279-3.419-17.992-21.59c-2.057-5.567-4.911-35.035-2.455-38.637,4.854-7.119,31.924-7.859,39.923-21.065q-.592-.735-1.093-1.473c-.026-.039-.059-.079-.086-.12a15.168,15.168,0,0,1-.926-1.572C349.534,344.709,310.978,328.991,310.978,360.425Z" transform="translate(-71.373 -79.096)"/><path class="o" d="M394.4,501.614H384.189a6.68,6.68,0,0,0-6.68,6.68v1.179h23.575v-1.179A6.679,6.679,0,0,0,394.4,501.614Z" transform="translate(-87.562 -122.056)"/></g></svg>