<svg xmlns="http://www.w3.org/2000/svg" width="38.483" height="30.236" viewBox="0 0 38.483 30.236"><defs><style>.a{fill:#011627;}</style></defs><g transform="translate(0)"><g transform="translate(0 0)"><path class="a" d="M3.694,63.2q.73.464,4.4,2.753t5.626,3.525q.215.136.912.589t1.16.734q.462.28,1.117.628a6.833,6.833,0,0,0,1.235.521,3.745,3.745,0,0,0,1.074.174h.043a3.748,3.748,0,0,0,1.074-.174,6.84,6.84,0,0,0,1.235-.521q.655-.348,1.117-.628t1.16-.734q.7-.454.913-.589,1.975-1.236,10.05-6.279a9.742,9.742,0,0,0,2.62-2.376,4.763,4.763,0,0,0,1.053-2.917,2.823,2.823,0,0,0-1.02-2.183,3.513,3.513,0,0,0-2.416-.908H3.436a3.223,3.223,0,0,0-2.545,1A3.646,3.646,0,0,0,0,58.336a4.268,4.268,0,0,0,1.181,2.637A10.224,10.224,0,0,0,3.694,63.2Z" transform="translate(0 -54.82)"/><path class="a" d="M36.335,186.394q-7.043,4.995-10.694,7.763-1.224.945-1.986,1.474a12.058,12.058,0,0,1-2.029,1.08,5.943,5.943,0,0,1-2.362.551H19.22a5.945,5.945,0,0,1-2.362-.551,12.064,12.064,0,0,1-2.029-1.08q-.762-.528-1.986-1.474-2.9-2.227-10.673-7.763A11.543,11.543,0,0,1,0,184.437V202.3a3.551,3.551,0,0,0,1.009,2.543A3.234,3.234,0,0,0,3.436,205.9H35.047a3.234,3.234,0,0,0,2.427-1.058,3.55,3.55,0,0,0,1.009-2.543V184.437A12.026,12.026,0,0,1,36.335,186.394Z" transform="translate(0 -175.666)"/></g></g></svg>