<svg xmlns="http://www.w3.org/2000/svg" width="39.513" height="39.513" viewBox="0 0 39.513 39.513"><defs><style>.a{fill:#05a8aa;}</style></defs><g transform="translate(0 6.053)"><path class="a" d="M31.863,92.564a1.6,1.6,0,0,0-1.6,1.6v12.107a2.442,2.442,0,0,1-2.44,2.44H5.632a2.442,2.442,0,0,1-2.44-2.44v-22.2a2.442,2.442,0,0,1,2.44-2.44H17.739a1.6,1.6,0,0,0,0-3.192H5.632A5.638,5.638,0,0,0,0,84.071v22.2A5.638,5.638,0,0,0,5.632,111.9h22.2a5.638,5.638,0,0,0,5.632-5.632V94.16A1.6,1.6,0,0,0,31.863,92.564Z" transform="translate(0 -78.439)"/></g><g transform="translate(24.214)"><path class="a" d="M327.46,0H315.353a1.6,1.6,0,0,0,0,3.192h10.511V13.7a1.6,1.6,0,1,0,3.192,0V1.6A1.6,1.6,0,0,0,327.46,0Z" transform="translate(-313.757)"/></g><g transform="translate(14.125 0)"><path class="a" d="M207.945.468a1.6,1.6,0,0,0-2.257,0l-22.2,22.2a1.6,1.6,0,1,0,2.257,2.257l22.2-22.2A1.6,1.6,0,0,0,207.945.468Z" transform="translate(-183.024 -0.001)"/></g></svg>