<svg xmlns="http://www.w3.org/2000/svg" width="703.88" height="469.282" viewBox="0 0 703.88 469.282"><defs><style>.a{fill:#fff;}.b{fill:#d6594c;}.c{fill:#08668d;}.d{fill:#0b597f;}.e{fill:#19313a;}.f{fill:#ffdbc2;}.g{fill:#edc1a4;}.h{fill:#def1f8;}.i{fill:#90c8ee;opacity:0.37;}.j{fill:#3f292d;}.k{fill:#47b;}.l{fill:#35679e;}.m{fill:#c17a61;}.n{fill:#aa6552;}.o{fill:#f9b354;}.p{fill:#dd9845;}.q{fill:#3cb28e;}.r{fill:#349977;}.s{fill:#f2c5a7;}.t{fill:#724472;}.u{fill:#673c68;}.v{fill:#5ea4dd;}.w{fill:#518ecc;}.x{fill:#5b343c;}.y{fill:#e0a375;}.z{fill:#0a5c75;}.aa{fill:#f8c6a3;}.ab{fill:#3d3360;}.ac{fill:#eab18b;}.ad{fill:#bce3f6;}.ae{fill:#93bf56;}.af{fill:#80ad4d;}.ag{fill:#ec6469;}.ah{fill:#d3545e;}.ai{fill:#f2f2f2;}.aj{fill:#65439b;}.ak{fill:#523c7c;}.al{fill:#00a5c8;}.am{fill:#2b1c1f;}</style></defs><g transform="translate(-1244.422 -5757.975)"><path class="a" d="M427.269,206.053c-2.62,113.7-127.849,223.648-205.89,205.89-38.352-8.727-34.98-41.393-94.445-66.112-58.215-24.2-93.529-6.226-115.223-32.111-22.945-27.377-6.928-75.5,3.778-107.667C20.5,191,84.68,6.415,221.379.163c46.957-2.148,84.609,17.563,97.329,24.412,55.13,29.68,80.255,76.264,88.958,94.921C412.6,130.068,428.227,164.457,427.269,206.053Z" transform="translate(1725.171 6167.786) rotate(172)"/><g transform="translate(1308.287 5890.337)"><path class="b" d="M293.362,162.139a14.964,14.964,0,0,1,12.862,2.977c6.211,4.969,9.62,14.985,7.473,22.984a22.292,22.292,0,0,1-8.966,12.166Z" transform="translate(-70.262 -88.337)"/><path class="c" d="M73.266,346.053c-1.837,4.456-2.71,11.005-2.273,18.283s.291,11.208-1.893,18.485-5.967,20.4-5.967,20.4h66.058V326.492s-18.17-4.076-31.561,2.911A139.258,139.258,0,0,0,73.266,346.053Z" transform="translate(-63.133 -93.401)"/><path class="d" d="M97.908,329.4a139.257,139.257,0,0,0-24.363,16.65,27.9,27.9,0,0,0-1.426,4.815c.134.171,5.486,6.935,17.519,10.006,12.188,3.11,14.873,2.077,14.873,2.077l6.61-18.03,1.446,19.346a111.638,111.638,0,0,0,16.9,1.846V326.492S111.3,322.417,97.908,329.4Z" transform="translate(-63.411 -93.401)"/><path class="e" d="M153.181,98.873s12.285-5.9,20.64,5.614,2,26.173-7.43,27.736S153.181,98.873,153.181,98.873Z" transform="translate(-65.921 -86.343)"/><path class="f" d="M162.709,115.218c1.349,4.625,3.083,18.263,1.735,29.561s-9.663,26.963-14.481,30.048-12.809-.922-12.809-.922a44.878,44.878,0,0,0-1.578,5.406c-.578,2.806,2.423,6.57,6.758,12.5a54.982,54.982,0,0,1,6.758,12.727s-35.337-8.762-41.7-29.77c0,0,4.048-5.975,5.975-16.19,0,0-9.637-9.829-10.986-20.622s2.313-23.514,13.877-33.343S152.879,92.476,162.709,115.218Z" transform="translate(-64.34 -86.347)"/><path class="g" d="M120,171.011c3.412,4.033,13.611,7.853,16.278,8.8.548-2.187,1.321-4.294,1.321-4.294-4.642-1.627-14.144-7.247-16.562-11.716s-1.954-14.155-1.954-14.155-1.294,1.442-2.25,6.071S116.057,166.357,120,171.011Z" transform="translate(-64.781 -87.962)"/><path class="e" d="M112.514,161.426a22.948,22.948,0,0,0,3.722-6.064,33.829,33.829,0,0,0,2.25-7.683c-2.5.771-8.867-1.379-10.275-7.28-1.52-6.377-.433-9.666,2.073-11.594s6.365-2.082,9.058,1.958c2.308,3.461,1.627,6.285,3.044,6.863s6.35-4.263,6.736-12.936c0,0,7.324,5.011,13.877,0a10.8,10.8,0,0,0,4.24-11.756,10.139,10.139,0,0,0,8.381,5.4c6.074.386,6.938-3.469,6.938-3.469s1.922-7.724-5.6-13.314c0,0,.706-11.349-12.436-14.615-13.97-3.472-26,3.068-28.262,12.839,0,0-10.79-1.376-15.5,7.008-5.642,10.05-3.573,19.3-.588,30.444a102.885,102.885,0,0,0,7.642,20.232C110.364,161.915,112.514,161.426,112.514,161.426Z" transform="translate(-64.188 -85.991)"/><path class="h" d="M108.681,172.982c-1.537,3.031-9.751,5.989-15.214,9.507s-18.225,15.956-14.529,40.963c3.712,25.109,9.012,69.862,8.4,78.157s-2.427,13.555-7.081,23.063-7.687,15.578-7.687,15.578,7.081,9.711,30.145,11.734l8.9-22.456,2.022,24.48s28.587,4.345,39.378.682c0,0,6.8-98.918,5.067-116.277-3.149-31.533-20.5-49.55-20.5-49.55s-8.849.984-15.267-2.588C111.053,180,108.681,172.982,108.681,172.982Z" transform="translate(-63.425 -88.685)"/><path class="i" d="M157.538,281.088l-23.745-18.9-24.2-31.47-6.269-32.88L84.87,192.192c-4.39,6.754-7.927,17.121-5.749,31.855.31,2.1.633,4.343.96,6.683,2.692,11.3,6.112,23.87,9.338,31.744a8.057,8.057,0,0,0,4.231,0l6.229,14.51L87.514,298.093a40.128,40.128,0,0,1,.012,4.111c-.516,7.065-1.922,11.938-5.2,19.1,8.5,1.845,36.647-13.769,43.472-18.141a16.607,16.607,0,0,0,2.021,5.808c1.668,2.817.119,6.5,1.848,8.472s-16.179,33.041-16.18,33.041l.34,4.117s28.587,4.344,39.378.682C153.2,355.284,155.987,314.8,157.538,281.088Z" transform="translate(-63.608 -89.279)"/><path class="j" d="M210.2,161.853a13.7,13.7,0,0,1,12.14,3.537c6.415,6.257,8.6,24.237-5.4,31.5,0,0-7.151-9.2-8.862-17.649S210.2,161.853,210.2,161.853Z" transform="translate(-67.608 -88.332)"/><path class="k" d="M209.376,355.033l6.735,49.091H108.857s3.2-27.2,16.669-49.765Z" transform="translate(-64.549 -94.301)"/><path class="l" d="M131.3,404.529s2.689-24.282,11.583-37.112h3.679s-8.939,11.616-12.136,37.112Z" transform="translate(-65.244 -94.705)"/><path class="l" d="M209.769,355.033l-83.85-.673c-1.6,2.671-3.041,5.407-4.36,8.155.008.132.731,12.785,21.82,18.18,21.2,5.424,37.717.987,50.535-10.6,0,0,8.007,9.555,19.166,9.073Z" transform="translate(-64.942 -94.301)"/><path class="m" d="M133.957,248.551c-5.732,4.313-39.986,31.27-49.088,40.048s-11.749,19.2-8.274,24.169,7.447,5.461,15.721,1.986S133.279,292.2,133.279,292.2s2.062-3.1,3.22-16.336S133.957,248.551,133.957,248.551Z" transform="translate(-63.504 -91.025)"/><path class="n" d="M137.262,276.264a70.837,70.837,0,0,0-.014-11.4c-5.6-1.063-13.1-2.478-18.446-3.448-6.094,4.843-12.968,10.372-19.028,15.375,1.864,6.462,7.57,18.072,11.9,19.646,3.016,1.1,12.392-.263,17.807-1.19,2.795-1.614,4.56-2.644,4.56-2.644S136.1,289.5,137.262,276.264Z" transform="translate(-64.268 -91.423)"/><path class="m" d="M203.047,238.639c-6.608-.943-8.9-1.819-9.3-2.7s.162-9.286,1.764-11.889a17.725,17.725,0,0,0,8.66,1.432c4.6-.517,6.482-3.519,9.085-12.519s2.8-30.645,1.4-37.052-18.621-18.32-37.042-10.761-21.424,34.788-18.421,43.2,10.412,14.016,10.412,16.619.4,7.659-2.6,9.144-11.415,3.3-11.415,3.3.6,6.385,22.025,8.482S203.047,238.639,203.047,238.639Z" transform="translate(-65.996 -88.367)"/><path class="o" d="M196.245,239.742s-7.9,5.45-21.744,3.945-12.878-5.712-12.878-5.712-9.379,1.456-13,2.451c-7.084,1.945-11.144,3.341-13.19,7.8-1.361,2.965-3.833,26.312-1.681,38.138l2.313,12.711s3.895,14.12,2.982,21.021-16.307,29.6-16.307,29.6-1,18.565,29.033,21.769,44.452-17.621,44.452-17.621c4.4,15.017,18.645,12.62,18.645,12.62-3.178-9.006-4.629-36.247-3.485-45.714s12.414-69.485,8.862-72.522c-6.9-5.9-17.392-7.54-24-8.482" transform="translate(-64.979 -90.697)"/><path class="p" d="M216.323,258.982l-49.664,9.933-33.025,14.8c.12,1.17.268,2.278.453,3.3l1.353,7.432c4.928-1.23,16.968-4.863,29.2-7.745,16.764-3.952,36.457-9.173,45.008-11.252l10.608-9.653c.226-1.91.422-3.719.58-5.395Z" transform="translate(-65.316 -91.348)"/><path class="p" d="M186.72,321.423l-26.783-5.1-11.508-14.277-5.473-10.167c-2.035,2.219-2,5.9-1.135,8.977a70.15,70.15,0,0,0,4.054,9.159l-6.263,7.954a21.969,21.969,0,0,1-.1,3.8,20.407,20.407,0,0,1-1.771,5.132,27.374,27.374,0,0,0,10.39,4.413c6.306,1.078,20.952,3.33,36.154,9.035s20.758,6.058,23.311,5.207c1.144-.382,2.743-2.012,4.162-3.693a133.423,133.423,0,0,1,.093-19.443c.071-.588.181-1.371.325-2.323l-.076-.47Z" transform="translate(-65.443 -92.366)"/><path class="f" d="M187.35,310.236c-3.925-.222-20.513-.889-22.956-1.259a5,5,0,0,1-4.368-3.258c-.741-1.777-1.7-4.666-4.518-6.591s-6-3.258-7.182-4.961-1.778-5.035-4.221-4-1.482,5.554-.593,7.554,3.554,5.7,3.777,6.516-.815,1.037-2.814.445-8.146-4-8.146-4l-.593-3.11a3.654,3.654,0,0,0-3.7,2.073,7.3,7.3,0,0,0,0,6.369c.741,1.482-.147,3.332,1.26,5.555s2.221,2.444,2.518,3.924a10.663,10.663,0,0,0,4.368,6.862c3.111,2.024,8.59,2.617,14.737,3.58s29.167,8.094,29.167,8.094,1.929-2.369,3.268-8.686A33.856,33.856,0,0,0,187.35,310.236Z" transform="translate(-65.244 -92.307)"/><path class="j" d="M214.8,177.052c-1.059,3.982-4.1,7.416-7.531,10.058s-3.832,4.36-4.756,8.059-2.906,6.076-4.755,5.812-1.057-3.952-2.378-6.533-3.7-6.28-8.718-4.431-4.312,11.889-1.232,15.192,5.327,3.3,7.044,2.51,2.642.528,2.245,2.642-1.034,8.672-6.054,12.371-17.559,2.233-19.418.912a50.8,50.8,0,0,1-10.441-8.839,27.864,27.864,0,0,1-7.251-17.483c-.476-8.5,1.066-18.681,3.91-21.325l17.259-19.4s4.689-7.794,18.032-6.868a20.637,20.637,0,0,1,17.7,11.756S218.758,170.245,214.8,177.052Z" transform="translate(-65.868 -87.962)"/><ellipse class="j" cx="18.706" cy="14.859" rx="18.706" ry="14.859" transform="matrix(0.681, -0.732, 0.732, 0.681, 69.316, 80.625)"/><path class="f" d="M313.044,247.75c-7.577-1.193-13.963-1.283-21.567-2.564s-11.2-2.039-10.445-9.237,1.516-11.933,1.516-11.933l-24.435-1.327s-1.137,11.555-1.7,14.207-.758,2.651-6.44,3.6-17.469,3.258-17.469,3.258,1.557,6.4,32.622,12.085S313.044,247.75,313.044,247.75Z" transform="translate(-68.377 -90.224)"/><path class="q" d="M287.533,245.327s17.994,2.153,24.008,2.992,10.906,2.637,15.977,14.954c0,0-12.844,36.021-11.851,41.707,1.426,8.169-1.765,31.187-2.761,36.5s.83,17.435,4.483,34.871,5.349,24.265,5.349,24.265H194.514a261.971,261.971,0,0,1,22.25-34.062c12.786-16.273,22.084-30.553,23.58-35.2s-6.144-30.885-6.144-30.885-20.922,31.383-23.413,34.87-3.819,3.155-10.462,1.494-14.612-4.317-14.612-4.317-2.989-5.527-1.162-13.557,4.429-10.237,4.429-10.237,3.375.049,4.7.049,3.653-.167,5.646-4.815,15.941-39.52,19.76-47.656,6.352-12.554,14.468-13.915a97.1,97.1,0,0,1,14.909-1.319s4.386,6.689,17.126,8.018A40.431,40.431,0,0,0,287.533,245.327Z" transform="translate(-66.874 -90.793)"/><path class="r" d="M313.838,349.887h0l-10.159,15.141c1.426,8.124,2.853,19.305-11.816,27.264s-70.089,11.694-70.089,11.694H323.908s-1.7-6.831-5.348-24.265C315.79,366.5,314.074,356.346,313.838,349.887Z" transform="translate(-68.045 -94.162)"/><path class="r" d="M318.9,292.811l-10.928,3.624-24.984-12.461s-24.78-30.869-25.063-31.293-11.186-4.13-11.186-4.13l-26.761,7.931-.024.049c-1.442,3.074-4.742,10.961-7.884,18.594a168.08,168.08,0,0,1,17.6-2.337c5.872-.424,12.535-5.384,12.535-5.384s21.1,32,29.436,40.5,13.892,15.858,21.822,16.284,13.646-9.5,20.248-15.009l2.937-3.164c-.035-.281-.075-.549-.119-.8-.314-1.8.758-6.633,2.367-12.4Z" transform="translate(-67.745 -91.025)"/><path class="r" d="M304.915,338.464l3.61,8.64,8.969,11.332h0c-1.065-7.1-1.407-12.3-.843-15.309.905-4.829,3.622-24.277,3.04-33.917l-.079-.461-7.3-14.524s-1.268,15.006-2.8,25.288C308.425,326.828,304.915,338.464,304.915,338.464Z" transform="translate(-70.62 -92.439)"/><path class="r" d="M298.038,349.612l-59.457-8.887c-2.209,3.747-5.419,8.624-9.372,14.18,5.41.8,28.011,4.165,45.335,7.182,19.818,3.452,27.876,6.087,33.963,4.54s5-4.641,6.643-6.75h0a95.5,95.5,0,0,1-1.081-10.273C310.29,350,298.038,349.612,298.038,349.612Z" transform="translate(-68.275 -93.879)"/><path class="f" d="M301.371,176.535c2.818,8.277,4.756,26.789,2.113,36.29s-5.636,11.087-9.51,11.087-17.255-2.225-17.255-2.225L258.51,220.7s.415-4.184-2.755-6.473-16.2-17.789-7.4-37.691S279,155.047,288.69,162.444,301.371,176.535,301.371,176.535Z" transform="translate(-68.775 -88.232)"/><path class="s" d="M295.128,225.78a6.9,6.9,0,0,0,4.6-1.422c-2.967.182-6.713-.927-11.8-5.643l-5.088,1.862-.211,3.729A123.632,123.632,0,0,0,295.128,225.78Z" transform="translate(-69.93 -90.101)"/><path class="b" d="M301.043,176.41c.016-4.132-9.5-14.5-9.5-14.5a30.784,30.784,0,0,0-19.855-7.554c-12.344-.184-22.949,6.155-26.669,21.688-3.683,15.38-5.393,14.548-8.151,20.195-2.552,5.222-5.888,20.416,10.877,30.016,17.959,10.284,35.342,6.16,39.575,4.4s5.256-4.681,2.345-9.381a26.369,26.369,0,0,1-3.364-11.649c-.146-2.817.263-4.16-1.166-3.659-1.074.376-3.693.435-5.9-3.151-2.464-4.012-1.106-12.529,2.948-13.265s6.08,2.21,6.632,5.919-.552,5.135,1.474,5.5,3.869-1.1,6.817-5.5S301.355,182.73,301.043,176.41Z" transform="translate(-68.448 -88.108)"/><path class="k" d="M671.08,328.8c3.943,4.176,9.34,13.812,10.3,21.328a60.6,60.6,0,0,1-1.349,21.391,33.617,33.617,0,0,0,0,14.84c1.156,5.781,3.662,16.976,3.662,16.976h-50.46l-9.327-65.766Z" transform="translate(-80.497 -93.509)"/><path class="l" d="M649.927,345.471c14.786-2.31,20.788-7.109,24.686-12.023a33.184,33.184,0,0,0-3.533-4.649l-47.171,8.768L625.1,346A97.31,97.31,0,0,0,649.927,345.471Z" transform="translate(-80.497 -93.509)"/><path class="t" d="M662.51,240.349c1.335,8.965.868,31.589-3.858,41.066s-4.472,13.627-1.561,18.7c4.036,7.04,16.353,25.3,16.353,25.3s-4.069,6.67-16.847,10.293-34.4,2.489-34.4,2.489a123.279,123.279,0,0,1-8.13-47.194c.954-25.673,13.439-66.965,13.439-66.965s14.979-7.915,23.562-2.575S662.51,240.349,662.51,240.349Z" transform="translate(-80.19 -90.129)"/><path class="u" d="M663,262.723l-3-5.094-24.218-21.546-13.209,7.53c-.536,2.143.906,3.27.356,5.612,2.545,8.551,6.273,24.021,9.545,27.084,4.42,4.137,16.5,11.381,24.159,10.22.862-1.883,1.08-2.207,2.275-4.6C661.126,277.488,662.4,270.171,663,262.723Z" transform="translate(-80.452 -90.639)"/><path class="f" d="M642.775,195.8s2.128,10.28,2.472,12.5,1.458,5.058,3.647,5.531c0,0-1.788,7.008-8.228,9.47s-12.986,0-12.986,0a47.591,47.591,0,0,0-2.83-7.2c-1.421-2.557-5.178-3.971-5.178-3.971Z" transform="translate(-80.366 -89.391)"/><path class="g" d="M642.941,196.608l-.166-.8-23.1,16.332s3.758,1.414,5.178,3.971c0,0,10.856-2.261,15.492-6.9C644.131,205.419,643.351,198.874,642.941,196.608Z" transform="translate(-80.366 -89.391)"/><path class="e" d="M625.254,146.223s-10.906-5.548-19.738,1.394-8.742,24.645-1.169,29.12c0,0,14.632-2.714,19.731-11.472S625.254,146.223,625.254,146.223Z" transform="translate(-79.719 -87.791)"/><path class="f" d="M614.561,155.5c-4.569,1.957-8.611,9.366-9.918,20.256-.945,7.876.943,22.5,3.228,29.187s10.877,6.341,17.953,5.328,12.449-4.619,14.244-9.026A39.615,39.615,0,0,0,642.3,194.5s3.753,3.916,7.18,3.427,10.28-7.574,9.954-15.536-.816-22.812-12.565-26.891S614.561,155.5,614.561,155.5Z" transform="translate(-79.893 -88.087)"/><path class="g" d="M623.249,207.956l5.845,2.584a22.309,22.309,0,0,0,4.31-1.679c-.019-.028-8.9-13.03-11.719-15.881s-17.086-8.313-17.214-8.359q.047,1.092.123,2.212l6.694,6.147Z" transform="translate(-79.895 -89.045)"/><path class="e" d="M614.886,155.15s.147,5.876,8.644,11.89,12.2,8.335,12.989,9.642-.962,6.305.214,7.744,4.151-.129,5.651-4.019c1.436-3.725,6.123-5.616,8.618-3.725,2.358,1.786,3.453,4.934,1.412,10.861-1.695,4.922-6.855,8.286-9.787,6.607,0,0-.143,8.184,2.472,12.5a48.763,48.763,0,0,1,7.189-7.366c4.836-4.138,10.065-9.105,11.634-22.961s-9.02-27.973-14.509-31.242-17.647-4.359-23.66,1.089Z" transform="translate(-80.218 -87.736)"/><path class="e" d="M649.828,144.308s2.5-7.345,8.9-11.529,21.046-5.1,27.582,0a34.542,34.542,0,0,1,12.679,22.091c1.438,9.241,3.138,13.747,10.327,19.227s15.947,15.413,10.065,30.446S695.33,219.838,691.8,219.314s-4.575-3.007-2.091-6.405,5.751-9.633,1.569-14.032-7.32-5.837-13.2-9.5-9.935-7.953-9.673-15.283,2.484-16.437.262-21.165-6.709-8.309-13.344-3.921C655.32,149.012,650.73,148.518,649.828,144.308Z" transform="translate(-81.3 -87.332)"/><path class="u" d="M649.49,214.41c5.671,0,12.644,1.832,14.885,14.368s3.4,25.238,2.906,32.626a42.526,42.526,0,0,1-3.406,13.586l-22.911-13.42s-1.577-22.493-1.992-30.755S640.5,214.737,649.49,214.41Z" transform="translate(-80.962 -89.967)"/><path class="v" d="M626.412,347.632a91.189,91.189,0,0,1,5.155,28.6c0,7.72-.926,27.228-.926,27.228H543.88L540.1,361.145s6.251-20.114,27.092-25.364S618.477,330.922,626.412,347.632Z" transform="translate(-77.902 -93.633)"/><path class="w" d="M626.412,347.632c-7.935-16.71-38.38-17.1-59.221-11.85S540.1,361.145,540.1,361.145l.617,6.914a38.3,38.3,0,0,0,33.706,2.364l-.7-17.973,8.733,17.061c28.4-.177,39.722-10.216,45.681-16.563A55.317,55.317,0,0,0,626.412,347.632Z" transform="translate(-77.902 -93.633)"/><path class="x" d="M551.665,119.978a23.482,23.482,0,0,1-12.891,2.245c-3.713-.488-5.692-3.355-8.037-1.2-2.881,2.641-8.306,19.15,2.87,26.562C547.818,157.006,551.665,119.978,551.665,119.978Z" transform="translate(-77.492 -87.043)"/><path class="y" d="M535.181,139.022c-1.862,6.533-1.969,14.918,0,26.813s5.733,22.861,9.293,24.385c2.5,1.072,7.191,1.219,10.82.816s4.8-.736,5.526,5.277,23.707-.842,26.73-5.479c0,0-2.822-10.887-2.016-14.112s4.838-7.863,6.048-17.741-.2-27.62-13.709-33.668-29.487-.948-35.684,3.628A17.72,17.72,0,0,0,535.181,139.022Z" transform="translate(-77.705 -87.123)"/><path class="x" d="M560.9,173.067c-.2,1.581,2.149,5.521,3.387,8.172s3.916,5.273,6.921,5.443,11.252,0,14.816-3.537c1.973-1.772,1.973-5.306,4.8-11.668s4.949-17.437,3.535-26.126-2.009-17.7-10.372-17.526c0,0-2.353-9.543-11.366-11.311s-15.993.862-22.445,4.241c-6.538,3.425-13.761,8.576-13.867,15.109a7.344,7.344,0,0,0,5.207,4.508c3,.663,1.667,2.547,1.82,4.545.264,3.462.79,5.66,3.357,7.568,2.41,1.793,3.488,1.975,3.484,5.913-.006,5.311.176,6.539,1.768,6.892s3.358-1.06,5.3-6.185,5.655-5.7,8.659-2.408,2.131,12.493-.008,14.989C563.3,174.715,561.2,170.769,560.9,173.067Z" transform="translate(-77.785 -86.919)"/><path class="c" d="M454.649,364.686c-1.456,6.429-3.52,32.985-3.79,39.433h101.1s-2.535-18.866-9.2-30.094c0,0-20.978-16.782-43.714-19.488S454.649,364.686,454.649,364.686Z" transform="translate(-75.139 -94.295)"/><path class="z" d="M454.7,364.717c-.669,2.95-1.464,10.135-2.155,17.671h0s3.485,1.017,7.994-3.217,4.525-6.393,5.587-5.781,2.8,5.5,9.033,11.832c4.745,4.82,25.043,15.822,47.126,11.575,16.139-3.1,22.067-11.08,24.09-15.152a49.584,49.584,0,0,0-3.571-7.59,111.441,111.441,0,0,0-16.633-10.51l-15.217,2.914L481.6,355.176A87.616,87.616,0,0,0,454.7,364.717Z" transform="translate(-75.191 -94.326)"/><path class="k" d="M444.6,360.6s3.686,21.825,4.993,43.5H328.723s3.856-34.407,6.318-50.83Z" transform="translate(-71.357 -94.267)"/><path class="l" d="M333.24,367.468s10.451,28.756,57.721,26.74,55.029-25.445,55.029-25.445l-1.252-8.167-109.556-7.335Z" transform="translate(-71.497 -94.267)"/><path class="aa" d="M383.222,119.218c-8.37,0-23.981,4.828-23.981,28,0,0-1.77-3.058-4.023-1.77s-1.449,8.69,0,13.036,4.624,5.259,6.556,5.1c0,0,2.317,7,4.248,10.057s6.726,7.732,6.726,7.732l-.148,13h29.453V179.732c0-4.829,7-15.933,7-15.933s3.189,1.221,5.377-2.809c2.5-4.6,3.631-13.751,1.333-15.538-3.611-2.809-5.006,3.218-5.006,3.218s-1.619-18.186-11.276-22.693S383.222,119.218,383.222,119.218Z" transform="translate(-72.134 -87.02)"/><path class="ab" d="M359.29,149.37c-.518-4.666-2.432-13.91-1.562-22.468s4.5-14.8,7.108-15.376,2.756,2.175,5.657,2.756a7.947,7.947,0,0,1,1.305-6.817c2.466-3.336,4.509.74,9.283,3.191,5.812,2.984,8.484,1.58,12.7,4.191,4.981,3.082,5.119,6.718,5.119,6.718a7.493,7.493,0,0,1,6.189.84c4.318,2.456,7.7,10.917,6.3,26.554-1.24,13.887-4.657,25-9.228,30.37s-22.478,4.964-29.3,1.642c0,0-5.708-1.685-9.782-14.455A89.343,89.343,0,0,1,359.29,149.37Z" transform="translate(-72.248 -86.617)"/><path class="h" d="M359.9,202.285a54.512,54.512,0,0,1-17.337,6.163c-7.7,1.211-12.261,1.73-15.39,5.736,0,0,11.2,12.592,13.14,35.461,1.4,16.5-3.289,24.667-3.289,24.667s2.191,9.088,6.332,15.925-4.687,31.158-6.851,39.381-4.552,19.763-4.552,19.763c.779,3.116,15.543,31.648,55.7,31.648s57.382-24.321,58.161-27.61-4.067-22.07-7.01-37.649-5.02-28.821-2.51-40.245,6.924-26.917,7.963-40.418-1.472-26.052-3.376-27.61-4.327-1.3-11.164-2.683a65.8,65.8,0,0,1-14.288-4.31s-1.984-1.4-12.282-.363-17.829,3.722-27,1.558S362.64,200.769,359.9,202.285Z" transform="translate(-71.309 -89.514)"/><path class="h" d="M445.57,209.579a17.689,17.689,0,0,0-1.056-1.831A4.786,4.786,0,0,1,445.57,209.579Z" transform="translate(-74.942 -89.761)"/><path class="i" d="M439.044,317.009c-.524-2.776-1.019-5.476-1.468-8.108l0-.006H356.656l-11.213-27.581c5.863-16.619,4.155-33.692,0-41.516l-6.526.6a75.645,75.645,0,0,1,1.634,10.482c1.4,16.5-3.289,24.667-3.289,24.667s2.191,9.088,6.332,15.925-4.687,31.158-6.851,39.381c-.8,3.031-1.429,5.66-1.871,7.93,3.029,1.926,11.948-1.7,11.948-1.7s57.415,21.172,63.561,19.577c5.126-1.329,24.489-22.277,30.782-29.2C440.418,323.956,439.686,320.406,439.044,317.009Z" transform="translate(-71.547 -90.754)"/><path class="f" d="M449.8,309.213l-28.487,30.77s-6.7,7.524-8.939,9.281-2.717,4-14.384.959-60.51-19.757-60.51-19.757a9.3,9.3,0,0,1-1.026-9.4c2.4-5.209,5.479-5.844,5.479-5.844l56.376,12.463,4.309-4.841Z" transform="translate(-71.57 -92.903)"/><g transform="translate(241.183 184.798)"><path class="f" d="M336.554,276.694s11.274,24.029,12.8,26.823,1.746,3.013,7.2,2.576,68.115-5.677,68.115-5.677l1.6,15.756s-79.7,16.947-86.123,18.4c-4.341.984-6.367-.447-9.206-5.114s-18.927-36.686-18.927-36.686Z" transform="translate(-312.023 -276.694)"/><path class="q" d="M360.362,305.781h0c-1.867.155-3.193.264-3.8.312-5.459.437-5.677.218-7.2-2.576s-12.8-26.823-12.8-26.823l-24.531,16.08s16.089,32.019,18.927,36.686,4.865,6.1,9.206,5.114c1.8-.408,9.343-2.03,19.274-4.155C363.732,322.789,361.668,310.4,360.362,305.781Z" transform="translate(-312.023 -276.694)"/></g><g transform="translate(146.405 124.593)"><path class="aa" d="M290.911,275.74s-33.193-29.873-38.837-36.4-7.76-11.322-12.7-13.3-4.656-.423-7.76,0-5.08-.141-7.619,1.834-3.951,1.693-5.785,3.244-4.373,6.277-3.951,8.218.705,8.713,10.3,9.7,13.544,3.1,13.544,3.1l36.05,49.773Z" transform="translate(-214.216 -214.89)"/><path class="ac" d="M234.912,230.972c1.063,1.733,2.155,3.978.527,5.822s-7,7.619-7,7.619-5.206,2.566-4.366-.882S234.912,230.972,234.912,230.972Z" transform="translate(-214.518 -215.073)"/><path class="ac" d="M253.585,241.065c1.513,5.406,1.585,12.729-.089,16.1s-6.239,6.82-6.239,6.82l-2.941-4.06Z" transform="translate(-215.148 -215.386)"/><path class="h" d="M325.553,214.643c-4.234,4.877-7.29,11.282-12.676,23.217s-20.087,37.555-20.087,37.555l-5.968-5.823S274.6,283.566,274.886,300.16c0,0,10.044,12.663,13.828,15.72s7.714,3.493,13.246-1.746S335.4,274.77,335.4,274.77s7.6-4.451,9.35-20.17S336.919,212.968,325.553,214.643Z" transform="translate(-216.094 -214.565)"/><path class="ad" d="M291.233,275.686c-2.531,2.255-13.207,17.529-10.643,33.257l1.218,1.431s-1.148.985-2.813-.818-7.488-7.9-8.458-9.707-.417-9.845,3.6-19.413,8.992-14.172,11.348-12.271a40.467,40.467,0,0,1,5.014,4.644c1.22,1.292,2.472,2.677,2.138,4.251Z" transform="translate(-215.947 -216.212)"/></g><path class="ae" d="M464.446,271.1c-5.349-2.879-14.6-4.237-21.612.869a15,15,0,0,0-3.791,4.139c-9.009,13.215-34.28,45.474-34.28,45.474s1.364,11.49,18.7,17.137l28.487-30.77a169.547,169.547,0,0,1,3.452,19.475c.974,9.347-4.675,48.624-4.675,48.624s4.285.062,8.18-4.612,4.466-7.4,5.544-7.4,2.214,7.236,12.77,14.837c8.381,6.035,32.233,14.225,47.2,9.476,17.149-5.44,17.2-13.378,18.178-17.077a78.612,78.612,0,0,0-7.94-11.131c-4.868-5.842-5.842-8.5-5.842-9.507s1.948-5.488,1.169-7.241-4.826-5.453-3.971-8.18,7.671-24.343,9.619-36.807,0-28.432,0-28.432Z" transform="translate(-73.711 -91.644)"/><path class="af" d="M447.875,270.017c5.647-1.593,18.532,3.309,21.7,6.4s4.588,17.06,20.345,22.762,41.363,1.891,41.363,1.891l-14.011-33.549-48.149-7.153Z" transform="translate(-75.046 -91.39)"/><path class="af" d="M532.439,314.249c1.426-5.451,2.721-10.995,3.409-15.4a87.26,87.26,0,0,0,.863-13.515c-6.534,1.3-64.239,12.751-64.642,12.35-.428-.423-22.421-12.686-22.421-12.686l-14.8-2.213c-6.772,9.333-16.6,22.143-23.113,30.556a84.4,84.4,0,0,0,11.277,5.562,37.986,37.986,0,0,0,17.286,2.306l11.867-12.817s1.131,4.622,2.164,10.5c5.924-.039,23.173-.241,41.073-1.307C514.407,316.459,528.778,314.716,532.439,314.249Z" transform="translate(-73.927 -92.085)"/><path class="ag" d="M560.92,198.475c5.786-2.126,23.227-7.038,32.438-5.933s21.984,5.9,27.143,11.422,4.79,24.195,4.79,30.582-2.935,20.947-5.214,27.545-2.893,21.336-2.524,33.372,7.861,41.144,9.335,44.583S621.335,349,610.628,353.2c-13.3,5.217-33.728,6.618-33.728,6.618l-6.755-18.792-1.351,19.4a49.719,49.719,0,0,1-16.826.491c-8.966-1.351-12.4-4.176-13.141-5.28s-3.1-32.546-1.118-50.048c0,0,15-9.764,17.33-21.555S560.92,198.475,560.92,198.475Z" transform="translate(-77.804 -89.285)"/><path class="ah" d="M578.66,205.012c4.086,3.431,10.17,8.491,10.157,19.672-.01,8.822-4.625,26.689-4.625,26.689l-8.673-2.457Z" transform="translate(-78.999 -89.676)"/><path class="ah" d="M620.688,262.091c2.278-6.6,5.213-21.159,5.213-27.545,0-5.518.272-20.2-2.98-27.653l-4.128-5c-6.035-4.618-16.785-8.39-24.825-9.355a41.994,41.994,0,0,0-10.342.445c1.57.558,5.907,4.13,7.183,6.809s5.359,4.848,10.463,3.7,4.593.611,7.4,8.535,6.634,21.2,6.634,21.2l-13.142,5.1s-29.148,14.82-44.243,22.416c-.408,5.675-.822,10.826-1.222,14.951,9.777-2.232,23.457-5.232,27.348-5.47,6.251-.383,16.714,1.02,21.946,1.914,2.951.5,8.826-2.038,13.386-4.349A34.977,34.977,0,0,1,620.688,262.091Z" transform="translate(-78.416 -89.285)"/><path class="ah" d="M578.632,272.856v-17.85l-20.968,2.751c-.888,13.018-1.823,24.21-2.616,28.222-2.333,11.791-17.33,21.555-17.33,21.555-.2,1.781-.356,3.711-.473,5.734,4.68.031,13.032-.015,17.346-.645,6.2-.908,9.829-2.722,13.458-13.878S575.418,273.459,578.632,272.856Z" transform="translate(-77.814 -91.224)"/><path class="y" d="M530.232,278.894l-62.641,9.525c-3.963.548-10.338-1.99-15.358-4.386s-5.753-3.19-11.909-3.233-11.872-2.534-13.044-.628,2,5.717,6.3,6.742,7.035,1.579,7.035,1.579-4.918-.006-9.525,0-6.779.665-8.162,2.178-1.118,4.344-2.369,5.134-2.9,2.172-2.9,4.212-3.357,3.553-3.423,5.4-.633,2.313.539,3.954,10.255,6.248,18.022,6.775,14.882-1.234,19.429-2.385c3.436-.87,5.319-1.556,13.016-1.884,5.876-.25,38.263-1.769,38.263-1.769Z" transform="translate(-73.999 -91.964)"/><path class="ai" d="M569.507,199.71c-6.529-3.357-18.622-1.534-22.523,13.363S533.091,276.4,533.091,276.4l-26.72,4.062s3.725,15.976,0,27.149c0,0,32.065-1.7,38.289-1.831s13.673-1.018,17.929-12.012,16.71-54.445,18.819-61.185S586.532,208.462,569.507,199.71Z" transform="translate(-76.858 -89.468)"/><path class="aj" d="M487.629,173.059c-10.2,2.663-19.579,11.023-22.084,24.4S464,216.809,468.82,228.18s10.363,18.888,8.287,30.837,1.773,18.715,10.521,27.2c12.469,12.1,43.741,15.047,59.381,0,14.578-14.025,2.716-34.1,2.716-34.1s10.834-9.874,8.328-20.667-6.553-13.306-15.8-18.217-14.3-15.583-16.994-22.328S511.256,166.892,487.629,173.059Z" transform="translate(-75.552 -88.646)"/><path class="ak" d="M477.5,261.76c-1.393,8.017-.107,13.7,3.525,19.137,6.684,2.764,19.819,7.513,22.852,8.068s22.441-4.179,24.369-4.036,4.263,1.117,9.468.022,7.118-4.059,7.118-4.059l8.982-2.586c1.828-6.739.357-13.44-1.244-17.943H477.7C477.636,260.826,477.585,261.284,477.5,261.76Z" transform="translate(-75.947 -91.39)"/><g transform="translate(364.25 117.856)"><path class="aa" d="M536.546,248.627s45.128-5.59,49.34-6.38,6.976-3.949,11.716-6.977,8.82-4.344,12.111-3.817,8.425.79,10,.922.79,3.159-1.843,3.949-7.767,1.58-7.371,2.106,9.214.527,10.662-.394,2.238-1.317,3.028-3.028,2.764-1.316,3.817.132a6.07,6.07,0,0,1,.658,6.582c-1.448,2.5-2.9,3.721-3.027,4.889a59.965,59.965,0,0,0,.526,6.038c.132,1.843-2.5,4.212-3.027,5.528s-.658,3.423-3.818,5.661a28.7,28.7,0,0,1-11.4,4.391c-2.9.263-14.581-1.482-19.715-1.613s-12.633,1.719-25.328,4.122c-9.85,1.864-27.654,6.472-27.654,6.472Z" transform="translate(-442.001 -208.348)"/><path class="h" d="M444.346,207.739s3.477-.887,8.021,2.045,58.482,38.255,59.508,38.841,21.693-.733,21.693-.733,3.225,16.563-1.319,28.581c0,0-22.279,3.811-25.65,4.837s-5.716.586-12.312-1.906-27.848-10.553-34.3-11.579-15.193-1.142-19.982,6.831c0,0-2.471-10.586.416-27.372C443.482,229.492,444.346,207.739,444.346,207.739Z" transform="translate(-439.022 -207.613)"/><path class="i" d="M533.517,272.383a32.675,32.675,0,0,1-1.24,4.157s-22.278,3.808-25.65,4.835-5.717.581-12.307-1.909-27.85-10.553-34.3-11.58c-6.434-1.027-15.175-1.143-19.972,6.812,2.539-11.3,6.706-26.222,7.714-39.285.853-11.1-.688-21.542-2.326-25.776a56.545,56.545,0,0,1,5.436,17.947c1.89,13.082,1.473,18.354,1.26,22.782s5.281,8.808,18.567,13.712,30.544,11.628,33.625,12.462C507.169,277.306,530.174,273.013,533.517,272.383Z" transform="translate(-439.054 -207.676)"/><path class="ad" d="M529.888,249.5c-.011-1.733,2.306-1.953,5.947-2.174s5.405-.695,6.729,1.086,2.874,9.059,2.824,16.347c-.038,5.423-1.28,12.351-3.266,13.234a22.005,22.005,0,0,1-6.177,1.434c-2.317.331-5.606.989-6.057-.829l1.535-.268a44.956,44.956,0,0,0,2.427-13.574,58.2,58.2,0,0,0-1.762-15.379Z" transform="translate(-441.835 -208.836)"/></g><path class="f" d="M605.554,199.276c-1.256.129-5.626,1.973-9.612.751s-8.444-7.842-11.814-7.292L572.9,195a18.024,18.024,0,0,1,4.758-4.373c2.819-1.678,11.3-4.119,14.345-4.941,4-1.081,8.985-2.049,11.87-.935,6.539,2.525,15.125,7.639,16.5,9.319s30.709,43.237,35.14,49.2,9.166,13.6,7.791,23.987-4.583,13.037-7.944,13.852-15.278-6.06-19.1-11.408-25.362-61.723-26.583-64.626S606.961,199.132,605.554,199.276Z" transform="translate(-78.918 -89.034)"/><path class="m" d="M314.884,337.421l-.64,4.274a20.712,20.712,0,0,1-5.835.759c-2.108-.253-2.987-.879-2.451-1.55s3.917-2.4,5.609-3.852c3.7-3.165,3.68-7.751,1.152-6.8-1.46.551-2.69,1.582-4.572,1.931-2.077.385-3.931.957-7.338,1.622a17.6,17.6,0,0,0-7.354,3.341,5.433,5.433,0,0,1-4.269,1.491c-4.7-1.611-14.56-4.967-23.842-8.129h0c-9.873-3.363-19.092-6.5-20.757-7.083-3.714-1.292-4.64-2.488-5.179-5.091-1.082-5.229-4.168-15.972-4.168-15.972L217.62,328.708a59.542,59.542,0,0,0,2.419,9.1c1.938,5.814,4.522,8.075,9.045,8.56,2.395.257,16.56,2.913,30.224,5.644h0s24.094,5.176,30.227,6.755,12.036,2.581,15.76,1.943a10.851,10.851,0,0,0,6.851-4.651c.875-1.265,1.726-1.143,3.937-2.652s.932-4.941,1.8-6.384c1.016-1.681,2.017-2.415,1.894-5.177S314.884,337.421,314.884,337.421Z" transform="translate(-67.917 -92.691)"/><path class="f" d="M125.205,222.3s11.252,27.121,12.224,29.242,3.033,1.886,16.377,1.414,41.62-1.649,45.391-2.828,4.949-3.534,6.834-6.834,3.535-5.891,11.547-8.483,12.6-5.662,13.431-4.111c.454.846,1.193,3.186-1.985,5.682s-7.7,5.773-7.079,6.553,18.517-3.032,21.061-5.148,1.582-3.367,1.582-3.367a3.217,3.217,0,0,1,3.41,1.5c1.248,2.028,1.46,8.966.964,12.128s-1.12,7.529-5.021,11.118-10.465,6.933-16.466,8.476c-4.828,1.241-11.631.531-20.367,2.558s-40,9.277-56.83,13.077c-15.181,3.427-31.533,7.143-36.134,5.583s-9.673-11.441-16.225-29.85Z" transform="translate(-64.21 -90.212)"/><path class="al" d="M92.427,184.341c-6,2.586-14.61,11.074-8.247,37.113S95.49,259.041,95.49,259.041,120,263.282,133.9,241.132c-.236-1.414-7.306-21.2-13.667-36.052S106.094,178.45,92.427,184.341Z" transform="translate(-63.715 -88.988)"/><path class="i" d="M360.945,202.218s8.037,1.256,12.332,3.728,9.007,3.519,16.234,3.309a36.08,36.08,0,0,0,16.339-4.4c4.4-2.2,7.53-4.652,10.625-4.421,0,0-1.618-2.857-27.069-2.857S360.945,202.218,360.945,202.218Z" transform="translate(-72.355 -89.446)"/><path class="h" d="M387.75,192.893c-6.57.313-11.532-1.746-14.93-2.293s-7.226,1.367-11.876,11.35a32.1,32.1,0,0,1,9.846.957c5.2,1.367,10.407,3.112,17.919,2.712,9.167-.487,14.492-3.04,18.709-4.089a46.263,46.263,0,0,1,9.056-1.363s-7.438-13.34-14.2-10.935C397.293,191,393.494,192.619,387.75,192.893Z" transform="translate(-72.355 -89.179)"/><path class="g" d="M362.924,339.448,394.15,327.2l-5.448-1.2h-.266l-40.053,8.563C352.546,335.966,357.606,337.672,362.924,339.448Z" transform="translate(-71.966 -93.423)"/><path class="al" d="M110.318,171.694s4.785,8.222,11.952,12.063a28.646,28.646,0,0,0,15.385,3.524l3.041,3.9s-9.057,2.194-19.571-3.287c-9.875-5.148-13.369-12.864-13.369-12.864Z" transform="translate(-64.515 -88.645)"/><g transform="translate(118.839 183.297)"><path class="r" d="M230.24,353.7l4.389-.8v-5.634C233.313,349.26,231.844,351.414,230.24,353.7Z" transform="translate(-187.146 -277.378)"/><path class="r" d="M210.843,336.393c2.49-3.487,23.413-34.87,23.413-34.87a73.121,73.121,0,0,1-3.2-26.378,69.053,69.053,0,0,0-3.188,26.693s-16.551,27.114-20.9,30.454-21.192,1.278-21.192,1.278,7.97,2.657,14.612,4.317S208.351,339.88,210.843,336.393Z" transform="translate(-185.769 -275.145)"/></g><path class="n" d="M237.326,309.9l-17.847,25.763-1.859-6.954,17.622-26.342Z" transform="translate(-67.917 -92.691)"/><path class="am" d="M152.822,182.477s12.924.043,21.368-13.755c0,0-3.913,17.465-21.9,16.331C152.447,184.129,152.631,183.269,152.822,182.477Z" transform="translate(-65.894 -88.553)"/><path class="l" d="M656.8,348.688c1.471,6.766,3.677,16.72,5,17.994s19.635,3.613,19.635,3.613l.322-1.674s-16.018-2.226-18.1-3.045C662.265,365.026,658.422,353.984,656.8,348.688Z" transform="translate(-81.516 -94.125)"/><path class="w" d="M564.054,404.443a287.215,287.215,0,0,1-2.7-39.807h-2.217s-2.009,13.171,2.168,39.807Z" transform="translate(-78.477 -94.619)"/><path class="l" d="M151.827,379.914s-3.11,11.453-3.11,15.1,8.084,8.831,9.95,8.623,15.96-3.11,17.825-5.182,3.939-22.386,3.939-22.386-3.847,19.67-5.137,20.915-13.938,4.911-16.228,4.7-8.484-5.2-8.484-6.893S151.827,379.914,151.827,379.914Z" transform="translate(-65.783 -94.973)"/><path class="l" d="M129.782,373.734c-3.073,6.828-5.69,16.046-6.714,17.526s-12.133,2.336-12.133,2.336l.492-2.143s7.133-.648,8.932-.989,2.254-1.875,3.278-4.295S129.782,373.734,129.782,373.734Z" transform="translate(-64.613 -94.901)"/><path class="d" d="M78.46,404.216,90.675,357.3h1.806L80.8,404.216Z" transform="translate(-63.608 -94.392)"/><path class="d" d="M89.226,369.869c8.435,1.117,20.262-.473,24.574-14.325l.249,3.014s-1.58,7.551-8.179,10.9a25.046,25.046,0,0,1-17.261,1.951Z" transform="translate(-63.922 -94.338)"/><path class="w" d="M573.432,370.031c1.07,8.505,2.237,17.51,4.4,19.381s17.507,2.871,19.584,2.121,8.074-6.956,8.2-9.226-2.7-20.767-2.7-20.767.647,18.311.474,20.174-4.9,7.326-7.147,7.7-14.747.44-16.5-1.594S573.432,370.031,573.432,370.031Z" transform="translate(-78.934 -94.523)"/><path class="l" d="M648.245,343.14s3.829,14.956,6.244,28.534,3.6,32.1,3.6,32.1h-2.362a238.387,238.387,0,0,0-3.345-32.1c-2.952-16.333-6.3-28.534-6.3-28.534Z" transform="translate(-81.184 -93.954)"/><path class="w" d="M613.977,361.97c2.01,11.873,3.357,21.829,1.642,30.683s-2.2,11.694-2.2,11.694h1.494s1.689-8.961,2.546-13.49.611-11.877-2.019-29.318Z" transform="translate(-80.172 -94.523)"/><path class="w" d="M624.486,357.433c1.121,7.473,2.117,16.067,2.99,18.059s6.682,3.749,6.682,3.749l-.031,1.609s-6.4-1.282-8.271-4.316S624.486,357.433,624.486,357.433Z" transform="translate(-80.513 -94.396)"/></g></g></svg>