<svg xmlns="http://www.w3.org/2000/svg" width="387.724" height="387.417" viewBox="0 0 387.724 387.417"><defs><style>.a{fill:#c3da40;}.b{fill:#ff62a7;}.c{fill:#fc5479;}.d{fill:#31d2f7;}.e{fill:#13ace8;}.f{fill:#ffcf59;}.g{fill:#adbc15;}.h{fill:#ffb55c;}.i{fill:#fad393;}.j{fill:#edb769;}</style></defs><g transform="translate(0 -0.202)"><path class="a" d="M94.067,147.068H19.216a5.889,5.889,0,0,1-5.889-5.889V124.655A43.315,43.315,0,0,1,56.642,81.34h0a43.315,43.315,0,0,1,43.315,43.315v16.523A5.891,5.891,0,0,1,94.067,147.068Z" transform="translate(-3.235 -19.694)"/><path class="b" d="M165.374,331.871c-8.391-5.54-13.782-11.891-16.023-18.877a38.59,38.59,0,0,1-23.24-35.8c0-21.344,16.82-38.709,37.5-38.709h47.72c20.675,0,37.5,17.365,37.5,38.709S232,315.9,211.327,315.9h-37a37.15,37.15,0,0,0,.382,9.888L176.42,335.9a1.615,1.615,0,0,1-2.482,1.618Z" transform="translate(-30.61 -57.837)"/><path class="c" d="M255.991,277.194c0-21.344-16.82-38.709-37.5-38.709h-47.72a36.269,36.269,0,0,0-15.128,3.3c1.992,32.045,29.213,57.076,61.658,57.076h32.244A39.363,39.363,0,0,0,255.991,277.194Z" transform="translate(-37.78 -57.838)"/><path class="d" d="M277.909,290.138a45.386,45.386,0,0,0,1.038-15H232.616c-26.054,0-47.8-20.689-48.193-46.741A47.53,47.53,0,0,1,231.9,180.178h59.891c26.109,0,47.833,20.8,48.139,46.908a47.3,47.3,0,0,1-29.47,44.5c-3.894,11.791-14.971,20.2-23.6,25.179l-8.889,5.133a1.615,1.615,0,0,1-2.382-1.764Z" transform="translate(-44.763 -43.685)"/><path class="e" d="M223.23,241.29A47.53,47.53,0,0,1,270.7,193.075h54a48.413,48.413,0,0,0-32.917-12.9H231.9a47.53,47.53,0,0,0-47.472,48.215c.4,26.051,22.139,46.741,48.193,46.741h5.854A46.921,46.921,0,0,1,223.23,241.29Z" transform="translate(-44.763 -43.685)"/><path class="f" d="M464.55,147.068H389.7a5.889,5.889,0,0,1-5.889-5.889V124.655A43.315,43.315,0,0,1,427.125,81.34h0a43.315,43.315,0,0,1,43.315,43.315v16.523A5.892,5.892,0,0,1,464.55,147.068Z" transform="translate(-93.161 -19.694)"/><path class="b" d="M94.067,452.6H19.216a5.89,5.89,0,0,1-5.889-5.89V430.183a43.315,43.315,0,0,1,43.315-43.315h0a43.315,43.315,0,0,1,43.315,43.315v16.523A5.892,5.892,0,0,1,94.067,452.6Z" transform="translate(-3.235 -93.854)"/><path class="d" d="M464.55,452.6H389.7a5.89,5.89,0,0,1-5.889-5.89V430.183a43.315,43.315,0,0,1,43.315-43.315h0a43.315,43.315,0,0,1,43.315,43.315v16.523A5.892,5.892,0,0,1,464.55,452.6Z" transform="translate(-93.161 -93.854)"/><path class="g" d="M46.611,141.178V124.655a43.325,43.325,0,0,1,26.673-40A43.176,43.176,0,0,0,56.641,81.34h0a43.315,43.315,0,0,0-43.315,43.315v16.523a5.89,5.89,0,0,0,5.89,5.889H52.5A5.889,5.889,0,0,1,46.611,141.178Z" transform="translate(-3.235 -19.694)"/><path class="h" d="M417.093,141.178V124.655a43.324,43.324,0,0,1,26.673-40,43.176,43.176,0,0,0-16.643-3.318h0a43.315,43.315,0,0,0-43.315,43.315v16.523a5.89,5.89,0,0,0,5.89,5.889h33.284A5.889,5.889,0,0,1,417.093,141.178Z" transform="translate(-93.16 -19.694)"/><path class="c" d="M46.611,446.705V430.182a43.324,43.324,0,0,1,26.673-40,43.176,43.176,0,0,0-16.643-3.318h0a43.315,43.315,0,0,0-43.315,43.315v16.523a5.89,5.89,0,0,0,5.89,5.89H52.5A5.889,5.889,0,0,1,46.611,446.705Z" transform="translate(-3.235 -93.854)"/><path class="e" d="M417.093,446.705V430.182a43.324,43.324,0,0,1,26.673-40,43.176,43.176,0,0,0-16.643-3.318h0a43.315,43.315,0,0,0-43.315,43.315v16.523a5.89,5.89,0,0,0,5.89,5.89h33.284A5.889,5.889,0,0,1,417.093,446.705Z" transform="translate(-93.16 -93.854)"/><path class="f" d="M183.065,387.619c-.12,0-.242,0-.363-.011a194.918,194.918,0,0,1-22.388-2.578,6.308,6.308,0,1,1,2.17-12.428,182.2,182.2,0,0,0,20.933,2.41,6.308,6.308,0,0,1-.352,12.606Zm21.793-.011A6.307,6.307,0,0,1,204.5,375a182.6,182.6,0,0,0,20.933-2.432A6.308,6.308,0,0,1,227.613,385a194.917,194.917,0,0,1-22.385,2.6Q205.043,387.608,204.858,387.608Zm-64.68-7.477a6.3,6.3,0,0,1-1.805-.265,193.314,193.314,0,0,1-21.2-7.7,6.308,6.308,0,0,1,4.995-11.584,180.882,180.882,0,0,0,19.81,7.2,6.308,6.308,0,0,1-1.8,12.353Zm107.563-.057a6.309,6.309,0,0,1-1.808-12.353,180.474,180.474,0,0,0,19.794-7.215,6.307,6.307,0,1,1,5.007,11.579,193.287,193.287,0,0,1-21.182,7.721A6.323,6.323,0,0,1,247.741,380.074ZM17.629,264.7a6.308,6.308,0,0,1-5.926-4.146,193.25,193.25,0,0,1-6.478-21.594A6.308,6.308,0,1,1,17.5,236.047a180.249,180.249,0,0,0,6.053,20.178,6.315,6.315,0,0,1-5.925,8.474Zm352.529-.175a6.312,6.312,0,0,1-5.928-8.466,180.82,180.82,0,0,0,6.035-20.2,6.308,6.308,0,0,1,12.279,2.9,193.1,193.1,0,0,1-6.46,21.613A6.31,6.31,0,0,1,370.158,264.523ZM7.572,222.338a6.308,6.308,0,0,1-6.257-5.577A196.461,196.461,0,0,1,0,194.268a6.308,6.308,0,0,1,6.3-6.314h.007a6.307,6.307,0,0,1,6.307,6.3A184.1,184.1,0,0,0,13.844,215.3a6.307,6.307,0,0,1-5.534,7A6.229,6.229,0,0,1,7.572,222.338Zm372.6-.2a6.313,6.313,0,0,1-6.274-7.033,183.947,183.947,0,0,0,1.208-21.043v-.4a6.307,6.307,0,0,1,12.615,0v.4a196.645,196.645,0,0,1-1.292,22.492A6.307,6.307,0,0,1,380.175,222.139ZM7.543,178.8a6.374,6.374,0,0,1-.726-.042,6.306,6.306,0,0,1-5.549-6.984,194.14,194.14,0,0,1,3.863-22.206,6.308,6.308,0,0,1,12.283,2.884A181.3,181.3,0,0,0,13.8,173.213,6.311,6.311,0,0,1,7.543,178.8Zm372.57-.594a6.308,6.308,0,0,1-6.256-5.571,181.438,181.438,0,0,0-3.677-20.746,6.308,6.308,0,1,1,12.272-2.925,193.951,193.951,0,0,1,3.934,22.194,6.308,6.308,0,0,1-5.527,7A6.091,6.091,0,0,1,380.113,178.209ZM99.862,38.041a6.309,6.309,0,0,1-3.171-11.764A193.828,193.828,0,0,1,116.8,16.123,6.308,6.308,0,0,1,121.822,27.7a181.337,181.337,0,0,0-18.8,9.491A6.284,6.284,0,0,1,99.862,38.041Zm187.506-.284a6.283,6.283,0,0,1-3.144-.844,181.281,181.281,0,0,0-18.844-9.441,6.308,6.308,0,1,1,4.981-11.59,193.788,193.788,0,0,1,20.162,10.1,6.309,6.309,0,0,1-3.155,11.774ZM139.79,20.731a6.309,6.309,0,0,1-1.814-12.35,193.417,193.417,0,0,1,21.932-5.214A6.308,6.308,0,1,1,162.1,15.591a180.429,180.429,0,0,0-20.495,4.872A6.318,6.318,0,0,1,139.79,20.731Zm107.572-.173a6.292,6.292,0,0,1-1.8-.263,180.784,180.784,0,0,0-20.511-4.806,6.308,6.308,0,0,1,2.155-12.43A193.465,193.465,0,0,1,249.155,8.2a6.309,6.309,0,0,1-1.793,12.356Zm-64.706-7.412a6.307,6.307,0,0,1-.366-12.6C186.116.316,190,.2,193.842.2h.021c3.646,0,7.333.1,10.955.305a6.308,6.308,0,1,1-.7,12.6c-3.389-.189-6.839-.285-10.253-.285h-.019c-3.593,0-7.23.107-10.811.318C182.907,13.143,182.78,13.146,182.656,13.146Z"/><g transform="translate(24.964 30.166)"><path class="i" d="M61.034,95.91A28.07,28.07,0,1,1,89.1,67.84,28.1,28.1,0,0,1,61.034,95.91Z" transform="translate(-32.965 -39.77)"/><path class="i" d="M431.516,95.91a28.07,28.07,0,1,1,28.07-28.07A28.1,28.1,0,0,1,431.516,95.91Z" transform="translate(-122.891 -39.77)"/><path class="i" d="M61.034,401.439a28.07,28.07,0,1,1,28.07-28.07A28.1,28.1,0,0,1,61.034,401.439Z" transform="translate(-32.965 -113.93)"/><path class="i" d="M431.516,401.439a28.07,28.07,0,1,1,28.07-28.07A28.1,28.1,0,0,1,431.516,401.439Z" transform="translate(-122.891 -113.93)"/></g><g transform="translate(24.963 30.166)"><path class="j" d="M59.474,67.841A28.093,28.093,0,0,1,74.288,43.105a28.07,28.07,0,1,0,0,49.47A28.09,28.09,0,0,1,59.474,67.841Z" transform="translate(-32.964 -39.77)"/><path class="j" d="M429.957,67.841a28.093,28.093,0,0,1,14.815-24.736,28.07,28.07,0,1,0,0,49.47A28.092,28.092,0,0,1,429.957,67.841Z" transform="translate(-122.89 -39.77)"/><path class="j" d="M59.474,373.369a28.093,28.093,0,0,1,14.815-24.735,28.07,28.07,0,1,0,0,49.47A28.088,28.088,0,0,1,59.474,373.369Z" transform="translate(-32.964 -113.93)"/><path class="j" d="M429.957,373.369a28.093,28.093,0,0,1,14.815-24.735,28.07,28.07,0,1,0,0,49.47A28.09,28.09,0,0,1,429.957,373.369Z" transform="translate(-122.89 -113.93)"/></g></g></svg>