<svg xmlns="http://www.w3.org/2000/svg" width="63" height="63" viewBox="0 0 63 63"><defs><style>.a{fill:#05a8aa;}.b{fill:#011627;}</style></defs><g transform="translate(0.253 0.174)"><circle class="a" cx="31.5" cy="31.5" r="31.5" transform="translate(-0.253 -0.174)"/><g transform="translate(13.421 13.963)"><path class="b" d="M25.325,0H9.652A9.663,9.663,0,0,0,0,9.653V25.325a9.663,9.663,0,0,0,9.652,9.653H25.325a9.664,9.664,0,0,0,9.653-9.653V9.653A9.663,9.663,0,0,0,25.325,0Zm6.55,25.325a6.557,6.557,0,0,1-6.549,6.549H9.652A6.556,6.556,0,0,1,3.1,25.325V9.653A6.557,6.557,0,0,1,9.652,3.1H25.325a6.557,6.557,0,0,1,6.549,6.549V25.325Z" transform="translate(0)"/><path class="b" d="M49.041,40.97a8.073,8.073,0,1,0,8.073,8.073A8.082,8.082,0,0,0,49.041,40.97Zm0,13.366a5.293,5.293,0,1,1,5.293-5.293A5.3,5.3,0,0,1,49.041,54.336Z" transform="translate(-31.552 -31.554)"/><path class="b" d="M121.449,28.251a2.527,2.527,0,1,0,1.788.74A2.538,2.538,0,0,0,121.449,28.251Z" transform="translate(-94.725 -22.503)"/></g></g></svg>