<svg xmlns="http://www.w3.org/2000/svg" width="387.447" height="387" viewBox="0 0 387.447 387"><defs><style>.a{fill:#2d404e;}.b{fill:#48b19b;}.c{fill:#253744;opacity:0.6;}</style></defs><circle class="a" cx="193.5" cy="193.5" r="193.5"/><path class="b" d="M494.57,222.119a192.805,192.805,0,0,0-31.151-105.394s-11.051,16.144-8.975,26.521,14.268,11.171,13.016,18.784-10.247-2.179-21.319,17.884-5.533,47.747,10.378,49.819S494.57,222.119,494.57,222.119Z" transform="translate(-107.123 -28.395)"/><path class="b" d="M321.794,8.92A192.89,192.89,0,0,1,383.737,38.4s-22.463-3.7-30.972,3.9-20.918,25.6-30.972,0S321.794,8.92,321.794,8.92Z" transform="translate(-77.195 -2.17)"/><path class="b" d="M63.519,66A193.257,193.257,0,0,1,209.176,0S196.033,7.958,220.94,21.449s13.491,19.718,8.3,23.87-14.188-8.3-20.066-16.6-31.126-21.1-50.5-14.181S122.7,26.566,125.467,33s35.974-6.012,48.428-5.324,8.3,8.3-3.457,17.294-13.147,20.064-.693,26.982,27.671,7.613,31.134,3.463-6.227-31.134,17.3-19.374,42.9,18.684,23.525,35.979-41.512,36.672-42.205,47.738,6.921,20.069,2.77,20.757-7.962-4.5-10.727-8.3-15.567-5.187-21.793-2.768-17.991,11.76-11.416,20.756,15.562,4.84,24.559,8.992,17.384,19.951,15.661,23.522-9.39-.95-15.661-13.144-18.037-4.151-26.314-6.227-14.505-3.458-22.808-17.988-25.492-18.594-32.516-26.982c-20.121-24.026-18.681-42.2-22.832-50.506S63.519,66,63.519,66Z" transform="translate(-15.452)"/><path class="b" d="M272.983,259.505s20.756,2.072,31.134,11.069,11.764,12.457,27.676,15.915,22.832,12.449,12.454,29.748-29.062,44.973-38.054,53.276-20.062,15.222-24.214,29.059-5.537,22.133,3.458,27.672c0,0-4.84,11.763-15.911-3.458s-2.076-33.209,0-43.588,7.609-41.508,4.15-49.122-19.373-12.457-23.525-28.367S253.266,254.832,272.983,259.505Z" transform="translate(-60.58 -63.014)"/><path class="c" d="M74.98,56.742c75.654-75.656,198.311-75.654,273.966,0s75.655,198.311,0,273.965c0,0,87.893-116.227-36.545-240.665S74.98,56.742,74.98,56.742Z" transform="translate(-18.24 0)"/></svg>