<svg xmlns="http://www.w3.org/2000/svg" width="155.89" height="159.205" viewBox="0 0 155.89 159.205"><defs><style>.a{fill:#05a8aa;}.b{fill:#06989a;}.c{fill:#ec5569;}.d{fill:#fff5f5;}.e{fill:#dce6eb;}</style></defs><g transform="translate(-5.332)"><path class="a" d="M131.912,0H34.641A29.309,29.309,0,0,0,5.332,29.309v63.8a29.309,29.309,0,0,0,29.309,29.309H48.6a1.2,1.2,0,0,1,1.2,1.2v31.47a4.108,4.108,0,0,0,7.1,2.814l33.019-35.108a1.2,1.2,0,0,1,.876-.379h41.114a29.309,29.309,0,0,0,29.309-29.309v-63.8A29.309,29.309,0,0,0,131.912,0Z" transform="translate(0)"/><path class="b" d="M62.134,119.99a1.218,1.218,0,0,0-1.164-1.266H47.455c-15.671,0-28.374-13.818-28.374-30.864V20.677a33.444,33.444,0,0,1,1.045-8.324A29.3,29.3,0,0,0,5.332,37.821v63.8a29.309,29.309,0,0,0,29.309,29.309H48.6a1.2,1.2,0,0,1,1.2,1.2V163.6a4.108,4.108,0,0,0,7.1,2.814l5.23-5.561V119.99Z" transform="translate(0 -8.512)"/><path class="c" d="M203.587,109.958h0a19.055,19.055,0,0,0-26.948,0l-4.2,4.2a2.567,2.567,0,0,1-3.63,0l-4.136-4.136a19.055,19.055,0,0,0-26.948,0h0a19.055,19.055,0,0,0,0,26.948l31.086,31.086a2.567,2.567,0,0,0,3.63,0l31.148-31.154A19.055,19.055,0,0,0,203.587,109.958Z" transform="translate(-87.378 -71.921)"/><path class="d" d="M203.587,109.958h0a19.055,19.055,0,0,0-26.948,0l-4.2,4.2a2.567,2.567,0,0,1-3.63,0l-4.136-4.136a19.055,19.055,0,0,0-26.948,0h0a19.055,19.055,0,0,0,0,26.948l31.086,31.086a2.567,2.567,0,0,0,3.63,0l31.148-31.154A19.055,19.055,0,0,0,203.587,109.958Z" transform="translate(-87.378 -71.921)"/><path class="e" d="M147.69,137.132a19.055,19.055,0,0,1,0-26.948h0a18.957,18.957,0,0,1,8.49-4.915,19.042,19.042,0,0,0-18.457,4.915h0a19.055,19.055,0,0,0,0,26.948l31.086,31.086a2.567,2.567,0,0,0,3.63,0l3.169-3.169Z" transform="translate(-87.378 -72.08)"/></g></svg>