<svg xmlns="http://www.w3.org/2000/svg" width="692.966" height="444.033" viewBox="0 0 692.966 444.033"><defs><style>.a,.p,.t{fill:#fff;}.b{fill:#485c82;opacity:0.16;}.c{fill:#e8d9d0;}.d{fill:#f5dc77;}.e{fill:#d1923a;}.f{fill:#d69c53;}.g{fill:#363535;}.h{fill:#e1c9a9;}.i{fill:#a1646a;}.j{fill:#3a332c;}.k{fill:#6e6255;}.l{fill:#514842;}.m{fill:#69a5dc;}.n{fill:#9db74c;}.o{fill:#a9c14b;}.p{opacity:0.07;}.q{fill:#c7d79b;}.r{opacity:0.08;}.s{fill:#9fcbde;}.t{opacity:0.47;}.u{fill:#806139;}.v{fill:#e5b7b0;}.w{fill:#e3e0e0;}.x{fill:#efecec;}.y{fill:#e99a2e;}.z{fill:#656464;}.aa{fill:#bfae93;}.ab{fill:#2f2925;}.ac{fill:none;}.ad{fill:#699487;}.ae{fill:#86ab92;}.af{fill:#cde1e9;}.ag{fill:#202020;}.ah{fill:#e1c99d;}.ai{fill:#465c82;}.aj{fill:#6e6360;}.ak{fill:#769f92;}.al{fill:#6e8077;}</style></defs><g transform="translate(-5180.655 -8111.975)"><path class="a" d="M403.844,194.756c-2.476,107.466-120.84,211.386-194.6,194.6-36.249-8.249-33.062-39.124-89.267-62.487C64.951,304,31.574,320.986,11.069,296.521c-21.687-25.876-6.548-71.361,3.571-101.764,4.734-14.227,65.4-188.693,194.6-194.6,44.382-2.03,79.97,16.6,91.993,23.074,52.107,28.053,75.856,72.083,84.081,89.717C389.979,122.937,404.75,155.44,403.844,194.756Z" transform="translate(5873.621 8499.318) rotate(172)"/><g transform="translate(5180.655 8174.546)"><path class="b" d="M630.957,694.774q.327-.413.637-.834c11.2-15.239-7.534-20.971-25.05-23.926a728.3,728.3,0,0,0-103.3-9.889q-17.567-.451-35.139-.827c-48.027-1.735-96.392-3.594-144.385-3.292-22.686.143-45.578-1.928-68.328-2.044-22.8-.116-45.613.4-68.334,1.776-31.99,1.939-64.731,5.581-96.061,11.71-20.3,3.971-65.089,8.679-60.638,30.03,1.538,7.382,9.069,13.629,18.178,17.269,12.809,5.12,27.788,5.6,42.081,6.131q25.824.968,51.666,1.647c75.623,1.984,151.61,3.111,227.281,2.145q8.163-.078,16.324-.188c33.827-.459,68.574-1.672,102.724-2.937,32.279-1.2,65.472-1.77,97.138-6.743C603.341,712.041,621.689,706.473,630.957,694.774Z" transform="translate(-30.054 -343.559)"/><g transform="translate(382.911 115.883)"><path class="c" d="M702.478,408.17c-1.763-1.329-3.464-2.74-5.118-3.909a71.44,71.44,0,0,1-11.573-9.8c-1.66-1.807-3.3-4.313-2.492-6.508.642-1.741,2.664-2.465,4.483-2.193a14.883,14.883,0,0,1,5.135,2.282c4.505,2.669,9.191,5.028,13.661,7.757,3.759,2.3,8.536,4.755,9.962,9.39a5.908,5.908,0,0,1-.749,5.25c-1.57,2.048-4.518,2.357-6.788,1.556A25.241,25.241,0,0,1,702.478,408.17Z" transform="translate(-682.711 -348.64)"/><path class="c" d="M700.619,332.593a3.778,3.778,0,0,0,.3-.311,1.468,1.468,0,0,0,.336-1.612c-.953-1.584-3.55,1.469-3-1.33.15-.764,3.181-4.457,2.931-4.855-1.278-2.035-4.479-2.748-6.183-.715a11.725,11.725,0,0,0-2.01,5.025c-.44,2.041-.488,4.2-.978,6.213a22.115,22.115,0,0,1-2.142,4.67c-3.5,6.858-7.843,14.494-7.4,22.237.136,2.368.651,3.337,2.675,3.925,1.967.572,4.268.723,6.017-.837,1.614-1.439,2.081-3.758,2.444-5.879.548-3.2,1.362-6.488,1.721-9.674.341-3.031-.152-5.991.715-9.011a22.742,22.742,0,0,1,3.577-6.939A13.256,13.256,0,0,1,700.619,332.593Z" transform="translate(-682.448 -322.555)"/><path class="d" d="M727.2,428.136a20.893,20.893,0,0,1-18.017-4.92c1.473-4.655,4.816-7.431,7.327-11.372.82-1.286,1.568-2.624,2.315-3.96,1.23-2.2,3.648-8.829,6.873-6.348,1.618,1.245,2.383,3.046,3.782,4.417,1.856,1.82,4.448,2.74,6.286,4.693a10.007,10.007,0,0,1,2.986,8c-.476,3.34-3.182,5.965-6.151,7.566A19.22,19.22,0,0,1,727.2,428.136Z" transform="translate(-693.491 -354.954)"/></g><g transform="translate(381.245 126.827)"><g transform="translate(33.637)"><path class="e" d="M779.369,354.5a41.626,41.626,0,0,1,.066,4.174c-.033,1.536-.6,3.042-.285,4.585a15.69,15.69,0,0,0,1.123,2.789,9.554,9.554,0,0,1-1.129,9.17c-.659.888-1.475,1.66-2.048,2.606a14.935,14.935,0,0,0-1.454,5.207c-.346,1.879-1.263,3.241-1.825,4.993a15.767,15.767,0,0,0-.1,7.748,4.02,4.02,0,0,1,.082,1.8,1.872,1.872,0,0,1-1.953,1.177c-10.045.311-19.995-1.111-29.9-2.531.778.112.832-7.151.784-7.733a40.278,40.278,0,0,0-1.666-8.589,12.89,12.89,0,0,1-.9-4.407c.11-2.138,1.445-4.252.812-6.3-.565-1.822-2.179-3.233-2.241-5.25-.069-2.247,1.613-4.478,2.919-6.149a22.911,22.911,0,0,0,2.983-4.352c.628-1.365.646-2.657,1.439-3.954a20.313,20.313,0,0,1,6.67-6.509,12.117,12.117,0,0,1,3.151-1.452,12.428,12.428,0,0,1,4.119-.276,82.814,82.814,0,0,1,9.2,1.554,12.936,12.936,0,0,1,8,5.451A13.133,13.133,0,0,1,779.369,354.5Z" transform="translate(-737.664 -341.202)"/><g transform="translate(0 1.259)"><path class="c" d="M743.337,365.074a3.16,3.16,0,0,1,3.131-1.28,2.918,2.918,0,0,1,1.457.764,27.5,27.5,0,0,1,1.948-5.678,11.245,11.245,0,0,1,2.23-3.374,9.78,9.78,0,0,1,2.992-1.872,17.021,17.021,0,0,1,11.8-.528c5.378,1.743,8.318,5.135,9.408,9.74a20.569,20.569,0,0,1,.492,5.165c0,.076,0,.154-.006.231a3.105,3.105,0,0,1,1.167-.147,3.16,3.16,0,0,1,2.674,2.072,4.249,4.249,0,0,1-.333,3.456,6.558,6.558,0,0,1-2.531,2.468,4.075,4.075,0,0,1-2.058.634c-1.068,4.2-3.089,8.12-6.774,10.186-2.543,1.426-2.625,2.1-3,5.146-.193,1.565-.713,3.29-2.108,4.027a5.047,5.047,0,0,1-2.43.424,23.208,23.208,0,0,1-3.392-.284,4.107,4.107,0,0,1-2.38-.98c-.938-.97-.812-2.516-.61-3.85.552-3.656.462-3.21-2.032-5.375a14.179,14.179,0,0,1-3.62-5.161,25.631,25.631,0,0,1-2.027-8.144,1.41,1.41,0,0,1-.546.072,3.593,3.593,0,0,1-2.281-1.239,6.568,6.568,0,0,1-1.777-3.056A4.249,4.249,0,0,1,743.337,365.074Z" transform="translate(-739.27 -347.044)"/><path class="f" d="M752.221,356.3a8.52,8.52,0,0,1-1.163,2.237c-1.289,1.643-3.139,2.821-4.235,4.6-1.417,2.3-1.339,5.2-1.047,7.884a64.343,64.343,0,0,0,1.159,7.01,4.765,4.765,0,0,1,.255,2.588c-.234.728-.925,1.189-1.22,1.888-1.035,2.452,1.78,5.663,3.913,6.654a17.581,17.581,0,0,1-9.261,5.1c-1.493.3-2.926-5.437-3.179-6.317a12.047,12.047,0,0,1,.644-8.73c.817-1.667,2.013-3.119,2.915-4.742a15.251,15.251,0,0,0,1.9-7.929,30.175,30.175,0,0,1-.185-4.995,14.34,14.34,0,0,1,.983-3.331,28.64,28.64,0,0,1,5.019-9.065c2.2-2.419,5.853-4.7,9.205-3.777a9.029,9.029,0,0,1,4.8,3.134c.751.987,2.9,3.805.355,4.179a24.891,24.891,0,0,1-4.148.066,10.5,10.5,0,0,0-4.092.538A4.435,4.435,0,0,0,752.221,356.3Z" transform="translate(-736.919 -344.099)"/><path class="f" d="M783.071,354.146c1.891.7,5.054,1.808,5.051,4.153,0,2.385-1.516,4.462-1.042,7.017a13.856,13.856,0,0,0,1.6,3.571c.983,1.945,1.461,4.33.494,6.283-.991,2-3.289,3.157-4.106,5.234-.88,2.236.232,4.8-.25,7.15-.408,2-.321,3.206,1.732,4.192a8.427,8.427,0,0,1,2.928,1.9c.214.251,1.525,3.191.758,3.251,2.212-.173,4.794-.578,5.832-2.537a4.337,4.337,0,0,0,.084-3.5,10.338,10.338,0,0,0-1.941-3.016,6.264,6.264,0,0,1-1.173-1.7,4.8,4.8,0,0,1,.661-3.965,15.655,15.655,0,0,0,1.88-3.689c1.005-4.072-2.743-6.658-3.872-10.145-1.667-5.148,3.281-10.61,1.935-15.851a12.2,12.2,0,0,0-2.463-4.374c-1.6-2.034-3.523-4.046-6.044-4.641-3.235-.763-6.212,1.713-7.958,4.124a18.285,18.285,0,0,0-1.262,2c-.661,1.22-.855,1.194.2,1.933,1.767,1.233,4.719,1.767,6.747,2.526Z" transform="translate(-752.804 -343.347)"/></g></g><g transform="translate(58.35 154.242)"><path class="c" d="M779.024,606.033l1.008,17.2,9.842,40.635,7.417-1.833-4.281-40.279L797.493,604Z" transform="translate(-779.024 -603.996)"/><g transform="translate(7.69 56.202)"><path class="g" d="M794.454,702.487c.367,1.2.653,2.6.09,3.577-.616,1.072-1.974,1.475-2.339,2.8a3.25,3.25,0,0,0,.089,1.7,2.473,2.473,0,0,0,.567,1.139,2.905,2.905,0,0,0,1.991.589,12.586,12.586,0,0,0,3.289-.155,10.185,10.185,0,0,0,4.69-2.933c1.125-1.1,2.323-2,2.1-3.8a6.127,6.127,0,0,0-.511-1.537,15.282,15.282,0,0,1-1.059-4.112l-9.314,1.48C794.163,701.6,794.314,702.029,794.454,702.487Z" transform="translate(-792.126 -699.751)"/></g></g><g transform="translate(40.368 156.802)"><path class="c" d="M748.387,609.376l.062,17.226,7.595,41.114,7.507-1.423-2.062-40.453,5.451-17.484Z" transform="translate(-748.387 -608.356)"/><g transform="translate(4.165 56.142)"><path class="g" d="M758.2,706.252c.3,1.22.509,2.628-.107,3.577-.674,1.037-2.052,1.365-2.489,2.662a3.248,3.248,0,0,0,0,1.7,2.47,2.47,0,0,0,.5,1.169,2.907,2.907,0,0,0,1.956.7,12.545,12.545,0,0,0,3.293.026,10.186,10.186,0,0,0,4.844-2.671c1.183-1.035,2.429-1.871,2.3-3.676a6.11,6.11,0,0,0-.426-1.562,15.282,15.282,0,0,1-.832-4.164l-9.381.966C757.953,705.35,758.081,705.787,758.2,706.252Z" transform="translate(-755.484 -704.009)"/></g></g><g transform="translate(0 43.69)"><path class="d" d="M745.47,419.9c7.935,38.517,20.357,71.534,36.222,98.5-3.747.351-6.3,4.412-9.108,7.233a24.56,24.56,0,0,1-9.426,5.66c-14.659,5.1-30.049-.617-44.988,1.719-3.672.575-7.3,1.64-10.99,1.575-7.4-.13-14.518-2.756-21.341-5.264-.448-.165-6.415-2.054-6.227-2.531L694.9,487.745c2.765-7.061,5.532-14.133,7.685-21.388a211.2,211.2,0,0,0,5.5-25.085c1.237-7.348,1.482-14.872,6.505-21.023a12.405,12.405,0,0,1,7.667-4.526c3.017-.409,6.613.778,9.624,1.2C733.346,417.127,745.215,417.984,745.47,419.9Z" transform="translate(-679.609 -415.639)"/></g></g><g transform="translate(271.343 159.57)"><path class="h" d="M595.865,408.321l3.277-4.06.165-3.027,2.721-3.371s2.159,1.308,1.947,1.571a2.687,2.687,0,0,0-.495,2.271,6.068,6.068,0,0,0,3.309-2.8c.345-.692.555-1.587,1.282-1.853.8-.292,1.6.406,2.135,1.065a5.6,5.6,0,0,1,1.368,2.568,5.114,5.114,0,0,1-1.233,3.684c-1.854,2.509-4.273,3.5-6.972,4.8l-4,3.5Z" transform="translate(-535.116 -396.988)"/><path class="i" d="M534.074,423.623c7.33-2.234,14.254-10.579,19.608-14.832a16.286,16.286,0,0,1,4.985,4.489c1.708,2.351,1.558,2.559-.062,4.731a84.592,84.592,0,0,1-9.427,10.039c-8.222,7.88-14.085,15.514-26.893,14.6a54.9,54.9,0,0,1-10.249-2.063l-13.272-3.564a13.351,13.351,0,0,1-3.257-1.186c-7.858-4.532,1.1-16.764,4.279-21.462,3.15-4.649,3.5-7.13,9.518-4,4.592,2.385,8.31,6.141,12.152,9.534a24.331,24.331,0,0,0,3.455,2.668A10.818,10.818,0,0,0,534.074,423.623Z" transform="translate(-492.362 -401.864)"/></g><g transform="translate(222.195 124.592)"><g transform="translate(0.241 92.316)"><g transform="translate(20.598 110.096)"><path class="j" d="M444.129,686c.625,2.51,1.1,5.036,1.567,7.577,1.9,1.175,3.778,2.342,5.7,3.519,1.109-.374,2.81-.632,3.8-1.025,1.705-.674,2.54-1.885,1.631-3.628a17.063,17.063,0,0,0-1.145-1.544c-.669-.941-2.253-2.842-3.333-4.143s-2.7-3.123-3.87-4.494C447.023,683.489,445.595,684.765,444.129,686Z" transform="translate(-444.129 -682.258)"/></g><g transform="translate(41.997 110.05)"><path class="j" d="M480.588,685.817q.811,3.855,1.62,7.71c1.909,1.175,3.794,2.348,5.728,3.509,1.164-.761,2.928-1.687,3.965-2.413,1.541-1.079,1.743-2.464.513-3.691h0c-1.145-1.5-2.384-2.84-3.606-4.3s-2.489-2.978-3.71-4.455Q482.839,683.992,480.588,685.817Z" transform="translate(-480.588 -682.18)"/></g><path class="k" d="M463.366,504.273c-17.311-3.7-34.834-6.02-52.238-9.594-.751,9.247-1.415,4.445-1.973,16.849s.818,35.063,3.89,50.7a258.6,258.6,0,0,0,14.875,47.731c3.181-.631,6.353-1.308,9.583-2.21-2.985-14.067-5.194-31.154-4.158-44.906s2.179-23.334,5.615-35.971c7.044-2.683,14.152-5.419,21.43-7.647C461.277,514.221,462.242,509.194,463.366,504.273Z" transform="translate(-409.034 -494.679)"/><g transform="translate(24.07 21.57)"><path class="k" d="M477.427,534.352c-2.861,14.46-2.513,26.663-2.968,41.688a269.74,269.74,0,0,0,2.819,47.094c-3.326.983-6.382,1.894-9.487,2.63a392.071,392.071,0,0,1-12.99-50.041c-3.032-15.817-5.166-28.742-4.691-44.293C459.173,532.535,468.169,533.278,477.427,534.352Z" transform="translate(-450.044 -531.429)"/></g></g><g transform="translate(55.382)"><path class="h" d="M522.061,350.894a10.1,10.1,0,0,1,2.972-2.727,3.559,3.559,0,0,1,3.055-.657,1.975,1.975,0,0,1,1.1,1.876,7.724,7.724,0,0,1-.4,2.106c2.605.548,5.32-.856,7.875-.717a13.359,13.359,0,0,1,4.648,1.441,8.281,8.281,0,0,1,2.77,1.641c2.87,2.948,4.987,7.323,4.7,11.351-.532,7.464-7.114,14.252-14.2,16.228a22.928,22.928,0,0,1-3.144.567l-4.286.569c-1.8.239-3.726.46-5.363-.329-4.309-2.077-5.622-7.909-11.356-5.744a6.131,6.131,0,0,1-1.972.669,4.867,4.867,0,0,1-3.294-1.5c-1.077-.994-2.422-1.973-2.142-3.584.306-1.762,1.957-2.416,2.967-3.677,1.08-1.348,1.838-3.008,2.982-4.384a55.511,55.511,0,0,1,5.663-5.877c1.767-1.582,4.351-2.679,5.919-4.234a2.727,2.727,0,0,0,.514-1.091A8.3,8.3,0,0,1,522.061,350.894Z" transform="translate(-502.981 -341.511)"/><path class="l" d="M544.185,338.789a23.934,23.934,0,0,1,7.144,3.489c1.743,1.329,3.345,2.453,4.4,4.636,1.967,4.056,1.36,12.791,6.874,14.017a3.043,3.043,0,0,1,2.41,4.133c-.189.595-.69.879-.883,1.449s-.377,1.107.149,1.616,1.347.056,2.028.561a1.588,1.588,0,0,1-.214,2.334c-.4.312-1.018.351-1.36.609s-.324.532-.589.781a2.264,2.264,0,0,1-1.915.9,9.979,9.979,0,0,0-1.026-.234,4.643,4.643,0,0,0-1.86.717,6.223,6.223,0,0,1-4.3.008,11.093,11.093,0,0,1-3.758,2.486c-2.523.754-5.191.239-7.778.064a10.8,10.8,0,0,1,1.844-1.662,11.675,11.675,0,0,0,3.161-4.254c.365-.824.592-1.682.989-2.487-.061-.092-.115-.156-.174-.247a5.8,5.8,0,0,1-.913-1.64,7.982,7.982,0,0,1-.1-2.358c.043-3.8-.3-7.439-2.164-10.806-2.031-3.675-4.984-4.4-9.011-4.406-.949,0-2.742.694-3.614.12-1.328-.873.389-2,.024-2.967-.966-2.551-3.448-.123-4.479,1.07-.944.944-1.193,2.348-2.031,3.326-1.107,1.292-3.007,2.206-4.4,3.172-1.411.98-3.006,2.008-4.707,1.767-.14-.02-.307-.077-.329-.217a.352.352,0,0,1,.036-.178c2.955-7.422,6.966-11.381,13.969-14.955,2.742-1.4,5.824-2.838,8.782-1.986C541.649,338.009,542.925,338.374,544.185,338.789Z" transform="translate(-509.022 -337.393)"/></g><path class="i" d="M465.425,455.042a131.209,131.209,0,0,1,2.348-13.128c1.095-4.329,2.58-8.745,4.017-12.956,2.168-6.355,4.374-13.1,6.594-19.25,2-5.542,2.725-8.283-.932-13.135-1.148-1.523-4.522-2.775-4.8-4.918-.13-1.012.939-1.518.193-2.605a10.861,10.861,0,0,0-1.031-1.089c-.96-1.054-1.254-2.531-1.78-3.856a10.967,10.967,0,0,0-2.271-3.535,2.057,2.057,0,0,0-1.085-.7,2.3,2.3,0,0,0-1.016.148,50.95,50.95,0,0,1-8.035,1.9c-2.514.333-5.1.039-7.592.561a20.108,20.108,0,0,0-7.12,3.178,47.342,47.342,0,0,0-9.989,8.613,63.221,63.221,0,0,0-7.574,10.829,138.993,138.993,0,0,0-15.8,42.993c-.511,2.7-1.292,5.389-.74,7.974s2.989,2.774,5.139,3.577a109.763,109.763,0,0,0,15.492,4.764,144.321,144.321,0,0,0,31.736,2.821,2.753,2.753,0,0,0,1.679-.4,2.475,2.475,0,0,0,.8-1.585C464.423,461.865,464.918,458.495,465.425,455.042Z" transform="translate(-408.623 -354.933)"/></g><g transform="translate(233.332 162.431)"><circle class="m" cx="101.341" cy="101.341" r="101.341"/><path class="n" d="M641.438,406.817q2.711.664,5.363,1.469Z" transform="translate(-515.929 -403.909)"/><g transform="translate(6.771 7.483)"><path class="o" d="M646.436,421.626q.652.2,1.3.41l.387-.282A11.7,11.7,0,0,1,646.436,421.626Z" transform="translate(-524.764 -417.509)"/><path class="o" d="M637.97,426.878c3.115,0,7.78,5.174,10.176,3.568,3.3-2.209,2.482-4.275,3.374-5.437q-3.569-1.488-7.281-2.685Z" transform="translate(-521.267 -417.798)"/><path class="o" d="M644.343,421.023q-1.477-.453-2.975-.857A11.193,11.193,0,0,0,644.343,421.023Z" transform="translate(-522.671 -416.906)"/><path class="p" d="M614.81,461.806a94.5,94.5,0,0,0-17.046-21.563c-.089-.084-.182-.165-.272-.249q-1.01-.945-2.045-1.862c-.1-.087-.2-.171-.3-.258q-1.038-.909-2.1-1.789c-.083-.068-.167-.133-.249-.2q-1.1-.9-2.233-1.776c-.055-.042-.111-.083-.167-.126q-1.18-.905-2.39-1.773l-.08-.056q-1.256-.9-2.544-1.758l-.007,0q-2.631-1.756-5.386-3.336h0a93.441,93.441,0,0,0-32.7-11.384h0c-.682-.1-1.366-.2-2.053-.286-.386-.05-.774-.093-1.161-.138-.446-.052-.89-.109-1.339-.154h0q-2.827-.283-5.7-.394h0c-.414-.016-.829-.029-1.244-.04-.85-.025-1.7-.043-2.557-.043-.738,0-1.475.011-2.21.028-.275.006-.549.017-.824.026-.445.014-.891.03-1.336.05q-.529.025-1.057.055-.512.03-1.022.065c-.419.029-.838.058-1.255.092-.192.016-.383.034-.574.051q-3.647.318-7.21.91h0q-.947.157-1.888.332h-.006q-1.214.226-2.417.485l-.092.02q-1.167.251-2.321.531l-.129.031q-1.143.278-2.274.585l-.128.035q-1.141.31-2.271.648l-.091.028q-1.164.35-2.315.728l-.009,0a93.751,93.751,0,0,0-23.958,11.911h0A94.089,94.089,0,0,0,458.64,566.056a94.133,94.133,0,0,1,19.984-118.014c.148-.128.3-.252.447-.379.4-.34.8-.68,1.2-1.014.228-.189.461-.373.69-.56.329-.267.657-.534.99-.8.25-.2.5-.392.757-.587.318-.247.636-.492.957-.734.261-.2.525-.391.788-.585.318-.234.636-.467.956-.7q.4-.29.812-.576.482-.337.967-.67.41-.281.824-.558.492-.329.99-.652c.275-.179.551-.358.828-.534.34-.216.682-.428,1.025-.64.272-.168.545-.338.819-.5.362-.218.728-.432,1.093-.646.259-.151.516-.3.776-.454.423-.242.85-.478,1.277-.714.207-.114.412-.232.62-.345q.945-.512,1.9-1c.193-.1.389-.193.582-.291.455-.229.911-.458,1.37-.681.26-.126.523-.247.785-.371.4-.187.794-.375,1.193-.557.284-.129.571-.255.856-.381q.573-.254,1.149-.5c.3-.126.593-.249.891-.373q.569-.236,1.14-.465.454-.181.911-.358.574-.223,1.152-.438.455-.17.912-.335c.392-.142.786-.279,1.181-.416.3-.1.6-.209.907-.31.407-.136.817-.268,1.227-.4.293-.093.585-.188.879-.279.443-.137.889-.267,1.335-.4.263-.076.525-.156.788-.231.57-.161,1.144-.315,1.719-.465.142-.037.283-.077.426-.115q1.074-.275,2.158-.526c.221-.051.444-.1.666-.147.507-.114,1.012-.226,1.522-.332.282-.058.565-.112.848-.167.452-.089.9-.177,1.357-.26.307-.056.616-.107.924-.16.432-.074.866-.147,1.3-.215q.479-.075.96-.144.644-.094,1.289-.18.486-.064.973-.123.65-.079,1.3-.149c.322-.035.645-.069.969-.1q.665-.064,1.334-.119c.317-.026.634-.053.951-.076.464-.034.929-.061,1.394-.088.3-.018.6-.038.9-.052.513-.025,1.029-.042,1.545-.059.255-.008.509-.02.765-.026q1.157-.028,2.321-.029c.2,0,.393.008.591.009h0a93.681,93.681,0,0,1,39.189,8.793c.12.056.238.115.357.171q.9.428,1.8.873c.258.129.514.26.769.391q.7.359,1.4.73c.26.138.52.276.778.416q.83.452,1.65.921c.213.122.426.242.638.366q.878.509,1.743,1.037c.269.165.537.333.806.5q.613.383,1.22.774c.279.18.558.36.834.543q.662.437,1.314.886c.216.148.434.293.648.443h0A94.656,94.656,0,0,1,614.81,461.806Z" transform="translate(-439.135 -414.612)"/></g><g transform="translate(35.969 2.907)"><path class="q" d="M598.693,417.966h0Z" transform="translate(-534.184 -411.422)"/><path class="q" d="M589.867,410.351a29.489,29.489,0,0,0-8.606.126,12.079,12.079,0,0,0,2.524-2.192q-2.651-.806-5.363-1.469c-.132.041-.261.083-.387.128-2.449.858-2.808.947-2.406,2.494a18,18,0,0,1-2.7-1.341H561.2c7.432,8.22-6.975,7.678-12.237,7.694-.962,0-1.186-1.925-.638-2.431a33.085,33.085,0,0,1,5.07,0c4.789-.007,4.188-.385,4.188-5.262-4.761,3.511-4.6,0-10,0-5.065,0-7.55.279-11.993,2.276l4.34,3.7c-1.822-.413-7.764-2.745-9.388-2.052-.756.322-.951,2.337-1.885,2.337-3.774,0-14.043,2.064-14.043-2.264,0-.019-.068-.037-.187-.053a101.315,101.315,0,0,0-25.545,15.78,60.886,60.886,0,0,1,11.023-.521c.45,0,3.553,8.009,3.582,8.626.168,3.495-2.215,4.876-3.982,8.2a41.693,41.693,0,0,0-4.278,20.764c.013.245,4.051,3.879,4.051,5.319,0,6.03.632,6.128,4.773,10.571v-7.4c2.47,6.476,5.456,8.968,7.686,15.3,2.531,7.189,12.535,1.668,15.933,6.4,1.5,2.085,4.289,1.129,5.623,3.165l3.619,5.524c2.182,3.33,4.842,2.176,8.739,2.176,3.744,0-3.408,12.936-3.408,14.026,0,4.485,6.123,14.7,6.085,16.493-.114,5.325,6.536,6.072,10.147,9.352,2.891,2.645.83,10.138.74,13.461a21.038,21.038,0,0,0,1.383,7.732h0c.788,2.224,1.788,4.366,2.685,6.567.157.386.311.772.459,1.161.065.17.125.343.188.514.119.326.235.654.346.984.06.182.119.365.176.549q.161.515.3,1.04c.045.166.092.332.134.5.128.515.245,1.036.338,1.569.474,2.726-.573,5.666.033,8.278.623,2.683,2.926,4.354,2.892,7.32-.052,4.582,12.829,5.441,15.324,5.441-.011-.007-9.4-4.877-9.4-4.293,0-4.348,2.237-4.046,2.239-6.7,0-3.15-2.859-5.744-1.073-10.2,1.932-4.819,1.713-4.673,6.936-4.673a31.164,31.164,0,0,0-1.012-6.543c4.667-7.274,15.524-14.273,18.4-16.235,3.9-2.669,1.718-9.868,3.407-13.7,1.484-3.372,5.984-6.487,6.2-10.635a4.72,4.72,0,0,0-.01-.622c0-.049-.013-.094-.018-.141a3.818,3.818,0,0,0-.073-.43c-.009-.039-.021-.077-.032-.115a3.2,3.2,0,0,0-.143-.411c-.009-.021-.018-.042-.028-.062a2.861,2.861,0,0,0-.234-.421h0c-.9-1.338-2.773-1.712-4.406-1.657-2.307.077-2.536-3.78-4.281-3.78-4.849,0-9.882-.826-14.082-3.937-.7-.515-1.475-6.7-2.664-8.237-1.7-2.2-7.145,1.66-9.26-1.327-.8-1.129-2.689-5.558-3.98-5.558-1.758,0-11.44-1.883-13.476-.041.313-.284-3.3-1.381-3.818-1.381.221,0-12.442,6.56-12.442,3.154,0-4.416,2.153-10.123-3.084-10.123-8.419,0-1.257-2.189-1.257-6.045,0-4.947-8.152,1.358-12.448,1.362.114,0-4.836-8.117-2.463-8.117,1.7,0,1.969-3.471,3.233-4.948,3.325-3.888,9-4.3,13-3.563,1.618.3,7.485,7.1,7.5,8.505,0-.334,2.391-1.866,2.715-2.362,1.157-1.774.5-2.539.792-4.315.97-5.961,1.216-7.141,5.972-10.764,3.495-2.662,8.378-5.72,11.121-9.165a18.413,18.413,0,0,1,7.09-5.489c-.311.153,2.888,1.949,3.559,1.949,2.749,0,3.413-2.323,4.918-4.409H576.1c5.39-4.121-4.366-6.258,6.438-6.258,5.306,0,5.8.073,9.042-3.7-5.161,0-3.906-.034-3.906-5.29,0-.876-1.459-4.085-2.851-2.716-3.807,3.743-3.671-.685-5.337-3.174-2.155-3.219-4.48.094-5.38,2.045-1.115,2.419-10.274,6.2-10.254,9.363.012,1.851-3.013,1.776-2.957-.288.083-3.1-10.622-6.058-10.8-7.267-.233-1.6,5.3-5.9,10.109-5.9,2.21,0,1.129-2.56,1.81-2.56,4.583,0,9.987-1.424,12.493-5.12-.626,0-6.51.042-6.51-.031,0-2.1-.9-3.383,1.511-3.383,5.653,0,7.328,4.409,13.535,4.409l-6.655,4.836c3.115,0,7.78,5.174,10.175,3.569,4.422-2.964,1.441-5.673,5.118-6.284a4.367,4.367,0,0,0,1.8,1.122c1.149.406,5.288,1.146,5.991,2.2.847,1.265,3,8.761,1.419,9.412-2.569,1.058-10.092,9.209-4.337,11.244,4.448,1.572,5.588-.411,9.545-2.886,3.678-2.3,4.68-1.456,8.821.008.037.013,4.3-.142,5.9.423,3.494,1.236,3.239-.971,3.606-.841a9.618,9.618,0,0,0,6.095.086A101.521,101.521,0,0,0,589.867,410.351Z" transform="translate(-488.882 -406.817)"/><path class="q" d="M587.83,532.855l-2.054,2.06c6.385,0,10.271,2.059,15.935,2.059C597.91,531.018,594.93,532.855,587.83,532.855Z" transform="translate(-528.906 -458.769)"/><path class="q" d="M619.188,541.816c-5.124-.155-5.363.623-8.5,4.13q4.051,0,8.1.011C621.129,545.959,620.8,541.865,619.188,541.816Z" transform="translate(-539.195 -462.573)"/><path class="q" d="M635.269,548.682c0-7.185-7.308,0,0,0Z" transform="translate(-548.008 -464.098)"/></g><g class="r" transform="translate(15.944 14.846)"><path d="M593.181,427.158A101.356,101.356,0,0,1,454.764,568.12,101.349,101.349,0,1,0,593.181,427.158Z" transform="translate(-454.764 -427.158)"/></g></g><g transform="translate(368.581 0)"><path class="s" d="M698.263,125.117s-40.229,44.568-40.229,81.744,27.828,46.009,40.229,46.009,40.231-8.832,40.231-46.009S698.263,125.117,698.263,125.117Z" transform="translate(-658.033 -125.117)"/><path class="t" d="M676.063,226.457l-.016-.079a27.157,27.157,0,0,1-.982-5.206c-.062-2.71,0-5.423.18-8.128a119.115,119.115,0,0,1,2.317-16.583,180.853,180.853,0,0,1,10.4-32.658q2.97-7.114,6.4-14.027,1.613-3.263,3.318-6.479c.294-.555,3.523-5.924,3.343-6.106l-.106-.107s-36.251,44.684-34.373,80.263a65.4,65.4,0,0,0,.717,6.865q.261,1.635.613,3.253a8.48,8.48,0,0,0,.564,2.7,5.04,5.04,0,0,0,3.971,2.443,2.955,2.955,0,0,0,3.227-1.7A7.844,7.844,0,0,0,676.063,226.457Z" transform="translate(-661.517 -130.06)"/><path class="t" d="M686.961,305.6a3.834,3.834,0,0,0-2.618-1.085,3.908,3.908,0,0,0-2.177.715,3.765,3.765,0,0,0-1.786,4.191,3.923,3.923,0,1,0,6.582-3.822Z" transform="translate(-667.22 -199.221)"/></g><g transform="translate(378.672 169.836)"><path class="c" d="M735.221,472.485c-2.182.337-4.38.573-6.37.943a71.419,71.419,0,0,1-15.094,1.462c-2.453-.07-5.393-.641-6.4-2.751-.8-1.674.09-3.628,1.553-4.743a14.9,14.9,0,0,1,5.216-2.09c5.055-1.369,10.012-3.083,15.085-4.384,4.268-1.095,9.36-2.8,13.677-.595a5.908,5.908,0,0,1,3.241,4.2c.374,2.554-1.461,4.882-3.618,5.951A25.246,25.246,0,0,1,735.221,472.485Z" transform="translate(-688.372 -432.974)"/><path class="c" d="M685.482,420.627a3.833,3.833,0,0,0-.011-.435,1.468,1.468,0,0,0-.921-1.365c-1.8-.421-1.423,3.569-3.044,1.223-.443-.64-.977-5.387-1.437-5.485-2.349-.5-5.093,1.294-4.823,3.933a11.717,11.717,0,0,0,2.2,4.944c1.156,1.739,2.669,3.277,3.771,5.033a22.017,22.017,0,0,1,1.854,4.791c2.475,7.293,4.922,15.728,10.782,20.807,1.793,1.554,2.847,1.86,4.678.819,1.782-1.011,3.494-2.555,3.6-4.9.093-2.16-1.243-4.112-2.511-5.852-1.914-2.625-3.7-5.5-5.734-7.978-1.935-2.358-4.4-4.069-5.96-6.795a22.736,22.736,0,0,1-2.48-7.4A13.332,13.332,0,0,1,685.482,420.627Z" transform="translate(-675.226 -414.48)"/><path class="d" d="M772.688,468.085A20.891,20.891,0,0,1,756.6,477.57c-2.309-4.3-1.968-8.633-3.043-13.181-.35-1.484-.788-2.953-1.224-4.42-.719-2.414-3.786-8.771.241-9.352,2.02-.292,3.845.416,5.8.369,2.6-.063,5.066-1.278,7.747-1.234a10.007,10.007,0,0,1,7.817,3.436c2.062,2.671,2.057,6.44,1.134,9.685A19.232,19.232,0,0,1,772.688,468.085Z" transform="translate(-706.334 -429.049)"/></g><g transform="translate(248.356 160.212)"><path class="h" d="M495.417,500.475l3.677,3.7,2.992.495,3.054,3.074s-1.536,2-1.774,1.763a3.1,3.1,0,0,0-2.23-.772,9.158,9.158,0,0,0,1.886,3.8c.746.977,2.175,2.078.382,2.946a3.2,3.2,0,0,1-1.568.247,6.417,6.417,0,0,1-3.714-1.451,9.586,9.586,0,0,0-2.5-1.954,1.452,1.452,0,0,1-.472-.225,11,11,0,0,1-.762-2.47,8.023,8.023,0,0,0-.63-1.791l-3.044-4.355Z" transform="translate(-468.691 -440.378)"/><path class="i" d="M471.409,438.1c2.325,7.578,10.072,17.338,12.464,21.138a16.278,16.278,0,0,1-5.008,4.464c-2.523,1.442-2.714,1.27-4.7-.578a84.589,84.589,0,0,1-8.948-10.467c-6.935-9.034-13.882-15.7-11.573-28.328a54.855,54.855,0,0,1,3.171-9.962l4.992-12.8c1.138-2.918,2.261-3.328,5.409-3.448,4.923-.187,10.561.191,13.629,4.045a10.889,10.889,0,0,1,1.849,8.522,25.607,25.607,0,0,1-3.311,8.3C475.942,425.068,469.1,430.565,471.409,438.1Z" transform="translate(-453.196 -398.083)"/></g><g transform="translate(20.124 0.603)"><g transform="translate(47.198 134.898)"><g transform="translate(23.38)"><path class="u" d="M203.625,357.781a1.708,1.708,0,0,0-.292.382c-.647,1.307-.2,2.375-.465,3.8-.117.637-1.658,1.274-.674,2.2.363.343,1.373,1.058,2.154,1.782a9.561,9.561,0,0,1,2.288,4.81c1.348,6.786.811,13.751.063,20.624a2.479,2.479,0,0,1-.311,1.128,2.6,2.6,0,0,1-1.872.843,52.913,52.913,0,0,0-9.5,2.411,19.731,19.731,0,0,0-7.549,4.3,8.88,8.88,0,0,0-2.708,7.945,6.935,6.935,0,0,0,4.08,4.813c5.024,2.042,10.619-3.566,14.463-6.18a94.082,94.082,0,0,0,10.355-8.156,4.066,4.066,0,0,0,1.037-1.241,4.124,4.124,0,0,0,.253-1.7,205.474,205.474,0,0,0-1.351-22.3c-.212-2.044-1.472-3.717-1.651-5.609-.114-1.207.664-2.237.809-3.4a11.3,11.3,0,0,0-.255-3.819c-.575-2.211-2.767-3.085-4.607-4.037a2.456,2.456,0,0,0-1.25-.394,3.544,3.544,0,0,0-2,.919A6.845,6.845,0,0,0,203.625,357.781Z" transform="translate(-184.59 -355.98)"/></g><g transform="translate(0 20.122)"><path class="v" d="M188.484,424.285a62.658,62.658,0,0,0,10.179-9.681,7.873,7.873,0,0,0,1.685-2.875,8.667,8.667,0,0,0,.114-2.769l-1.076-16.172c-.033-.5.071-2.178-.377-2.477-.225-.151-1.131.109-1.415.126-.514.032-1.029.035-1.544.029a22.938,22.938,0,0,0-6.139.272.6.6,0,0,0-.33.172.616.616,0,0,0-.1.328,90.383,90.383,0,0,1-1.966,11.732,5.4,5.4,0,0,1-1.111,2.532,9.675,9.675,0,0,1-2.789,1.48,37.769,37.769,0,0,1-5.635,2.155c-3.951,1.194-8.018,1.933-12.047,2.81a22.737,22.737,0,0,0-5.065,1.237c-4.364,1.238-8.876,2.553-12.324,5.5-7.362,6.294-3.39,18.409,6.629,18.248a52.791,52.791,0,0,0,24.415-6.78A71.961,71.961,0,0,0,188.484,424.285Z" transform="translate(-144.756 -390.263)"/></g></g><g transform="translate(17.578 129.446)"><g transform="translate(38.665 154.025)"><path class="u" d="M169.357,666.16l-7.285.223-.634-34.228-1.272-23.041H177.28l-2.274,23.614Z" transform="translate(-160.166 -609.113)"/><g transform="translate(0.444 54.434)"><path class="g" d="M171.114,703.574a6.869,6.869,0,0,0-.625,3.5q.06,2.01.12,4.019a5.33,5.33,0,0,0,.442,2.382,9.662,9.662,0,0,0,1.293,1.565,2.293,2.293,0,0,1,.666,1.849,1.9,1.9,0,0,1-1.419,1.336,5.6,5.6,0,0,1-2.04.04l-2.467-.255a2.383,2.383,0,0,1-1.943-.861,2.836,2.836,0,0,1-.236-1.206c-.246-3.2-4.054-5.144-3.98-8.04a6.423,6.423,0,0,1,.37-1.652,16.018,16.018,0,0,0,.671-4.391c3.074.176,6.965-.185,9.858.655A5.878,5.878,0,0,0,171.114,703.574Z" transform="translate(-160.922 -701.857)"/></g></g><g transform="translate(8.711 152.085)"><path class="u" d="M120.137,662.914,113,661.457l7.819-32.794.846-22.855,19.3,3.407-6.9,23.116Z" transform="translate(-110.728 -605.808)"/><g transform="translate(0 52.794)"><path class="g" d="M120.153,699.531a6.863,6.863,0,0,0-1.412,3.26l-.806,3.939a5.322,5.322,0,0,0-.117,2.419,9.661,9.661,0,0,0,.9,1.82,2.293,2.293,0,0,1,.223,1.953,1.9,1.9,0,0,1-1.688.974,5.584,5.584,0,0,1-1.995-.43l-2.343-.815c-.7-.242-1.485-.577-1.693-1.284a2.824,2.824,0,0,1,.048-1.227c.495-3.169-2.764-5.938-2.026-8.74a6.4,6.4,0,0,1,.74-1.523,16,16,0,0,0,1.662-4.12c2.952.877,6.821,1.42,9.444,2.9A5.868,5.868,0,0,0,120.153,699.531Z" transform="translate(-109.132 -695.757)"/></g></g><g transform="translate(2.317 43.724)"><path class="v" d="M147.4,424.344c3.5,3.649,4.261,10.325,5.989,15.255,2.05,5.846,4.1,11.7,5.844,17.643.887,3.029,1.7,6.081,2.381,9.162.571,2.57.447,5.148.779,7.774,1.635,12.922,3.213,25.858,4.214,38.847.41,5.323.724,10.653.9,15.989.087,2.573.109,5.295-1.169,7.53a87.65,87.65,0,0,0-13.671.458,212.492,212.492,0,0,1-37.99-.032c-1.46-.151-16.473-1.861-16.442-2.73.785-21.879.292-43.571,3.323-65.37,1.618-11.634,2.562-24.226,8.56-34.324,2.952-4.97,8.334-8.785,13.58-11.213,5.824-2.695,12.452-2.406,18.656-1.533A8.362,8.362,0,0,1,147.4,424.344Z" transform="translate(-98.237 -421.186)"/><g transform="translate(21.509 2.501)"><path class="w" d="M149.544,449.236a12.132,12.132,0,0,0,4.914.542c.131-.006.318-9.85.346-10.757.06-1.855-.205-4.2,1.538-5.386,1.882-1.281,5.408-1.442,4.748-4.711a4.355,4.355,0,0,0-2.964-3.016,12.819,12.819,0,0,0-4.378-.455c-1.9.022-3.794.044-5.689.121-3.776.154-7.655.558-11,2.317-2.69,1.415-2.6,4.72-1.275,7.158a4.481,4.481,0,0,0,1.068,1.378,6.046,6.046,0,0,0,4.6.841c1.463-.313,2.6-1.4,3.9-2.126.886-.491,2.807-1.123,3.583-.141.566.717.19,2.9.22,3.727C149.2,439.758,148.977,449.051,149.544,449.236Z" transform="translate(-134.883 -425.448)"/><path class="x" d="M163.43,446.406c.069-.494.148-2.861-.714-2.8a.637.637,0,0,0-.5.386,6.106,6.106,0,0,0-.254,2,1.768,1.768,0,0,0,.139.907.712.712,0,0,0,.761.4C163.228,447.2,163.379,446.776,163.43,446.406Z" transform="translate(-146.069 -432.947)"/><path class="x" d="M163.43,458.015c.069-.494.148-2.861-.714-2.8a.635.635,0,0,0-.5.386,6.1,6.1,0,0,0-.254,2,1.767,1.767,0,0,0,.139.906.711.711,0,0,0,.761.4C163.228,458.812,163.379,458.386,163.43,458.015Z" transform="translate(-146.069 -437.743)"/></g></g><path class="g" d="M179.983,364.621c.9.22,1.972,2.932,2.211,3.91a8.85,8.85,0,0,0,.86,2.989,4.1,4.1,0,0,0,.4-2.934c-.106-.6-.619-.882-.79-1.488a12.546,12.546,0,0,1-.144-2.311,2.323,2.323,0,0,0-.342-1.17,2.563,2.563,0,0,0-.8-.608,4.535,4.535,0,0,1-1.729-2.16,3.476,3.476,0,0,0-.42-.885,1.147,1.147,0,0,0-.437-.334,2.233,2.233,0,0,0-.289-.347c-.674-.652-1.731-.737-2.114-1.688a4.152,4.152,0,0,1-.1-1.746c.377-7.179-5.568-6.9-9.2-7.954-3.466-1.007-5.568-2.771-8.352,1.685-2.694,4.312-1.163,6.936.463,11.014,1.3,3.271.709,5.579,1.331,9.084.484,2.731,2.025,5.045,2.592,7.762.5,2.415.291,4.981.845,7.381s2.372,4.755,4.286,4.169c-.281,1.819.849,3.83,2.322,4.136s2.992-1.154,3.122-3c1.24.273,2.915.227,3.228-1.282a11.838,11.838,0,0,0,.033-1.623c.146-2.287,2.494-2.974,4.328-3.081a7.069,7.069,0,0,1,1.781-6.951c-.657-.3-.855-1.375-.734-2.226a14.6,14.6,0,0,0,.418-2.526c-.08-2.442-2.7-3.574-3.382-5.884a6.493,6.493,0,0,1-.206-1.95A5.961,5.961,0,0,1,179.983,364.621Z" transform="translate(-120.308 -346.69)"/><path class="g" d="M113.686,359.572a3.16,3.16,0,0,1,.148,1.756c-.36.991-1.763,1.19-2.563,1.915-1.925,1.743.555,4.885-.011,7.357-.545,2.382-3.877,3.8-3.6,6.245a12.122,12.122,0,0,0,.963,2.48,1.79,1.79,0,0,1-.629,2.3,6.408,6.408,0,0,1,3.493,6.755c2.473-.092,5.729.342,6.289,2.612a9.155,9.155,0,0,0,.3,1.618c.66,1.474,2.912,1.339,4.529.933a4.045,4.045,0,0,0,4.662,2.666,3.439,3.439,0,0,0,2.453-4.384c2.657.38,4.719-2.17,5.078-4.628s-.335-5-.043-7.468c.327-2.777,2.023-5.255,2.237-8.037.275-3.57-.889-5.812.337-9.221,1.528-4.251,3.162-7.039-1.134-11.057a8.079,8.079,0,0,0-4.857-2.482c-.708-.048-1.394.167-2.085.1-1.12-.112-2.087-.95-3.184-.178-.29.2-.494.495-.762.724-.992.848-2.558.673-3.916.458a2.934,2.934,0,0,0-1.5.025c-1.313.509-1.162,2.619-2.507,3.056-1.628.528-2.386.6-3.3,2.2A5.833,5.833,0,0,0,113.686,359.572Z" transform="translate(-99.808 -347.45)"/><path class="u" d="M159.057,379.874c-.018-.055-.036-.109-.054-.164-.684-2.135-.6-4.432-.981-6.641-1.089-6.352-8.423-7.709-13.943-6.383-7.512,1.8-9.467,7.371-9.94,14.295-.059.862-.353,1.972-1.216,2.019-.433.023-.82-.262-1.247-.336-1.087-.188-1.918,1.023-2.068,2.116a4.737,4.737,0,0,0,1.162,3.82c.929,1,1.871.887,3,1.339,1.777.714.749-.193,1.73,1.5,1.254,2.172,2.192,4.183,4.366,5.634,2.2,1.467,2.224,2.082,2.349,4.859.065,1.427.413,3.021,1.621,3.785a4.582,4.582,0,0,0,2.165.555,21.063,21.063,0,0,0,3.084-.018,3.719,3.719,0,0,0,2.219-.717c.915-.81.91-2.216.821-3.434-.242-3.341-.191-2.932,2.213-4.712,3.348-2.479,7.459-7.826,6.743-12.216C160.77,383.307,159.667,381.67,159.057,379.874Z" transform="translate(-108.861 -354.759)"/><path class="g" d="M118.891,374.673c-.837.622-1.9,1.065-2.173,2.014a10.859,10.859,0,0,0-.059,1.758,2.33,2.33,0,0,1-1.839,1.931c-1.787.379-3.157-1.13-3.935-2.412a6.973,6.973,0,0,0-5.889-3.189,37.265,37.265,0,0,0-3.72.513c-2.355.265-5.662-.707-6.722-2.847a1.935,1.935,0,0,1-.263-.857.7.7,0,0,1,.487-.682c.379-.095.745.184,1.1.359a5.148,5.148,0,0,0,4.019-.644c.951-.733.53-2.152.38-3.318a6.114,6.114,0,0,1,5.076-6.509c.994-.173,2.031-.126,3.016-.33,2.274-.472,3.926-2.178,5.738-3.511s4.359-2.352,6.447-1.279c.6.308,1.11.769,1.74,1.019,2.343.928,4.393-.168,6.725.981,2.388,1.177,5.413,3.61,5.249,6.062.05-.761-1.125-1.08-1.891-.832s-1.477.779-2.292.667c-1.072-.148-1.764-1.348-2.841-1.44a2.274,2.274,0,0,0-2,1.383,5.108,5.108,0,0,1-1.437,2.038c-.988.637-2.454.373-3.415,1.045-1.095.765-1.011,2.321-.71,3.6s.69,2.713-.062,3.78A3.186,3.186,0,0,1,118.891,374.673Z" transform="translate(-94.29 -350.213)"/><path class="g" d="M169.851,366.056c1.708.349,2.388,2.459,2.315,4.2a2.714,2.714,0,0,0,.411,2.075,3.594,3.594,0,0,0,1.007.576,3.632,3.632,0,0,1,1.726,4.316,3.46,3.46,0,0,0,1.246-4.343c-.248-.5-.617-.926-.877-1.417-.8-1.513-.456-3.342-.555-5.05a3.24,3.24,0,0,0-.629-1.953,5.175,5.175,0,0,0-1.619-1.034,7.83,7.83,0,0,1-3.443-3.641,5.231,5.231,0,0,0-.812-1.482,3.712,3.712,0,0,0-2.516-.869,2.664,2.664,0,0,0-2.234.561c-.246.279-.375.652-.647.906-1.615,1.5-3.547-.472-3.265,2.826.174,2.045.316,1.738,2.012,1.726,1.679-.012,2.652-1.119,4.229.208.748.629.482,1.622,1.366,2.161C168.17,366.191,169.179,365.9,169.851,366.056Z" transform="translate(-121.405 -351.12)"/></g><g transform="translate(38.361 169.577)"><path class="u" d="M239.6,420.777c.1-.545.327-1.217.879-1.264.681-.058.951.856.98,1.539a4.764,4.764,0,0,0,1.871-5.447,3.618,3.618,0,0,1,4.415.505,5.815,5.815,0,0,1,1.6,4.39c-.059,2.417-1.568,4.593-3.045,6.393-1.1,1.344-2.21,2.691-3.217,4.11-.28.395-.887,1.859-1.318,2.028-.994.389-3.886-1.726-4.7-2.263a.389.389,0,0,1-.163-.163c-.06-.15.076-.3.2-.41a5.557,5.557,0,0,0,1.647-2.6c.3-1.086-.107-2.017-.033-3.07A37.976,37.976,0,0,1,239.6,420.777Z" transform="translate(-173.975 -415.065)"/><path class="v" d="M183.864,454.075c6.072-4.656,12.1-9.609,15.821-16.256a1.672,1.672,0,0,0,.3-1.046,1.7,1.7,0,0,0-.6-.886q-3.555-3.38-7.4-6.433c.225.178-9.581,8.883-11.092,9.642a43.59,43.59,0,0,1-15.521,4.591c-7.065.66-14.1-.488-21.151-.8-4.883-.216-11.318-.834-13.73,4.524a11.08,11.08,0,0,0,.315,8.892c3.3,7.469,12.282,11.069,20.431,10.564,5.913-.366,11.516-2.467,16.847-4.927,4.836-2.232,9.917-3.4,14.19-6.651Q183.067,454.685,183.864,454.075Z" transform="translate(-129.7 -421.008)"/></g><path class="y" d="M203.3,208.852a42.751,42.751,0,0,1,1.17,13.7A42.153,42.153,0,0,1,199,239.763a44.826,44.826,0,0,1-29.02,21.16,37.454,37.454,0,0,1-9.526.7A42.953,42.953,0,1,1,203.3,208.852Z" transform="translate(-86.994 -146.839)"/><path class="y" d="M152.491,158.942a95.073,95.073,0,0,1,22.915-5.672.862.862,0,0,0,.608-1.366l-18.5-25.4a.863.863,0,0,0-1.552.382l-4.626,31.126A.862.862,0,0,0,152.491,158.942Z" transform="translate(-100.27 -126.144)"/><path class="y" d="M199.587,154.827a95.083,95.083,0,0,1,22.235,7.931.862.862,0,0,0,1.261-.8l-1.391-31.4a.864.864,0,0,0-1.5-.539l-21.049,23.39A.862.862,0,0,0,199.587,154.827Z" transform="translate(-119.929 -127.625)"/><path class="y" d="M245.1,186.426a95.089,95.089,0,0,1,12.769,19.856.862.862,0,0,0,1.489.134L277.424,180.7a.863.863,0,0,0-.862-1.346l-30.952,5.674A.862.862,0,0,0,245.1,186.426Z" transform="translate(-138.924 -148.117)"/><path class="y" d="M267.746,233.286a95.077,95.077,0,0,1-.536,23.6.861.861,0,0,0,1.159.944l29.368-11.193a.863.863,0,0,0,.039-1.6l-28.823-12.627A.862.862,0,0,0,267.746,233.286Z" transform="translate(-148.134 -170.009)"/><path class="y" d="M249.508,284.381a95.088,95.088,0,0,1-15.966,17.389.861.861,0,0,0,.248,1.474l29.459,10.951a.863.863,0,0,0,1.083-1.176l-13.342-28.5A.862.862,0,0,0,249.508,284.381Z" transform="translate(-134.102 -191.358)"/><path class="y" d="M122.6,180.2a95.039,95.039,0,0,0-13.622,19.28.862.862,0,0,1-1.494.069L90.556,173.066a.864.864,0,0,1,.92-1.307l30.675,7.019A.862.862,0,0,1,122.6,180.2Z" transform="translate(-75.112 -144.976)"/><path class="y" d="M95.922,225.724a95.05,95.05,0,0,0-1.656,23.549.861.861,0,0,1-1.241.833l-28.2-13.869a.864.864,0,0,1,.11-1.595l29.87-9.9A.862.862,0,0,1,95.922,225.724Z" transform="translate(-64.34 -166.853)"/><path class="y" d="M103.639,274.256a95.08,95.08,0,0,0,13.375,19.452.861.861,0,0,1-.452,1.425l-30.7,6.72a.863.863,0,0,1-.907-1.315l17.2-26.351A.862.862,0,0,1,103.639,274.256Z" transform="translate(-72.796 -187.133)"/><path class="y" d="M145.1,312.829a95.053,95.053,0,0,0,22.208,8.006.862.862,0,0,1,.463,1.422l-21.027,23.359a.863.863,0,0,1-1.5-.539l-1.389-31.437A.862.862,0,0,1,145.1,312.829Z" transform="translate(-97.184 -203.218)"/><path class="y" d="M212.551,317.419a95.066,95.066,0,0,1-22.9,5.736.861.861,0,0,0-.6,1.367l18.575,25.353a.864.864,0,0,0,1.551-.386l4.538-31.138A.862.862,0,0,0,212.551,317.419Z" transform="translate(-115.784 -205.129)"/></g><g transform="translate(469.27 1.895)"><g transform="translate(28.602 120.493)"><g transform="translate(9.261 147.697)"><g transform="translate(6.033)"><path class="z" d="M904.375,589.973v71.06H915.1l6.7-42.9,6.033-32.849Z" transform="translate(-904.375 -585.281)"/></g><g transform="translate(0 75.753)"><path class="g" d="M900.128,714.346l-6.033,6.033,2.681,4.022,12.067-4.022v-6.033Z" transform="translate(-894.095 -714.346)"/></g></g><g transform="translate(38.758 145.015)"><g transform="translate(5.012 79.172)"><path class="g" d="M966.521,716.064l-2.234,8.827-7.374,2.682-4.022-2.011,6.244-9.959Z" transform="translate(-952.89 -715.603)"/></g><path class="z" d="M944.35,580.712l4.022,30.837,5.363,49.608,10.726-.67V622.275l5.363-38.882Z" transform="translate(-944.35 -580.712)"/></g><g transform="translate(0 47.416)"><path class="aa" d="M912.407,415.158c-10.929,2.506-18.274,11.365-20.253,23.378-2.217,13.455-5.555,26.839-8,40.316-2.751,15.164-4.4,30.419-5.838,45.733q20.4,1.853,40.886,2.126c10.573.14,21.31-.061,31.45-3.245-2.055-8.724-1.282-17.651-1.4-26.55-.109-7.985-.468-15.97-1.211-23.918-1.031-11.04-1.974-22.132-4.279-33-1.113-5.244-2.377-10.834-4.747-15.678-1.824-3.728-7.266-6.206-10.931-8.3-2.888-1.653-6.4-1.636-9.729-1.573A28.993,28.993,0,0,0,912.407,415.158Z" transform="translate(-878.316 -414.426)"/></g><g transform="translate(13.063)"><g transform="translate(10.306 10.451)"><path class="h" d="M918.435,362.8c1.749-15.374,20.855-14.15,27.187-2.273a22.708,22.708,0,0,1,1.9,15.107,12.222,12.222,0,0,1-3.428,6.439c-.807.733-2.455,1.115-3.085,1.849-1.046,1.218-.612,3.719-.409,5.235-1.913,1.356-4.481,1.176-6.812.919a1.545,1.545,0,0,1-.889-.291,1.479,1.479,0,0,1-.361-.662c-.6-1.808-.4-2.3-2.063-3.007-1.577-.673-3.185-.769-4.715-1.73a15.818,15.818,0,0,1-6.169-7.817C917.94,372.224,917.909,367.424,918.435,362.8Z" transform="translate(-918.133 -351.445)"/></g><path class="ab" d="M919.612,348.057s12.432-1.976,14.426,2.706c3,7.038,5.477,11.561,6.791,15.946l5.953-8.1-.9-15.1s-5.522-10.369-11.938-9.849-18.917,3.632-18.917,3.632l-7.7,6.6-6.754,2.323,10.64,18.7S908.116,349.635,919.612,348.057Z" transform="translate(-900.573 -333.639)"/></g></g><path class="ac" d="M1006.755,273.805a4.853,4.853,0,0,0-.489-1.353c-.244-.468-.971-1.814-1.932-3.589Z" transform="translate(-901.768 -186.389)"/><path class="ad" d="M938.485,167.965l9.131,2.716c3.245.966,8.552,2.547,11.8,3.513l9.131,2.718a5.721,5.721,0,0,0,7.256-4.376l2.1-9.488c.743-3.372,1.962-8.89,2.709-12.264l2.1-9.487c.75-3.371-1.376-4.482-4.718-2.47l-5.729,3.455c-2.1-3.662-4.2-7.3-5.009-8.636-1.845-3.027-5.391-5.342-12.355-5.3l-27.595.161,11.522,20.7a3.911,3.911,0,0,1,.713,1.038c.549,1.137,2.638,5.051,4.718,8.919l-5.605,3.379C935.318,164.56,935.241,167,938.485,167.965Z" transform="translate(-869.952 -128.345)"/><path class="ae" d="M883.966,135.518c-2.96,4.6-10.464,16.839-10.464,16.839a5.778,5.778,0,0,0,1.909,7.973l18.4,11.05a5.807,5.807,0,0,0,7.956-2.052s10.38-17.454,11.341-19.069c.988-1.679,2.179-1.929,3.141-.934l-11.522-20.7-6.646.039C893.291,128.689,887.813,129.54,883.966,135.518Z" transform="translate(-847.37 -128.459)"/><path class="ad" d="M833.631,240.209c2.073,4.116,7.812,14.71,12.017,22.474l13.042-21.818c1.537-2.684,4.387-7.662,6.764-11.784l6.677,3.8c3.388,1.929,5.485.762,4.657-2.59l-2.337-9.433c-.827-3.35-2.183-8.835-3.013-12.186l-2.331-9.433a5.716,5.716,0,0,0-7.363-4.188L852.683,198c-3.221,1.049-8.488,2.766-11.709,3.814l-9.061,2.951c-3.221,1.048-3.084,3.486.3,5.411l4.923,2.8c-2.515,4.976-5.475,10.851-6.222,12.536C829.569,228.556,830.4,233.809,833.631,240.209Z" transform="translate(-829.584 -155.777)"/><path class="ae" d="M870,273.315l-13.042,21.818c2.344,4.322,4.212,7.771,4.708,8.728,1.376,2.677,3.349,7.918,15.794,7.847l18.095-.106a5.843,5.843,0,0,0,5.723-5.923l-.121-21.852a5.84,5.84,0,0,0-5.792-5.858s-21.182.125-24.715.144c-2.23.013-2.514-1.5-1.731-2.905C869.021,275.017,869.42,274.324,870,273.315Z" transform="translate(-840.89 -188.228)"/><path class="ad" d="M1000.148,248.107l10.782,22.034c3.773-7.114,10.179-19.468,12.8-24.808,3.5-7.146,4.493-13.34,2.879-16.6s-9.6-19.1-9.6-19.1a5.212,5.212,0,0,0-7.544-2.15l-18.282,11.507a6.306,6.306,0,0,0-2.1,8.232s5.555,10.218,8.649,15.939c.961,1.774,1.688,3.121,1.932,3.589A4.853,4.853,0,0,1,1000.148,248.107Z" transform="translate(-895.16 -160.69)"/><path class="ae" d="M986.96,298.154c.426-.738,1.4-2.543,2.669-4.94l-10.782-22.034c.228,1.28-.405,2.152-1.956,2.16l-11.15.067-.061-6.831c-.037-3.969-2.059-5.257-4.5-2.862l-6.864,6.731c-2.441,2.391-6.436,6.305-8.873,8.7l-6.864,6.732a5.958,5.958,0,0,0,.07,8.617l6.985,6.607c2.481,2.347,6.54,6.185,9.024,8.533l6.981,6.607c2.481,2.347,4.487,1.022,4.45-2.946l-.06-6.493,8.539-.052C982.329,306.7,985.263,301.082,986.96,298.154Z" transform="translate(-873.859 -183.764)"/><g transform="translate(17.092 121.64)"><path class="h" d="M876.9,347.588l1.593-4.968,2.439-1.8c.422-1.317,2.233-4.554.234-5.144-1.554-.458-1.76,1.133-3.061,1.392-1.354.268-3.532-.682-4.812-1.084a2.229,2.229,0,0,0-1.386-.136c-1.308.46-.208,3.181-.09,4.057a7.98,7.98,0,0,1,.253,1.881l-.731,5.263Z" transform="translate(-863.895 -335.593)"/><path class="aa" d="M873.7,374.4c-3.4-6.138.514-18.351,1.045-24.257a16.3,16.3,0,0,0-6.49-1.7c-2.9-.137-2.995.1-3.92,2.649a84.628,84.628,0,0,0-3.212,13.391c-2.07,11.2-5.228,20.291,2.57,30.492a54.807,54.807,0,0,0,7.353,7.432c2.932,2.608,5.848,5.237,8.791,7.833,1.265,1.115,3.526,4.016,5.228,4.12a3.781,3.781,0,0,0,2.385-1.059c8.26-6.354,17.053-13.5,19.474-23.638a1.622,1.622,0,0,0-.092-1.353,1.7,1.7,0,0,0-1.255-.481,61.752,61.752,0,0,1-29.9-11.177A6.722,6.722,0,0,1,873.7,374.4Z" transform="translate(-858.704 -340.887)"/></g><g transform="translate(75.818 117.994)"><path class="h" d="M1012.515,333.653a7.978,7.978,0,0,0-.161,1.891l.985,5.222-5.531.808-1.831-4.885-2.524-1.681q-.527-1.405-1.053-2.81c-.264-.7-.458-.892-.07-1.4a2.838,2.838,0,0,1,2.235-.731c.474.19.7.715.935,1.169a2.509,2.509,0,0,0,1.243,1.295,2.757,2.757,0,0,0,2.077-.314,8.814,8.814,0,0,0,3.37-2.6c.089-.119.206-.255.352-.232a.376.376,0,0,1,.232.2C1013.645,330.987,1012.638,332.213,1012.515,333.653Z" transform="translate(-976.667 -329.38)"/><path class="aa" d="M987.648,367.776a17.587,17.587,0,0,0,1.67-4.97c.955-5.844-1.77-12.7-2.583-18.548a16.3,16.3,0,0,1,6.4-2.011c2.893-.277,3-.042,4.043,2.457a84.662,84.662,0,0,1,3.855,13.221c2.608,11.086,6.2,20.015-1.094,30.581a54.85,54.85,0,0,1-6.986,7.779c-6.194,6.027-11.322,12.118-18.182,17.391a5.481,5.481,0,0,1-3.351,1.515c-2.1-.083-3.294-2.387-4.043-4.355l-5.335-14.019c-1.068-2.806-2.136-5.613-3.033-8.478a2.623,2.623,0,0,1-.045-2.09,2.547,2.547,0,0,1,1.248-.91c5.716-2.524,12.12-3.474,17.462-6.713A28.067,28.067,0,0,0,987.648,367.776Z" transform="translate(-958.76 -334.658)"/></g></g><g transform="translate(145.819 26.301)"><g transform="translate(0 87.943)"><g transform="translate(0 16.096)"><path class="af" d="M323.336,417.737c-2.212-.9-4.122-1.755-6.463-1.579a12.64,12.64,0,0,0-8.114,3.468,41.7,41.7,0,0,0-11.7,18.6c-2.908,9.12-4.332,18.892-5.359,28.444a144.091,144.091,0,0,0,.582,35.184,3.592,3.592,0,0,0,3.24,3.457,72.85,72.85,0,0,0,10.629,1.3c13.192.853,26.342,1.2,39.528,1.572a2.794,2.794,0,0,0,2.083-.431,3.25,3.25,0,0,0,.905-2.7,157.51,157.51,0,0,0-2.216-26.357c-1.218-7.131-2.932-14.225-4.279-21.27a117.4,117.4,0,0,1-1.81-16.215c-.181-3.483.507-7.105-.831-10.4C336.49,423.311,330.4,420.612,323.336,417.737Z" transform="translate(-283.616 -375.666)"/><g transform="translate(25.957)"><path class="ag" d="M361.145,353.817a32.78,32.78,0,0,0-7.79-4.616c-2.372-.981-4.677-2-7.267-2.016-4.185-.019-7.883.863-11.14,3.645-3.813,3.258-5.791,7.6-7.833,12.14a65.118,65.118,0,0,0-3.549,10.676,20.05,20.05,0,0,0-.838,5.4c.055,1.565.74,2.288,2.019,3.166a64.724,64.724,0,0,0,19.877,8.917,15.655,15.655,0,0,0,6.939.584c2.8-.48,5.442-.9,8.246-1.25a3.427,3.427,0,0,0,1.71-.548,3.85,3.85,0,0,0,1.233-1.621c2.2-5.124,4.477-9.828,5.076-15.527a24.109,24.109,0,0,0-3.667-15.812A12.837,12.837,0,0,0,361.145,353.817Z" transform="translate(-322.723 -347.185)"/><g transform="translate(6.525 4.841)"><path class="ah" d="M364.93,379.612a7.026,7.026,0,0,0,1.017-3c.157-1.554.026-3.661-2.053-3.458-.109.011-.2.136-.285.195,0-.208.015-.411.028-.622.145-2.257.727-4.42.455-6.7a12.111,12.111,0,0,0-1.614-4.3,7.59,7.59,0,0,0-1.726-2.55c-3.217-2.527-6.247-3.942-10.485-3.718-2.754.146-4.492,1.063-7.04,2.982-.581.438-4.659,3.667-3.718,5.3-2.1-.372-3.234.1-4.324,1.888a6.547,6.547,0,0,0-.931,2.992,3,3,0,0,0,1.052,2.457c-.679,1.822-1.505,3.241-1.465,5.3a12.454,12.454,0,0,0,3.3,8.523,10.133,10.133,0,0,1,2.723,4.355,10.446,10.446,0,0,1-.007,2.828,4.3,4.3,0,0,0,.1,2.081,4.462,4.462,0,0,0,2.739,2.128c1.365.514,2.8.846,4.04.071s1.159-2.163,2.037-3.189c1.7-1.982,4.259-2.536,6.527-3.525a16.03,16.03,0,0,0,6.383-4.913,12.119,12.119,0,0,0,1.709-3.888A3.387,3.387,0,0,0,364.93,379.612Z" transform="translate(-333.84 -355.434)"/></g><path class="ag" d="M350.48,359.514c-.01.038.016.1-.023.111,1.2-.5,1.972-1.429,3.342-1.586a9.59,9.59,0,0,1,3.951.457c4.7,1.329,8.83,2.947,11.835,7.057a26.032,26.032,0,0,0,2.438-4.862,2.493,2.493,0,0,0,.218-1.426,1.631,1.631,0,0,0-.647-.9,33.044,33.044,0,0,0-12.419-6.284c-2.225-.556-4.611-.654-6.413,1.008S351.073,357.293,350.48,359.514Z" transform="translate(-334.179 -349.056)"/><path class="ag" d="M378.214,380.567a7.641,7.641,0,0,1-.323,1.26,18.393,18.393,0,0,1-7.319,9.627c.936-.222,2.113.777,2.786,1.05a18.99,18.99,0,0,0,4.445,1.084,1.119,1.119,0,0,0,.737-.07,1.292,1.292,0,0,0,.561-.619c1.7-3.392,3.671-6.543,4.447-10.326.856-4.174.481-8.346.107-12.588a6.04,6.04,0,0,0-5.724-6.5c.97.493,1.285,2.5,1.338,3.259a33.729,33.729,0,0,1-.081,4.189A67.419,67.419,0,0,1,378.214,380.567Z" transform="translate(-342.488 -353.919)"/><path class="ag" d="M335.885,364.885a7.72,7.72,0,0,0-.586,1.17,18.815,18.815,0,0,0-.809,12.4c-.569-.776-2.13-.815-2.818-1.054a20.519,20.519,0,0,1-4.1-2.073,1.109,1.109,0,0,1-.514-.541,1.428,1.428,0,0,1-.015-.879c.9-3.756,1.558-7.661,3.451-11.048,2.089-3.738,5.017-6.536,8.015-9.5a7.273,7.273,0,0,1,3.865-2.331c1.6-.282,3.029.477,4.425,1.153-1.03-.2-2.376,1.139-2.884,1.673a36.445,36.445,0,0,0-2.549,3.162A73.461,73.461,0,0,0,335.885,364.885Z" transform="translate(-324.482 -348.749)"/></g><g transform="translate(41.275 150.181)"><path class="ah" d="M365.788,603.06c-.209,9.831.881,18.788.414,28.816s-2.636,20.759-3.411,30.939c-2.807-.366-5.565-.593-8.343-1.233-.866-9.023-1.453-21.124-2.436-29.4s-2.283-12.441-3.192-19.961C354.5,609.317,360.1,606.093,365.788,603.06Z" transform="translate(-348.82 -603.06)"/><g transform="translate(3.699 56.781)"><path class="g" d="M366.143,701.738c-.16,1.3-.4,2.643.383,3.781s2.179,1.536,2.8,2.8a3.17,3.17,0,0,1,.107,1.79,2.3,2.3,0,0,1-.508,1.318,3.174,3.174,0,0,1-2.082.88,12.114,12.114,0,0,1-3.6.187,12.511,12.511,0,0,1-5.42-2.62c-1.419-1.066-2.449-2.027-2.684-3.87a5.15,5.15,0,0,1,.349-1.7,21.973,21.973,0,0,0,.626-4.5q5.161.263,10.319.541C366.35,700.821,366.2,701.245,366.143,701.738Z" transform="translate(-355.122 -699.802)"/></g></g><g transform="translate(0 39.665)"><g transform="translate(0 111.152)"><g transform="translate(3.593)"><path class="ah" d="M310.953,604.144c-1.936,10.12-2.06,19.285-5.166,29.47s-9.136,20.4-13.867,30.158a64.262,64.262,0,0,1-7.3-3.942c2.723-8.864,6.164-20.862,7.344-29.281s.512-12.577.875-20.222C298.9,608.52,304.9,606.29,310.953,604.144Z" transform="translate(-284.618 -604.144)"/></g><g transform="translate(0 53.697)"><path class="g" d="M290.5,700.78c-.65,1.2-1.4,2.42-1.078,3.809s1.516,2.276,1.7,3.7a3.329,3.329,0,0,1-.46,1.775,2.257,2.257,0,0,1-.884,1.1,3.023,3.023,0,0,1-2.24.139,12.024,12.024,0,0,1-3.465-1.057,12.536,12.536,0,0,1-4.263-4.365c-.981-1.517-1.609-2.768-1.173-4.61a5.129,5.129,0,0,1,.93-1.518,23.845,23.845,0,0,0,2.308-4.126q4.694,2.016,9.456,3.851C291.072,699.923,290.747,700.325,290.5,700.78Z" transform="translate(-278.497 -695.631)"/></g></g><path class="ai" d="M348.446,500.849q.02-4-.092-8.006a4.219,4.219,0,0,0-.273-1.663,4.283,4.283,0,0,0-1.679-1.621c-3.853-2.539-6.081-4.671-7.978-8.94a65.516,65.516,0,0,1-3.513-11.009c-.846-3.258-2.294-12.8-3.906-16.577-.76-1.781-.433.09-1-.9a98.125,98.125,0,0,1,2.651-27.268c.365-1.475.725-1.247.256-2.72-.14-.441-3.139-1.9-3.155-1.861-3.8,9.647-5.441,19.631-6.5,29.909-4.364-1.014-8.805-1.989-13.16-3.013.435-10.849,2.756-21.29,4.64-31.967.008-.047-3.32-.678-3.683-.36-1.212,1.065-.838,1.033-1.306,2.589a230,230,0,0,0-6.419,28.43c-.18.016-.316-.07-.5-.064-.575.018-1.005-.2-1.5.274a3.465,3.465,0,0,0-.814,1.885c-1.093,5.1-1.88,10.285-2.784,15.451-.443,2.53-.789,5.123-1.48,7.62-1.772,6.409-3.992,12.121-8.153,17.377a9.879,9.879,0,0,0-1.493,2.037,7.593,7.593,0,0,0-.53,2.557c-.249,3.605-.252,7.394-.218,10.967.186,19.772,1.423,39.229-1.572,58.859-.309,2.024-.67,3.853-1.013,6.068-.227,1.468-1.139,4.154-.283,5.7.465.841,1.948.989,2.689,1.319,1.046.467,1.987.782,3,1.147,2.016.728,4,1.374,5.964,2.206a245.779,245.779,0,0,0,23.724-38.724c1.272,12.421,3.23,24.7,4.773,37.128.038.31,10.414.918,11.321.529,2.694-1.159,2.429-4.081,3.243-6.855,2.519-8.577,4.759-17.2,6.43-25.984A245.264,245.264,0,0,0,348.446,500.849Z" transform="translate(-280.204 -414.767)"/></g></g><g transform="translate(9.022)"><path class="ah" d="M359.719,331.575c.146-.011.322-.042.448-.062.518-.08,1.247-.622,1.119-1.128-.419-1.649-3.2-1.524-1.8-3.468.381-.53,4.245-1.393,4.267-2,.114-3.121-1.982-5.318-4.836-5.142-1.932.119-2.988,1.7-4.2,2.9-1.886,1.866-3.286,4.065-5.232,5.86a.974.974,0,0,0-.391.6,1.342,1.342,0,0,0,.18.751c.921,2.067,1.734,3.888,4.124,4.408.335.072.583-.178.851-.334.768-.447,1.49-.969,2.252-1.435a6.164,6.164,0,0,1,1.839-.859A9.67,9.67,0,0,1,359.719,331.575Z" transform="translate(-316.677 -319.762)"/><path class="af" d="M306.5,348.142c1.051-.968,2.29-1.567,3.945-2.768,2-1.446,14.241-12,14.535-12.012,5.842-.268,4.686,5.485,8.994,6.532-4.245,4.212-8.13,7.078-12.509,11.331-7.645,7.424-10.617,12.55-8.223,23.534.673,3.09,2.619,5.266.932,8.4-.64,1.189-1.891,1.805-2.753,2.9-5.554,7.054-7.889,15.477-11.533,23.581-.271.6-.821.985-1.435.612a1.158,1.158,0,0,1-.384-.742c-.7-2.706-1.092-5.6-1.713-8.3s-2.042-4.833-2.119-7.661c-.156-5.717-.724-11.335-.025-17.128C295.523,365.528,298.112,355.864,306.5,348.142Z" transform="translate(-293.869 -325.376)"/></g><g transform="translate(53.513 6.123)"><path class="ah" d="M393.272,341.364c-.112-.114-.241-.265-.326-.37-.349-.43-.66-1.34-.221-1.705,1.43-1.189,3.544,1.184,3.35-1.667-.053-.778-3.3-4.236-2.987-4.9,1.622-3.386,4.665-3.021,7.023-.956,1.6,1.4,1.866,3.745,2.267,5.662.622,2.976.6,5.9,1.1,8.863a1.114,1.114,0,0,1-.049.788,1.17,1.17,0,0,1-.62.482c-2.088,1-3.858,1.8-6.026.543-.3-.176-.367-.564-.49-.88-.351-.907-.633-1.852-.973-2.773a7.684,7.684,0,0,0-.982-2.015A11.761,11.761,0,0,0,393.272,341.364Z" transform="translate(-379.104 -330.195)"/><path class="af" d="M399.748,381.972c-.09-1.294-.686-2.692-.9-4.793-.255-2.531-2.744-19.694-2.965-19.909-4.37-4.267-7.242,1.027-11.264-1.1.821,6,1.848,11.429,2.207,17.474.627,10.554-.8,15.794-9.408,22.269-1.734,1.3-3.7,1.564-5.27,2.51-1.8,1.085-2.069,1.078-2.294,3.226-.357,3.406,0,7.078-.143,10.67a30.556,30.556,0,0,0,1.476,11.807,1.547,1.547,0,0,0,.749.862.588.588,0,0,0,.621-.082,58.807,58.807,0,0,0,9.514-7.481c3.333-3.072,6.751-4.577,9.528-8.856C396.821,400.53,400.458,392.167,399.748,381.972Z" transform="translate(-369.671 -340.669)"/></g></g><g transform="translate(27.68)"><path class="aj" d="M397.4,259.169c-15.128,11.71-26.046,38.654-32.211,55.779l11.1,4.316c5.555-19.56,13.243-40.488,26.356-56.261Z" transform="translate(-341.989 -206.791)"/><g transform="translate(55.023 7.899)"><path class="ak" d="M499.3,186.333c-18.246-3.908-44.3-5.151-60.314,4.062s-19.024,25.031-19.585,41.46c14.416,7.9,29.545,13.381,45.639,4.3S493.359,204.024,499.3,186.333Z" transform="translate(-419.405 -183.386)"/><path class="al" d="M419.746,245.617c1.218.828,2.506,1.551,3.793,2.266q23.209-15.437,46.418-30.873Q444.845,229.1,419.733,241.2C419.69,242.67,419.656,244.146,419.746,245.617Z" transform="translate(-419.523 -197.275)"/></g><path class="ak" d="M328.147,169.928c-3.378,16.382-4.364,39.465,3.863,53.788s22.35,16.9,37,17.36c6.984-12.891,11.867-26.4,3.643-40.72S344,175.253,328.147,169.928Z" transform="translate(-325.658 -169.928)"/><path class="al" d="M381.264,259.359c.734-1.092,1.376-2.242,2.009-3.394q-13.848-20.664-27.7-41.328,10.871,22.375,21.744,44.749C378.636,259.419,379.952,259.443,381.264,259.359Z" transform="translate(-338.017 -188.396)"/><path class="ad" d="M419.786,251.9c23.786,4.462,50.888-1.264,67.376-19.676C473.413,260.73,447,269.319,419.786,251.9Z" transform="translate(-364.539 -195.662)"/></g></g></g></g></svg>