<svg xmlns="http://www.w3.org/2000/svg" width="63" height="63" viewBox="0 0 63 63"><defs><style>.a{fill:#05a8aa;}.b{fill:#011627;}</style></defs><g transform="translate(0 0.174)"><circle class="a" cx="31.5" cy="31.5" r="31.5" transform="translate(0 -0.174)"/><g transform="translate(14.019 19.004)"><path class="b" d="M61.6,37.54a14.941,14.941,0,0,1-4.3,1.178A7.509,7.509,0,0,0,60.6,34.575a14.991,14.991,0,0,1-4.755,1.817,7.495,7.495,0,0,0-12.761,6.831A21.258,21.258,0,0,1,27.643,35.4a7.5,7.5,0,0,0,2.317,10,7.436,7.436,0,0,1-3.392-.938c0,.032,0,.064,0,.095A7.493,7.493,0,0,0,32.576,51.9a7.517,7.517,0,0,1-3.382.13,7.5,7.5,0,0,0,7,5.2,15.117,15.117,0,0,1-11.087,3.1,21.182,21.182,0,0,0,11.478,3.365c13.774,0,21.307-11.411,21.307-21.307,0-.324-.007-.648-.022-.968A15.186,15.186,0,0,0,61.6,37.54Z" transform="translate(-25.103 -34.028)"/></g></g></svg>