<svg xmlns="http://www.w3.org/2000/svg" width="62.658" height="62.658" viewBox="0 0 62.658 62.658"><defs><style>.a{fill:#05a8aa;}</style></defs><path class="a" d="M224.113,219.778l10.191-5.869-10.191-5.869Zm0,0" transform="translate(-196.686 -182.579)"/><path class="a" d="M31.329,0A31.329,31.329,0,1,0,62.658,31.329,31.333,31.333,0,0,0,31.329,0ZM50.905,31.361s0,6.354-.806,9.417a4.906,4.906,0,0,1-3.451,3.451c-3.064.806-15.319.806-15.319.806s-12.223,0-15.319-.838a4.906,4.906,0,0,1-3.451-3.451c-.806-3.031-.806-9.417-.806-9.417s0-6.353.806-9.417a5.005,5.005,0,0,1,3.451-3.483c3.064-.806,15.319-.806,15.319-.806s12.255,0,15.319.838A4.906,4.906,0,0,1,50.1,21.912c.838,3.064.806,9.449.806,9.449Zm0,0"/></svg>